%TF.GenerationSoftware,KiCad,Pcbnew,10.0.4*%
%TF.CreationDate,2026-09-22T07:25:59-04:00*%
%TF.ProjectId,bms,626d732e-6b69-4636-9164-5f7063625858,rev?*%
%TF.SameCoordinates,Original*%
%TF.FileFunction,Soldermask,Bot*%
%TF.FilePolarity,Negative*%
%FSLAX46Y46*%
G04 Gerber Fmt 4.6, Leading zero omitted, Abs format (unit mm)*
G04 Created by KiCad (PCBNEW 10.0.4) date 2026-09-22 07:25:59*
%MOMM*%
%LPD*%
G01*
G04 APERTURE LIST*
G04 Aperture macros list*
%AMRoundRect*
0 Rectangle with rounded corners*
0 $1 Rounding radius*
0 $2 $3 $4 $5 $6 $7 $8 $9 X,Y pos of 4 corners*
0 Add a 4 corners polygon primitive as box body*
4,1,4,$2,$3,$4,$5,$6,$7,$8,$9,$2,$3,0*
0 Add four circle primitives for the rounded corners*
1,1,$1+$1,$2,$3*
1,1,$1+$1,$4,$5*
1,1,$1+$1,$6,$7*
1,1,$1+$1,$8,$9*
0 Add four rect primitives between the rounded corners*
20,1,$1+$1,$2,$3,$4,$5,0*
20,1,$1+$1,$4,$5,$6,$7,0*
20,1,$1+$1,$6,$7,$8,$9,0*
20,1,$1+$1,$8,$9,$2,$3,0*%
G04 Aperture macros list end*
%ADD10C,2.880000*%
%ADD11C,3.100000*%
%ADD12RoundRect,0.300002X-1.599998X-1.599998X1.599998X-1.599998X1.599998X1.599998X-1.599998X1.599998X0*%
%ADD13C,3.800000*%
%ADD14RoundRect,0.200000X-0.150000X-0.625000X0.150000X-0.625000X0.150000X0.625000X-0.150000X0.625000X0*%
%ADD15RoundRect,0.300000X-0.350000X-0.650000X0.350000X-0.650000X0.350000X0.650000X-0.350000X0.650000X0*%
%ADD16RoundRect,0.275000X-0.225000X-0.250000X0.225000X-0.250000X0.225000X0.250000X-0.225000X0.250000X0*%
%ADD17RoundRect,0.250000X0.200000X0.275000X-0.200000X0.275000X-0.200000X-0.275000X0.200000X-0.275000X0*%
%ADD18RoundRect,0.250000X0.275000X-0.200000X0.275000X0.200000X-0.275000X0.200000X-0.275000X-0.200000X0*%
%ADD19RoundRect,0.250000X-0.275000X0.200000X-0.275000X-0.200000X0.275000X-0.200000X0.275000X0.200000X0*%
%ADD20RoundRect,0.200000X0.150000X-0.587500X0.150000X0.587500X-0.150000X0.587500X-0.150000X-0.587500X0*%
%ADD21RoundRect,0.250000X-0.200000X-0.275000X0.200000X-0.275000X0.200000X0.275000X-0.200000X0.275000X0*%
%ADD22RoundRect,0.150000X-0.712500X-0.100000X0.712500X-0.100000X0.712500X0.100000X-0.712500X0.100000X0*%
%ADD23RoundRect,0.300000X-0.312500X-0.625000X0.312500X-0.625000X0.312500X0.625000X-0.312500X0.625000X0*%
%ADD24RoundRect,0.200000X0.150000X-0.825000X0.150000X0.825000X-0.150000X0.825000X-0.150000X-0.825000X0*%
%ADD25RoundRect,0.150000X-0.637500X-0.100000X0.637500X-0.100000X0.637500X0.100000X-0.637500X0.100000X0*%
%ADD26RoundRect,0.162500X-0.112500X0.187500X-0.112500X-0.187500X0.112500X-0.187500X0.112500X0.187500X0*%
%ADD27RoundRect,0.050000X-0.750000X-0.750000X0.750000X-0.750000X0.750000X0.750000X-0.750000X0.750000X0*%
%ADD28RoundRect,0.275000X0.250000X-0.225000X0.250000X0.225000X-0.250000X0.225000X-0.250000X-0.225000X0*%
%ADD29RoundRect,0.300000X-0.325000X-0.650000X0.325000X-0.650000X0.325000X0.650000X-0.325000X0.650000X0*%
%ADD30RoundRect,0.275000X0.225000X0.250000X-0.225000X0.250000X-0.225000X-0.250000X0.225000X-0.250000X0*%
%ADD31RoundRect,0.200000X0.150000X0.625000X-0.150000X0.625000X-0.150000X-0.625000X0.150000X-0.625000X0*%
%ADD32RoundRect,0.300000X0.350000X0.650000X-0.350000X0.650000X-0.350000X-0.650000X0.350000X-0.650000X0*%
%ADD33RoundRect,0.050000X-0.500000X-0.500000X0.500000X-0.500000X0.500000X0.500000X-0.500000X0.500000X0*%
%ADD34RoundRect,0.200000X0.512500X0.150000X-0.512500X0.150000X-0.512500X-0.150000X0.512500X-0.150000X0*%
%ADD35RoundRect,0.150000X0.637500X0.100000X-0.637500X0.100000X-0.637500X-0.100000X0.637500X-0.100000X0*%
%ADD36RoundRect,0.185000X-0.185000X0.135000X-0.185000X-0.135000X0.185000X-0.135000X0.185000X0.135000X0*%
%ADD37RoundRect,0.200000X-0.587500X-0.150000X0.587500X-0.150000X0.587500X0.150000X-0.587500X0.150000X0*%
%ADD38RoundRect,0.300000X0.362500X1.075000X-0.362500X1.075000X-0.362500X-1.075000X0.362500X-1.075000X0*%
%ADD39RoundRect,0.100000X0.375000X0.100000X-0.375000X0.100000X-0.375000X-0.100000X0.375000X-0.100000X0*%
G04 APERTURE END LIST*
D10*
%TO.C,F1*%
X112650000Y-77190000D03*
X109250000Y-77190000D03*
X112650000Y-87110000D03*
X109250000Y-87110000D03*
%TD*%
D11*
%TO.C,J2*%
X144780000Y-86675000D03*
X166520000Y-86675000D03*
D12*
X149950000Y-80650000D03*
D13*
X155650000Y-80650000D03*
X161350000Y-80650000D03*
X149950000Y-86350000D03*
X155650000Y-86350000D03*
X161350000Y-86350000D03*
%TD*%
D14*
%TO.C,J2074*%
X126750000Y-65900000D03*
X127750000Y-65900000D03*
X128750000Y-65900000D03*
X129750000Y-65900000D03*
X130750000Y-65900000D03*
D15*
X125450000Y-62025000D03*
X132050000Y-62025000D03*
%TD*%
D16*
%TO.C,C2241*%
X117225000Y-68000000D03*
X118775000Y-68000000D03*
%TD*%
D17*
%TO.C,R2212*%
X130075000Y-68000000D03*
X128425000Y-68000000D03*
%TD*%
%TO.C,R2264*%
X157725000Y-74300000D03*
X156075000Y-74300000D03*
%TD*%
D18*
%TO.C,R2253*%
X164000000Y-86825000D03*
X164000000Y-85175000D03*
%TD*%
D19*
%TO.C,R2250*%
X151250000Y-90175000D03*
X151250000Y-91825000D03*
%TD*%
D20*
%TO.C,Q2200*%
X135700000Y-90187500D03*
X133800000Y-90187500D03*
X134750000Y-88312500D03*
%TD*%
D21*
%TO.C,R2239*%
X118675000Y-93250000D03*
X120325000Y-93250000D03*
%TD*%
D17*
%TO.C,R2237*%
X124325000Y-93875000D03*
X122675000Y-93875000D03*
%TD*%
D22*
%TO.C,U2206*%
X141112500Y-93472500D03*
X141112500Y-92837500D03*
X141112500Y-92202500D03*
X141112500Y-91567500D03*
X141112500Y-90932500D03*
X141112500Y-90297500D03*
X141112500Y-89662500D03*
X141112500Y-89027500D03*
X146387500Y-89027500D03*
X146387500Y-89662500D03*
X146387500Y-90297500D03*
X146387500Y-90932500D03*
X146387500Y-91567500D03*
X146387500Y-92202500D03*
X146387500Y-92837500D03*
X146387500Y-93472500D03*
%TD*%
D23*
%TO.C,R2257*%
X153037500Y-92500000D03*
X155962500Y-92500000D03*
%TD*%
%TO.C,R2252*%
X155037500Y-77250000D03*
X157962500Y-77250000D03*
%TD*%
D24*
%TO.C,U2209*%
X163655000Y-76975000D03*
X162385000Y-76975000D03*
X161115000Y-76975000D03*
X159845000Y-76975000D03*
X159845000Y-72025000D03*
X161115000Y-72025000D03*
X162385000Y-72025000D03*
X163655000Y-72025000D03*
%TD*%
D25*
%TO.C,U2202*%
X117487500Y-64900000D03*
X117487500Y-64250000D03*
X117487500Y-63600000D03*
X117487500Y-62950000D03*
X117487500Y-62300000D03*
X117487500Y-61650000D03*
X117487500Y-61000000D03*
X123212500Y-61000000D03*
X123212500Y-61650000D03*
X123212500Y-62300000D03*
X123212500Y-62950000D03*
X123212500Y-63600000D03*
X123212500Y-64250000D03*
X123212500Y-64900000D03*
%TD*%
D26*
%TO.C,D2200*%
X153000000Y-74450000D03*
X153000000Y-76550000D03*
%TD*%
D18*
%TO.C,R2265*%
X153500000Y-90575000D03*
X153500000Y-88925000D03*
%TD*%
D27*
%TO.C,TPB22*%
X162000000Y-61500000D03*
%TD*%
D28*
%TO.C,C2255*%
X165250000Y-77775000D03*
X165250000Y-76225000D03*
%TD*%
D29*
%TO.C,C2201*%
X112025000Y-69250000D03*
X114975000Y-69250000D03*
%TD*%
D16*
%TO.C,C2250*%
X137525000Y-93000000D03*
X139075000Y-93000000D03*
%TD*%
D18*
%TO.C,R2201*%
X129250000Y-93075000D03*
X129250000Y-91425000D03*
%TD*%
D30*
%TO.C,C2212*%
X115775000Y-61000000D03*
X114225000Y-61000000D03*
%TD*%
D31*
%TO.C,J2200*%
X137750000Y-67500000D03*
X136750000Y-67500000D03*
X135750000Y-67500000D03*
X134750000Y-67500000D03*
X133750000Y-67500000D03*
X132750000Y-67500000D03*
D32*
X139050000Y-71375000D03*
X131450000Y-71375000D03*
%TD*%
D17*
%TO.C,R2256*%
X165200000Y-67125000D03*
X163550000Y-67125000D03*
%TD*%
D21*
%TO.C,R2213*%
X108675000Y-61500000D03*
X110325000Y-61500000D03*
%TD*%
D33*
%TO.C,TPB5*%
X152550000Y-62000000D03*
%TD*%
D16*
%TO.C,C2231*%
X135975000Y-83500000D03*
X137525000Y-83500000D03*
%TD*%
D28*
%TO.C,C2256*%
X165250000Y-72775000D03*
X165250000Y-71225000D03*
%TD*%
D34*
%TO.C,U2200*%
X114637500Y-64800000D03*
X114637500Y-65750000D03*
X114637500Y-66700000D03*
X112362500Y-66700000D03*
X112362500Y-64800000D03*
%TD*%
D28*
%TO.C,C2251*%
X148250000Y-93525000D03*
X148250000Y-91975000D03*
%TD*%
D21*
%TO.C,R708*%
X162425000Y-83250000D03*
X164075000Y-83250000D03*
%TD*%
D27*
%TO.C,TPB7*%
X145000000Y-68500000D03*
%TD*%
D21*
%TO.C,R2259*%
X152675000Y-72000000D03*
X154325000Y-72000000D03*
%TD*%
D35*
%TO.C,U2203*%
X139862500Y-61300000D03*
X139862500Y-61950000D03*
X139862500Y-62600000D03*
X139862500Y-63250000D03*
X139862500Y-63900000D03*
X139862500Y-64550000D03*
X139862500Y-65200000D03*
X134137500Y-65200000D03*
X134137500Y-64550000D03*
X134137500Y-63900000D03*
X134137500Y-63250000D03*
X134137500Y-62600000D03*
X134137500Y-61950000D03*
X134137500Y-61300000D03*
%TD*%
D27*
%TO.C,TPB27*%
X148750000Y-89750000D03*
%TD*%
D21*
%TO.C,R2251*%
X149675000Y-93250000D03*
X151325000Y-93250000D03*
%TD*%
D36*
%TO.C,R2254*%
X141000000Y-71640000D03*
X141000000Y-72660000D03*
%TD*%
D37*
%TO.C,Q701*%
X142562500Y-72450000D03*
X142562500Y-70550000D03*
X144437500Y-71500000D03*
%TD*%
D18*
%TO.C,R2230*%
X142000000Y-67325000D03*
X142000000Y-65675000D03*
%TD*%
D21*
%TO.C,R2238*%
X118675000Y-91750000D03*
X120325000Y-91750000D03*
%TD*%
D28*
%TO.C,C2200*%
X112100000Y-63275000D03*
X112100000Y-61725000D03*
%TD*%
D18*
%TO.C,R2231*%
X128000000Y-73075000D03*
X128000000Y-71425000D03*
%TD*%
D37*
%TO.C,D2202*%
X158062500Y-90950000D03*
X158062500Y-89050000D03*
X159937500Y-90000000D03*
%TD*%
D38*
%TO.C,R2200*%
X116062500Y-82000000D03*
X111437500Y-82000000D03*
%TD*%
D20*
%TO.C,U2204*%
X117200000Y-90187500D03*
X115300000Y-90187500D03*
X116250000Y-88312500D03*
%TD*%
D21*
%TO.C,R2236*%
X133675000Y-93500000D03*
X135325000Y-93500000D03*
%TD*%
%TO.C,R2255*%
X161925000Y-70000000D03*
X163575000Y-70000000D03*
%TD*%
D27*
%TO.C,TPB21*%
X116500000Y-92500000D03*
%TD*%
D37*
%TO.C,D2201*%
X156062500Y-71950000D03*
X156062500Y-70050000D03*
X157937500Y-71000000D03*
%TD*%
D35*
%TO.C,U2201*%
X150112500Y-60800000D03*
X150112500Y-61450000D03*
X150112500Y-62100000D03*
X150112500Y-62750000D03*
X150112500Y-63400000D03*
X150112500Y-64050000D03*
X150112500Y-64700000D03*
X144387500Y-64700000D03*
X144387500Y-64050000D03*
X144387500Y-63400000D03*
X144387500Y-62750000D03*
X144387500Y-62100000D03*
X144387500Y-61450000D03*
X144387500Y-60800000D03*
%TD*%
D39*
%TO.C,U2205*%
X138300000Y-85250000D03*
X138300000Y-85750000D03*
X138300000Y-86250000D03*
X138300000Y-86750000D03*
X135200000Y-86750000D03*
X135200000Y-86250000D03*
X135200000Y-85750000D03*
X135200000Y-85250000D03*
%TD*%
D27*
%TO.C,TPB20*%
X115500000Y-73000000D03*
%TD*%
%TO.C,TPB25*%
X127250000Y-80750000D03*
%TD*%
M02*
