%TF.GenerationSoftware,KiCad,Pcbnew,10.0.4*%
%TF.CreationDate,2026-09-22T07:25:59-04:00*%
%TF.ProjectId,bms,626d732e-6b69-4636-9164-5f7063625858,rev?*%
%TF.SameCoordinates,Original*%
%TF.FileFunction,Legend,Bot*%
%TF.FilePolarity,Positive*%
%FSLAX46Y46*%
G04 Gerber Fmt 4.6, Leading zero omitted, Abs format (unit mm)*
G04 Created by KiCad (PCBNEW 10.0.4) date 2026-09-22 07:25:59*
%MOMM*%
%LPD*%
G01*
G04 APERTURE LIST*
%ADD10C,0.150000*%
G04 APERTURE END LIST*
D10*
X130159524Y-63367487D02*
X130159524Y-63938915D01*
X130159524Y-63938915D02*
X130197619Y-64053201D01*
X130197619Y-64053201D02*
X130273810Y-64129392D01*
X130273810Y-64129392D02*
X130388095Y-64167487D01*
X130388095Y-64167487D02*
X130464286Y-64167487D01*
X129816667Y-63443677D02*
X129778571Y-63405582D01*
X129778571Y-63405582D02*
X129702381Y-63367487D01*
X129702381Y-63367487D02*
X129511905Y-63367487D01*
X129511905Y-63367487D02*
X129435714Y-63405582D01*
X129435714Y-63405582D02*
X129397619Y-63443677D01*
X129397619Y-63443677D02*
X129359524Y-63519868D01*
X129359524Y-63519868D02*
X129359524Y-63596058D01*
X129359524Y-63596058D02*
X129397619Y-63710344D01*
X129397619Y-63710344D02*
X129854762Y-64167487D01*
X129854762Y-64167487D02*
X129359524Y-64167487D01*
X128864285Y-63367487D02*
X128788095Y-63367487D01*
X128788095Y-63367487D02*
X128711904Y-63405582D01*
X128711904Y-63405582D02*
X128673809Y-63443677D01*
X128673809Y-63443677D02*
X128635714Y-63519868D01*
X128635714Y-63519868D02*
X128597619Y-63672249D01*
X128597619Y-63672249D02*
X128597619Y-63862725D01*
X128597619Y-63862725D02*
X128635714Y-64015106D01*
X128635714Y-64015106D02*
X128673809Y-64091296D01*
X128673809Y-64091296D02*
X128711904Y-64129392D01*
X128711904Y-64129392D02*
X128788095Y-64167487D01*
X128788095Y-64167487D02*
X128864285Y-64167487D01*
X128864285Y-64167487D02*
X128940476Y-64129392D01*
X128940476Y-64129392D02*
X128978571Y-64091296D01*
X128978571Y-64091296D02*
X129016666Y-64015106D01*
X129016666Y-64015106D02*
X129054762Y-63862725D01*
X129054762Y-63862725D02*
X129054762Y-63672249D01*
X129054762Y-63672249D02*
X129016666Y-63519868D01*
X129016666Y-63519868D02*
X128978571Y-63443677D01*
X128978571Y-63443677D02*
X128940476Y-63405582D01*
X128940476Y-63405582D02*
X128864285Y-63367487D01*
X128330952Y-63367487D02*
X127797618Y-63367487D01*
X127797618Y-63367487D02*
X128140476Y-64167487D01*
X127149999Y-63634153D02*
X127149999Y-64167487D01*
X127340475Y-63329392D02*
X127530952Y-63900820D01*
X127530952Y-63900820D02*
X127035713Y-63900820D01*
X120775650Y-69541296D02*
X120813746Y-69579392D01*
X120813746Y-69579392D02*
X120928031Y-69617487D01*
X120928031Y-69617487D02*
X121004222Y-69617487D01*
X121004222Y-69617487D02*
X121118508Y-69579392D01*
X121118508Y-69579392D02*
X121194698Y-69503201D01*
X121194698Y-69503201D02*
X121232793Y-69427011D01*
X121232793Y-69427011D02*
X121270889Y-69274630D01*
X121270889Y-69274630D02*
X121270889Y-69160344D01*
X121270889Y-69160344D02*
X121232793Y-69007963D01*
X121232793Y-69007963D02*
X121194698Y-68931772D01*
X121194698Y-68931772D02*
X121118508Y-68855582D01*
X121118508Y-68855582D02*
X121004222Y-68817487D01*
X121004222Y-68817487D02*
X120928031Y-68817487D01*
X120928031Y-68817487D02*
X120813746Y-68855582D01*
X120813746Y-68855582D02*
X120775650Y-68893677D01*
X120470889Y-68893677D02*
X120432793Y-68855582D01*
X120432793Y-68855582D02*
X120356603Y-68817487D01*
X120356603Y-68817487D02*
X120166127Y-68817487D01*
X120166127Y-68817487D02*
X120089936Y-68855582D01*
X120089936Y-68855582D02*
X120051841Y-68893677D01*
X120051841Y-68893677D02*
X120013746Y-68969868D01*
X120013746Y-68969868D02*
X120013746Y-69046058D01*
X120013746Y-69046058D02*
X120051841Y-69160344D01*
X120051841Y-69160344D02*
X120508984Y-69617487D01*
X120508984Y-69617487D02*
X120013746Y-69617487D01*
X119708984Y-68893677D02*
X119670888Y-68855582D01*
X119670888Y-68855582D02*
X119594698Y-68817487D01*
X119594698Y-68817487D02*
X119404222Y-68817487D01*
X119404222Y-68817487D02*
X119328031Y-68855582D01*
X119328031Y-68855582D02*
X119289936Y-68893677D01*
X119289936Y-68893677D02*
X119251841Y-68969868D01*
X119251841Y-68969868D02*
X119251841Y-69046058D01*
X119251841Y-69046058D02*
X119289936Y-69160344D01*
X119289936Y-69160344D02*
X119747079Y-69617487D01*
X119747079Y-69617487D02*
X119251841Y-69617487D01*
X118566126Y-69084153D02*
X118566126Y-69617487D01*
X118756602Y-68779392D02*
X118947079Y-69350820D01*
X118947079Y-69350820D02*
X118451840Y-69350820D01*
X117728031Y-69617487D02*
X118185174Y-69617487D01*
X117956602Y-69617487D02*
X117956602Y-68817487D01*
X117956602Y-68817487D02*
X118032793Y-68931772D01*
X118032793Y-68931772D02*
X118108983Y-69007963D01*
X118108983Y-69007963D02*
X118185174Y-69046058D01*
X126645583Y-68848443D02*
X126912250Y-68467490D01*
X127102726Y-68848443D02*
X127102726Y-68048443D01*
X127102726Y-68048443D02*
X126797964Y-68048443D01*
X126797964Y-68048443D02*
X126721774Y-68086538D01*
X126721774Y-68086538D02*
X126683679Y-68124633D01*
X126683679Y-68124633D02*
X126645583Y-68200824D01*
X126645583Y-68200824D02*
X126645583Y-68315109D01*
X126645583Y-68315109D02*
X126683679Y-68391300D01*
X126683679Y-68391300D02*
X126721774Y-68429395D01*
X126721774Y-68429395D02*
X126797964Y-68467490D01*
X126797964Y-68467490D02*
X127102726Y-68467490D01*
X126340822Y-68124633D02*
X126302726Y-68086538D01*
X126302726Y-68086538D02*
X126226536Y-68048443D01*
X126226536Y-68048443D02*
X126036060Y-68048443D01*
X126036060Y-68048443D02*
X125959869Y-68086538D01*
X125959869Y-68086538D02*
X125921774Y-68124633D01*
X125921774Y-68124633D02*
X125883679Y-68200824D01*
X125883679Y-68200824D02*
X125883679Y-68277014D01*
X125883679Y-68277014D02*
X125921774Y-68391300D01*
X125921774Y-68391300D02*
X126378917Y-68848443D01*
X126378917Y-68848443D02*
X125883679Y-68848443D01*
X125578917Y-68124633D02*
X125540821Y-68086538D01*
X125540821Y-68086538D02*
X125464631Y-68048443D01*
X125464631Y-68048443D02*
X125274155Y-68048443D01*
X125274155Y-68048443D02*
X125197964Y-68086538D01*
X125197964Y-68086538D02*
X125159869Y-68124633D01*
X125159869Y-68124633D02*
X125121774Y-68200824D01*
X125121774Y-68200824D02*
X125121774Y-68277014D01*
X125121774Y-68277014D02*
X125159869Y-68391300D01*
X125159869Y-68391300D02*
X125617012Y-68848443D01*
X125617012Y-68848443D02*
X125121774Y-68848443D01*
X124359869Y-68848443D02*
X124817012Y-68848443D01*
X124588440Y-68848443D02*
X124588440Y-68048443D01*
X124588440Y-68048443D02*
X124664631Y-68162728D01*
X124664631Y-68162728D02*
X124740821Y-68238919D01*
X124740821Y-68238919D02*
X124817012Y-68277014D01*
X124055107Y-68124633D02*
X124017011Y-68086538D01*
X124017011Y-68086538D02*
X123940821Y-68048443D01*
X123940821Y-68048443D02*
X123750345Y-68048443D01*
X123750345Y-68048443D02*
X123674154Y-68086538D01*
X123674154Y-68086538D02*
X123636059Y-68124633D01*
X123636059Y-68124633D02*
X123597964Y-68200824D01*
X123597964Y-68200824D02*
X123597964Y-68277014D01*
X123597964Y-68277014D02*
X123636059Y-68391300D01*
X123636059Y-68391300D02*
X124093202Y-68848443D01*
X124093202Y-68848443D02*
X123597964Y-68848443D01*
X157764286Y-75917267D02*
X158030953Y-75536314D01*
X158221429Y-75917267D02*
X158221429Y-75117267D01*
X158221429Y-75117267D02*
X157916667Y-75117267D01*
X157916667Y-75117267D02*
X157840477Y-75155362D01*
X157840477Y-75155362D02*
X157802382Y-75193457D01*
X157802382Y-75193457D02*
X157764286Y-75269648D01*
X157764286Y-75269648D02*
X157764286Y-75383933D01*
X157764286Y-75383933D02*
X157802382Y-75460124D01*
X157802382Y-75460124D02*
X157840477Y-75498219D01*
X157840477Y-75498219D02*
X157916667Y-75536314D01*
X157916667Y-75536314D02*
X158221429Y-75536314D01*
X157459525Y-75193457D02*
X157421429Y-75155362D01*
X157421429Y-75155362D02*
X157345239Y-75117267D01*
X157345239Y-75117267D02*
X157154763Y-75117267D01*
X157154763Y-75117267D02*
X157078572Y-75155362D01*
X157078572Y-75155362D02*
X157040477Y-75193457D01*
X157040477Y-75193457D02*
X157002382Y-75269648D01*
X157002382Y-75269648D02*
X157002382Y-75345838D01*
X157002382Y-75345838D02*
X157040477Y-75460124D01*
X157040477Y-75460124D02*
X157497620Y-75917267D01*
X157497620Y-75917267D02*
X157002382Y-75917267D01*
X156697620Y-75193457D02*
X156659524Y-75155362D01*
X156659524Y-75155362D02*
X156583334Y-75117267D01*
X156583334Y-75117267D02*
X156392858Y-75117267D01*
X156392858Y-75117267D02*
X156316667Y-75155362D01*
X156316667Y-75155362D02*
X156278572Y-75193457D01*
X156278572Y-75193457D02*
X156240477Y-75269648D01*
X156240477Y-75269648D02*
X156240477Y-75345838D01*
X156240477Y-75345838D02*
X156278572Y-75460124D01*
X156278572Y-75460124D02*
X156735715Y-75917267D01*
X156735715Y-75917267D02*
X156240477Y-75917267D01*
X155554762Y-75117267D02*
X155707143Y-75117267D01*
X155707143Y-75117267D02*
X155783334Y-75155362D01*
X155783334Y-75155362D02*
X155821429Y-75193457D01*
X155821429Y-75193457D02*
X155897619Y-75307743D01*
X155897619Y-75307743D02*
X155935715Y-75460124D01*
X155935715Y-75460124D02*
X155935715Y-75764886D01*
X155935715Y-75764886D02*
X155897619Y-75841076D01*
X155897619Y-75841076D02*
X155859524Y-75879172D01*
X155859524Y-75879172D02*
X155783334Y-75917267D01*
X155783334Y-75917267D02*
X155630953Y-75917267D01*
X155630953Y-75917267D02*
X155554762Y-75879172D01*
X155554762Y-75879172D02*
X155516667Y-75841076D01*
X155516667Y-75841076D02*
X155478572Y-75764886D01*
X155478572Y-75764886D02*
X155478572Y-75574410D01*
X155478572Y-75574410D02*
X155516667Y-75498219D01*
X155516667Y-75498219D02*
X155554762Y-75460124D01*
X155554762Y-75460124D02*
X155630953Y-75422029D01*
X155630953Y-75422029D02*
X155783334Y-75422029D01*
X155783334Y-75422029D02*
X155859524Y-75460124D01*
X155859524Y-75460124D02*
X155897619Y-75498219D01*
X155897619Y-75498219D02*
X155935715Y-75574410D01*
X154792857Y-75383933D02*
X154792857Y-75917267D01*
X154983333Y-75079172D02*
X155173810Y-75650600D01*
X155173810Y-75650600D02*
X154678571Y-75650600D01*
X161095582Y-84148315D02*
X161362249Y-83767362D01*
X161552725Y-84148315D02*
X161552725Y-83348315D01*
X161552725Y-83348315D02*
X161247963Y-83348315D01*
X161247963Y-83348315D02*
X161171773Y-83386410D01*
X161171773Y-83386410D02*
X161133678Y-83424505D01*
X161133678Y-83424505D02*
X161095582Y-83500696D01*
X161095582Y-83500696D02*
X161095582Y-83614981D01*
X161095582Y-83614981D02*
X161133678Y-83691172D01*
X161133678Y-83691172D02*
X161171773Y-83729267D01*
X161171773Y-83729267D02*
X161247963Y-83767362D01*
X161247963Y-83767362D02*
X161552725Y-83767362D01*
X160790821Y-83424505D02*
X160752725Y-83386410D01*
X160752725Y-83386410D02*
X160676535Y-83348315D01*
X160676535Y-83348315D02*
X160486059Y-83348315D01*
X160486059Y-83348315D02*
X160409868Y-83386410D01*
X160409868Y-83386410D02*
X160371773Y-83424505D01*
X160371773Y-83424505D02*
X160333678Y-83500696D01*
X160333678Y-83500696D02*
X160333678Y-83576886D01*
X160333678Y-83576886D02*
X160371773Y-83691172D01*
X160371773Y-83691172D02*
X160828916Y-84148315D01*
X160828916Y-84148315D02*
X160333678Y-84148315D01*
X160028916Y-83424505D02*
X159990820Y-83386410D01*
X159990820Y-83386410D02*
X159914630Y-83348315D01*
X159914630Y-83348315D02*
X159724154Y-83348315D01*
X159724154Y-83348315D02*
X159647963Y-83386410D01*
X159647963Y-83386410D02*
X159609868Y-83424505D01*
X159609868Y-83424505D02*
X159571773Y-83500696D01*
X159571773Y-83500696D02*
X159571773Y-83576886D01*
X159571773Y-83576886D02*
X159609868Y-83691172D01*
X159609868Y-83691172D02*
X160067011Y-84148315D01*
X160067011Y-84148315D02*
X159571773Y-84148315D01*
X158847963Y-83348315D02*
X159228915Y-83348315D01*
X159228915Y-83348315D02*
X159267011Y-83729267D01*
X159267011Y-83729267D02*
X159228915Y-83691172D01*
X159228915Y-83691172D02*
X159152725Y-83653077D01*
X159152725Y-83653077D02*
X158962249Y-83653077D01*
X158962249Y-83653077D02*
X158886058Y-83691172D01*
X158886058Y-83691172D02*
X158847963Y-83729267D01*
X158847963Y-83729267D02*
X158809868Y-83805458D01*
X158809868Y-83805458D02*
X158809868Y-83995934D01*
X158809868Y-83995934D02*
X158847963Y-84072124D01*
X158847963Y-84072124D02*
X158886058Y-84110220D01*
X158886058Y-84110220D02*
X158962249Y-84148315D01*
X158962249Y-84148315D02*
X159152725Y-84148315D01*
X159152725Y-84148315D02*
X159228915Y-84110220D01*
X159228915Y-84110220D02*
X159267011Y-84072124D01*
X158543201Y-83348315D02*
X158047963Y-83348315D01*
X158047963Y-83348315D02*
X158314629Y-83653077D01*
X158314629Y-83653077D02*
X158200344Y-83653077D01*
X158200344Y-83653077D02*
X158124153Y-83691172D01*
X158124153Y-83691172D02*
X158086058Y-83729267D01*
X158086058Y-83729267D02*
X158047963Y-83805458D01*
X158047963Y-83805458D02*
X158047963Y-83995934D01*
X158047963Y-83995934D02*
X158086058Y-84072124D01*
X158086058Y-84072124D02*
X158124153Y-84110220D01*
X158124153Y-84110220D02*
X158200344Y-84148315D01*
X158200344Y-84148315D02*
X158428915Y-84148315D01*
X158428915Y-84148315D02*
X158505106Y-84110220D01*
X158505106Y-84110220D02*
X158543201Y-84072124D01*
X132936535Y-86980952D02*
X132898440Y-86904762D01*
X132898440Y-86904762D02*
X132822250Y-86828571D01*
X132822250Y-86828571D02*
X132707964Y-86714285D01*
X132707964Y-86714285D02*
X132669869Y-86638095D01*
X132669869Y-86638095D02*
X132669869Y-86561904D01*
X132860345Y-86600000D02*
X132822250Y-86523809D01*
X132822250Y-86523809D02*
X132746059Y-86447619D01*
X132746059Y-86447619D02*
X132593678Y-86409523D01*
X132593678Y-86409523D02*
X132327011Y-86409523D01*
X132327011Y-86409523D02*
X132174630Y-86447619D01*
X132174630Y-86447619D02*
X132098440Y-86523809D01*
X132098440Y-86523809D02*
X132060345Y-86600000D01*
X132060345Y-86600000D02*
X132060345Y-86752381D01*
X132060345Y-86752381D02*
X132098440Y-86828571D01*
X132098440Y-86828571D02*
X132174630Y-86904762D01*
X132174630Y-86904762D02*
X132327011Y-86942857D01*
X132327011Y-86942857D02*
X132593678Y-86942857D01*
X132593678Y-86942857D02*
X132746059Y-86904762D01*
X132746059Y-86904762D02*
X132822250Y-86828571D01*
X132822250Y-86828571D02*
X132860345Y-86752381D01*
X132860345Y-86752381D02*
X132860345Y-86600000D01*
X132136535Y-87247618D02*
X132098440Y-87285714D01*
X132098440Y-87285714D02*
X132060345Y-87361904D01*
X132060345Y-87361904D02*
X132060345Y-87552380D01*
X132060345Y-87552380D02*
X132098440Y-87628571D01*
X132098440Y-87628571D02*
X132136535Y-87666666D01*
X132136535Y-87666666D02*
X132212726Y-87704761D01*
X132212726Y-87704761D02*
X132288916Y-87704761D01*
X132288916Y-87704761D02*
X132403202Y-87666666D01*
X132403202Y-87666666D02*
X132860345Y-87209523D01*
X132860345Y-87209523D02*
X132860345Y-87704761D01*
X132136535Y-88009523D02*
X132098440Y-88047619D01*
X132098440Y-88047619D02*
X132060345Y-88123809D01*
X132060345Y-88123809D02*
X132060345Y-88314285D01*
X132060345Y-88314285D02*
X132098440Y-88390476D01*
X132098440Y-88390476D02*
X132136535Y-88428571D01*
X132136535Y-88428571D02*
X132212726Y-88466666D01*
X132212726Y-88466666D02*
X132288916Y-88466666D01*
X132288916Y-88466666D02*
X132403202Y-88428571D01*
X132403202Y-88428571D02*
X132860345Y-87971428D01*
X132860345Y-87971428D02*
X132860345Y-88466666D01*
X132060345Y-88961905D02*
X132060345Y-89038095D01*
X132060345Y-89038095D02*
X132098440Y-89114286D01*
X132098440Y-89114286D02*
X132136535Y-89152381D01*
X132136535Y-89152381D02*
X132212726Y-89190476D01*
X132212726Y-89190476D02*
X132365107Y-89228571D01*
X132365107Y-89228571D02*
X132555583Y-89228571D01*
X132555583Y-89228571D02*
X132707964Y-89190476D01*
X132707964Y-89190476D02*
X132784154Y-89152381D01*
X132784154Y-89152381D02*
X132822250Y-89114286D01*
X132822250Y-89114286D02*
X132860345Y-89038095D01*
X132860345Y-89038095D02*
X132860345Y-88961905D01*
X132860345Y-88961905D02*
X132822250Y-88885714D01*
X132822250Y-88885714D02*
X132784154Y-88847619D01*
X132784154Y-88847619D02*
X132707964Y-88809524D01*
X132707964Y-88809524D02*
X132555583Y-88771428D01*
X132555583Y-88771428D02*
X132365107Y-88771428D01*
X132365107Y-88771428D02*
X132212726Y-88809524D01*
X132212726Y-88809524D02*
X132136535Y-88847619D01*
X132136535Y-88847619D02*
X132098440Y-88885714D01*
X132098440Y-88885714D02*
X132060345Y-88961905D01*
X132060345Y-89723810D02*
X132060345Y-89800000D01*
X132060345Y-89800000D02*
X132098440Y-89876191D01*
X132098440Y-89876191D02*
X132136535Y-89914286D01*
X132136535Y-89914286D02*
X132212726Y-89952381D01*
X132212726Y-89952381D02*
X132365107Y-89990476D01*
X132365107Y-89990476D02*
X132555583Y-89990476D01*
X132555583Y-89990476D02*
X132707964Y-89952381D01*
X132707964Y-89952381D02*
X132784154Y-89914286D01*
X132784154Y-89914286D02*
X132822250Y-89876191D01*
X132822250Y-89876191D02*
X132860345Y-89800000D01*
X132860345Y-89800000D02*
X132860345Y-89723810D01*
X132860345Y-89723810D02*
X132822250Y-89647619D01*
X132822250Y-89647619D02*
X132784154Y-89609524D01*
X132784154Y-89609524D02*
X132707964Y-89571429D01*
X132707964Y-89571429D02*
X132555583Y-89533333D01*
X132555583Y-89533333D02*
X132365107Y-89533333D01*
X132365107Y-89533333D02*
X132212726Y-89571429D01*
X132212726Y-89571429D02*
X132136535Y-89609524D01*
X132136535Y-89609524D02*
X132098440Y-89647619D01*
X132098440Y-89647619D02*
X132060345Y-89723810D01*
X122145778Y-90798219D02*
X122412445Y-90417266D01*
X122602921Y-90798219D02*
X122602921Y-89998219D01*
X122602921Y-89998219D02*
X122298159Y-89998219D01*
X122298159Y-89998219D02*
X122221969Y-90036314D01*
X122221969Y-90036314D02*
X122183874Y-90074409D01*
X122183874Y-90074409D02*
X122145778Y-90150600D01*
X122145778Y-90150600D02*
X122145778Y-90264885D01*
X122145778Y-90264885D02*
X122183874Y-90341076D01*
X122183874Y-90341076D02*
X122221969Y-90379171D01*
X122221969Y-90379171D02*
X122298159Y-90417266D01*
X122298159Y-90417266D02*
X122602921Y-90417266D01*
X121841017Y-90074409D02*
X121802921Y-90036314D01*
X121802921Y-90036314D02*
X121726731Y-89998219D01*
X121726731Y-89998219D02*
X121536255Y-89998219D01*
X121536255Y-89998219D02*
X121460064Y-90036314D01*
X121460064Y-90036314D02*
X121421969Y-90074409D01*
X121421969Y-90074409D02*
X121383874Y-90150600D01*
X121383874Y-90150600D02*
X121383874Y-90226790D01*
X121383874Y-90226790D02*
X121421969Y-90341076D01*
X121421969Y-90341076D02*
X121879112Y-90798219D01*
X121879112Y-90798219D02*
X121383874Y-90798219D01*
X121079112Y-90074409D02*
X121041016Y-90036314D01*
X121041016Y-90036314D02*
X120964826Y-89998219D01*
X120964826Y-89998219D02*
X120774350Y-89998219D01*
X120774350Y-89998219D02*
X120698159Y-90036314D01*
X120698159Y-90036314D02*
X120660064Y-90074409D01*
X120660064Y-90074409D02*
X120621969Y-90150600D01*
X120621969Y-90150600D02*
X120621969Y-90226790D01*
X120621969Y-90226790D02*
X120660064Y-90341076D01*
X120660064Y-90341076D02*
X121117207Y-90798219D01*
X121117207Y-90798219D02*
X120621969Y-90798219D01*
X120355302Y-89998219D02*
X119860064Y-89998219D01*
X119860064Y-89998219D02*
X120126730Y-90302981D01*
X120126730Y-90302981D02*
X120012445Y-90302981D01*
X120012445Y-90302981D02*
X119936254Y-90341076D01*
X119936254Y-90341076D02*
X119898159Y-90379171D01*
X119898159Y-90379171D02*
X119860064Y-90455362D01*
X119860064Y-90455362D02*
X119860064Y-90645838D01*
X119860064Y-90645838D02*
X119898159Y-90722028D01*
X119898159Y-90722028D02*
X119936254Y-90760124D01*
X119936254Y-90760124D02*
X120012445Y-90798219D01*
X120012445Y-90798219D02*
X120241016Y-90798219D01*
X120241016Y-90798219D02*
X120317207Y-90760124D01*
X120317207Y-90760124D02*
X120355302Y-90722028D01*
X119479111Y-90798219D02*
X119326730Y-90798219D01*
X119326730Y-90798219D02*
X119250540Y-90760124D01*
X119250540Y-90760124D02*
X119212444Y-90722028D01*
X119212444Y-90722028D02*
X119136254Y-90607743D01*
X119136254Y-90607743D02*
X119098159Y-90455362D01*
X119098159Y-90455362D02*
X119098159Y-90150600D01*
X119098159Y-90150600D02*
X119136254Y-90074409D01*
X119136254Y-90074409D02*
X119174349Y-90036314D01*
X119174349Y-90036314D02*
X119250540Y-89998219D01*
X119250540Y-89998219D02*
X119402921Y-89998219D01*
X119402921Y-89998219D02*
X119479111Y-90036314D01*
X119479111Y-90036314D02*
X119517206Y-90074409D01*
X119517206Y-90074409D02*
X119555302Y-90150600D01*
X119555302Y-90150600D02*
X119555302Y-90341076D01*
X119555302Y-90341076D02*
X119517206Y-90417266D01*
X119517206Y-90417266D02*
X119479111Y-90455362D01*
X119479111Y-90455362D02*
X119402921Y-90493457D01*
X119402921Y-90493457D02*
X119250540Y-90493457D01*
X119250540Y-90493457D02*
X119174349Y-90455362D01*
X119174349Y-90455362D02*
X119136254Y-90417266D01*
X119136254Y-90417266D02*
X119098159Y-90341076D01*
X123898219Y-90010644D02*
X123517266Y-89743977D01*
X123898219Y-89553501D02*
X123098219Y-89553501D01*
X123098219Y-89553501D02*
X123098219Y-89858263D01*
X123098219Y-89858263D02*
X123136314Y-89934453D01*
X123136314Y-89934453D02*
X123174409Y-89972548D01*
X123174409Y-89972548D02*
X123250600Y-90010644D01*
X123250600Y-90010644D02*
X123364885Y-90010644D01*
X123364885Y-90010644D02*
X123441076Y-89972548D01*
X123441076Y-89972548D02*
X123479171Y-89934453D01*
X123479171Y-89934453D02*
X123517266Y-89858263D01*
X123517266Y-89858263D02*
X123517266Y-89553501D01*
X123174409Y-90315405D02*
X123136314Y-90353501D01*
X123136314Y-90353501D02*
X123098219Y-90429691D01*
X123098219Y-90429691D02*
X123098219Y-90620167D01*
X123098219Y-90620167D02*
X123136314Y-90696358D01*
X123136314Y-90696358D02*
X123174409Y-90734453D01*
X123174409Y-90734453D02*
X123250600Y-90772548D01*
X123250600Y-90772548D02*
X123326790Y-90772548D01*
X123326790Y-90772548D02*
X123441076Y-90734453D01*
X123441076Y-90734453D02*
X123898219Y-90277310D01*
X123898219Y-90277310D02*
X123898219Y-90772548D01*
X123174409Y-91077310D02*
X123136314Y-91115406D01*
X123136314Y-91115406D02*
X123098219Y-91191596D01*
X123098219Y-91191596D02*
X123098219Y-91382072D01*
X123098219Y-91382072D02*
X123136314Y-91458263D01*
X123136314Y-91458263D02*
X123174409Y-91496358D01*
X123174409Y-91496358D02*
X123250600Y-91534453D01*
X123250600Y-91534453D02*
X123326790Y-91534453D01*
X123326790Y-91534453D02*
X123441076Y-91496358D01*
X123441076Y-91496358D02*
X123898219Y-91039215D01*
X123898219Y-91039215D02*
X123898219Y-91534453D01*
X123098219Y-91801120D02*
X123098219Y-92296358D01*
X123098219Y-92296358D02*
X123402981Y-92029692D01*
X123402981Y-92029692D02*
X123402981Y-92143977D01*
X123402981Y-92143977D02*
X123441076Y-92220168D01*
X123441076Y-92220168D02*
X123479171Y-92258263D01*
X123479171Y-92258263D02*
X123555362Y-92296358D01*
X123555362Y-92296358D02*
X123745838Y-92296358D01*
X123745838Y-92296358D02*
X123822028Y-92258263D01*
X123822028Y-92258263D02*
X123860124Y-92220168D01*
X123860124Y-92220168D02*
X123898219Y-92143977D01*
X123898219Y-92143977D02*
X123898219Y-91915406D01*
X123898219Y-91915406D02*
X123860124Y-91839215D01*
X123860124Y-91839215D02*
X123822028Y-91801120D01*
X123098219Y-92563025D02*
X123098219Y-93096359D01*
X123098219Y-93096359D02*
X123898219Y-92753501D01*
X143348440Y-89478571D02*
X143996059Y-89478571D01*
X143996059Y-89478571D02*
X144072249Y-89516666D01*
X144072249Y-89516666D02*
X144110345Y-89554761D01*
X144110345Y-89554761D02*
X144148440Y-89630952D01*
X144148440Y-89630952D02*
X144148440Y-89783333D01*
X144148440Y-89783333D02*
X144110345Y-89859523D01*
X144110345Y-89859523D02*
X144072249Y-89897618D01*
X144072249Y-89897618D02*
X143996059Y-89935714D01*
X143996059Y-89935714D02*
X143348440Y-89935714D01*
X143424630Y-90278570D02*
X143386535Y-90316666D01*
X143386535Y-90316666D02*
X143348440Y-90392856D01*
X143348440Y-90392856D02*
X143348440Y-90583332D01*
X143348440Y-90583332D02*
X143386535Y-90659523D01*
X143386535Y-90659523D02*
X143424630Y-90697618D01*
X143424630Y-90697618D02*
X143500821Y-90735713D01*
X143500821Y-90735713D02*
X143577011Y-90735713D01*
X143577011Y-90735713D02*
X143691297Y-90697618D01*
X143691297Y-90697618D02*
X144148440Y-90240475D01*
X144148440Y-90240475D02*
X144148440Y-90735713D01*
X143424630Y-91040475D02*
X143386535Y-91078571D01*
X143386535Y-91078571D02*
X143348440Y-91154761D01*
X143348440Y-91154761D02*
X143348440Y-91345237D01*
X143348440Y-91345237D02*
X143386535Y-91421428D01*
X143386535Y-91421428D02*
X143424630Y-91459523D01*
X143424630Y-91459523D02*
X143500821Y-91497618D01*
X143500821Y-91497618D02*
X143577011Y-91497618D01*
X143577011Y-91497618D02*
X143691297Y-91459523D01*
X143691297Y-91459523D02*
X144148440Y-91002380D01*
X144148440Y-91002380D02*
X144148440Y-91497618D01*
X143348440Y-91992857D02*
X143348440Y-92069047D01*
X143348440Y-92069047D02*
X143386535Y-92145238D01*
X143386535Y-92145238D02*
X143424630Y-92183333D01*
X143424630Y-92183333D02*
X143500821Y-92221428D01*
X143500821Y-92221428D02*
X143653202Y-92259523D01*
X143653202Y-92259523D02*
X143843678Y-92259523D01*
X143843678Y-92259523D02*
X143996059Y-92221428D01*
X143996059Y-92221428D02*
X144072249Y-92183333D01*
X144072249Y-92183333D02*
X144110345Y-92145238D01*
X144110345Y-92145238D02*
X144148440Y-92069047D01*
X144148440Y-92069047D02*
X144148440Y-91992857D01*
X144148440Y-91992857D02*
X144110345Y-91916666D01*
X144110345Y-91916666D02*
X144072249Y-91878571D01*
X144072249Y-91878571D02*
X143996059Y-91840476D01*
X143996059Y-91840476D02*
X143843678Y-91802380D01*
X143843678Y-91802380D02*
X143653202Y-91802380D01*
X143653202Y-91802380D02*
X143500821Y-91840476D01*
X143500821Y-91840476D02*
X143424630Y-91878571D01*
X143424630Y-91878571D02*
X143386535Y-91916666D01*
X143386535Y-91916666D02*
X143348440Y-91992857D01*
X143348440Y-92945238D02*
X143348440Y-92792857D01*
X143348440Y-92792857D02*
X143386535Y-92716666D01*
X143386535Y-92716666D02*
X143424630Y-92678571D01*
X143424630Y-92678571D02*
X143538916Y-92602381D01*
X143538916Y-92602381D02*
X143691297Y-92564285D01*
X143691297Y-92564285D02*
X143996059Y-92564285D01*
X143996059Y-92564285D02*
X144072249Y-92602381D01*
X144072249Y-92602381D02*
X144110345Y-92640476D01*
X144110345Y-92640476D02*
X144148440Y-92716666D01*
X144148440Y-92716666D02*
X144148440Y-92869047D01*
X144148440Y-92869047D02*
X144110345Y-92945238D01*
X144110345Y-92945238D02*
X144072249Y-92983333D01*
X144072249Y-92983333D02*
X143996059Y-93021428D01*
X143996059Y-93021428D02*
X143805583Y-93021428D01*
X143805583Y-93021428D02*
X143729392Y-92983333D01*
X143729392Y-92983333D02*
X143691297Y-92945238D01*
X143691297Y-92945238D02*
X143653202Y-92869047D01*
X143653202Y-92869047D02*
X143653202Y-92716666D01*
X143653202Y-92716666D02*
X143691297Y-92640476D01*
X143691297Y-92640476D02*
X143729392Y-92602381D01*
X143729392Y-92602381D02*
X143805583Y-92564285D01*
X158548315Y-78954417D02*
X158167362Y-78687750D01*
X158548315Y-78497274D02*
X157748315Y-78497274D01*
X157748315Y-78497274D02*
X157748315Y-78802036D01*
X157748315Y-78802036D02*
X157786410Y-78878226D01*
X157786410Y-78878226D02*
X157824505Y-78916321D01*
X157824505Y-78916321D02*
X157900696Y-78954417D01*
X157900696Y-78954417D02*
X158014981Y-78954417D01*
X158014981Y-78954417D02*
X158091172Y-78916321D01*
X158091172Y-78916321D02*
X158129267Y-78878226D01*
X158129267Y-78878226D02*
X158167362Y-78802036D01*
X158167362Y-78802036D02*
X158167362Y-78497274D01*
X157824505Y-79259178D02*
X157786410Y-79297274D01*
X157786410Y-79297274D02*
X157748315Y-79373464D01*
X157748315Y-79373464D02*
X157748315Y-79563940D01*
X157748315Y-79563940D02*
X157786410Y-79640131D01*
X157786410Y-79640131D02*
X157824505Y-79678226D01*
X157824505Y-79678226D02*
X157900696Y-79716321D01*
X157900696Y-79716321D02*
X157976886Y-79716321D01*
X157976886Y-79716321D02*
X158091172Y-79678226D01*
X158091172Y-79678226D02*
X158548315Y-79221083D01*
X158548315Y-79221083D02*
X158548315Y-79716321D01*
X157824505Y-80021083D02*
X157786410Y-80059179D01*
X157786410Y-80059179D02*
X157748315Y-80135369D01*
X157748315Y-80135369D02*
X157748315Y-80325845D01*
X157748315Y-80325845D02*
X157786410Y-80402036D01*
X157786410Y-80402036D02*
X157824505Y-80440131D01*
X157824505Y-80440131D02*
X157900696Y-80478226D01*
X157900696Y-80478226D02*
X157976886Y-80478226D01*
X157976886Y-80478226D02*
X158091172Y-80440131D01*
X158091172Y-80440131D02*
X158548315Y-79982988D01*
X158548315Y-79982988D02*
X158548315Y-80478226D01*
X157748315Y-81202036D02*
X157748315Y-80821084D01*
X157748315Y-80821084D02*
X158129267Y-80782988D01*
X158129267Y-80782988D02*
X158091172Y-80821084D01*
X158091172Y-80821084D02*
X158053077Y-80897274D01*
X158053077Y-80897274D02*
X158053077Y-81087750D01*
X158053077Y-81087750D02*
X158091172Y-81163941D01*
X158091172Y-81163941D02*
X158129267Y-81202036D01*
X158129267Y-81202036D02*
X158205458Y-81240131D01*
X158205458Y-81240131D02*
X158395934Y-81240131D01*
X158395934Y-81240131D02*
X158472124Y-81202036D01*
X158472124Y-81202036D02*
X158510220Y-81163941D01*
X158510220Y-81163941D02*
X158548315Y-81087750D01*
X158548315Y-81087750D02*
X158548315Y-80897274D01*
X158548315Y-80897274D02*
X158510220Y-80821084D01*
X158510220Y-80821084D02*
X158472124Y-80782988D01*
X157824505Y-81544893D02*
X157786410Y-81582989D01*
X157786410Y-81582989D02*
X157748315Y-81659179D01*
X157748315Y-81659179D02*
X157748315Y-81849655D01*
X157748315Y-81849655D02*
X157786410Y-81925846D01*
X157786410Y-81925846D02*
X157824505Y-81963941D01*
X157824505Y-81963941D02*
X157900696Y-82002036D01*
X157900696Y-82002036D02*
X157976886Y-82002036D01*
X157976886Y-82002036D02*
X158091172Y-81963941D01*
X158091172Y-81963941D02*
X158548315Y-81506798D01*
X158548315Y-81506798D02*
X158548315Y-82002036D01*
X163521624Y-74098440D02*
X163521624Y-74746059D01*
X163521624Y-74746059D02*
X163483529Y-74822249D01*
X163483529Y-74822249D02*
X163445434Y-74860345D01*
X163445434Y-74860345D02*
X163369243Y-74898440D01*
X163369243Y-74898440D02*
X163216862Y-74898440D01*
X163216862Y-74898440D02*
X163140672Y-74860345D01*
X163140672Y-74860345D02*
X163102577Y-74822249D01*
X163102577Y-74822249D02*
X163064481Y-74746059D01*
X163064481Y-74746059D02*
X163064481Y-74098440D01*
X162721625Y-74174630D02*
X162683529Y-74136535D01*
X162683529Y-74136535D02*
X162607339Y-74098440D01*
X162607339Y-74098440D02*
X162416863Y-74098440D01*
X162416863Y-74098440D02*
X162340672Y-74136535D01*
X162340672Y-74136535D02*
X162302577Y-74174630D01*
X162302577Y-74174630D02*
X162264482Y-74250821D01*
X162264482Y-74250821D02*
X162264482Y-74327011D01*
X162264482Y-74327011D02*
X162302577Y-74441297D01*
X162302577Y-74441297D02*
X162759720Y-74898440D01*
X162759720Y-74898440D02*
X162264482Y-74898440D01*
X161959720Y-74174630D02*
X161921624Y-74136535D01*
X161921624Y-74136535D02*
X161845434Y-74098440D01*
X161845434Y-74098440D02*
X161654958Y-74098440D01*
X161654958Y-74098440D02*
X161578767Y-74136535D01*
X161578767Y-74136535D02*
X161540672Y-74174630D01*
X161540672Y-74174630D02*
X161502577Y-74250821D01*
X161502577Y-74250821D02*
X161502577Y-74327011D01*
X161502577Y-74327011D02*
X161540672Y-74441297D01*
X161540672Y-74441297D02*
X161997815Y-74898440D01*
X161997815Y-74898440D02*
X161502577Y-74898440D01*
X161007338Y-74098440D02*
X160931148Y-74098440D01*
X160931148Y-74098440D02*
X160854957Y-74136535D01*
X160854957Y-74136535D02*
X160816862Y-74174630D01*
X160816862Y-74174630D02*
X160778767Y-74250821D01*
X160778767Y-74250821D02*
X160740672Y-74403202D01*
X160740672Y-74403202D02*
X160740672Y-74593678D01*
X160740672Y-74593678D02*
X160778767Y-74746059D01*
X160778767Y-74746059D02*
X160816862Y-74822249D01*
X160816862Y-74822249D02*
X160854957Y-74860345D01*
X160854957Y-74860345D02*
X160931148Y-74898440D01*
X160931148Y-74898440D02*
X161007338Y-74898440D01*
X161007338Y-74898440D02*
X161083529Y-74860345D01*
X161083529Y-74860345D02*
X161121624Y-74822249D01*
X161121624Y-74822249D02*
X161159719Y-74746059D01*
X161159719Y-74746059D02*
X161197815Y-74593678D01*
X161197815Y-74593678D02*
X161197815Y-74403202D01*
X161197815Y-74403202D02*
X161159719Y-74250821D01*
X161159719Y-74250821D02*
X161121624Y-74174630D01*
X161121624Y-74174630D02*
X161083529Y-74136535D01*
X161083529Y-74136535D02*
X161007338Y-74098440D01*
X160359719Y-74898440D02*
X160207338Y-74898440D01*
X160207338Y-74898440D02*
X160131148Y-74860345D01*
X160131148Y-74860345D02*
X160093052Y-74822249D01*
X160093052Y-74822249D02*
X160016862Y-74707964D01*
X160016862Y-74707964D02*
X159978767Y-74555583D01*
X159978767Y-74555583D02*
X159978767Y-74250821D01*
X159978767Y-74250821D02*
X160016862Y-74174630D01*
X160016862Y-74174630D02*
X160054957Y-74136535D01*
X160054957Y-74136535D02*
X160131148Y-74098440D01*
X160131148Y-74098440D02*
X160283529Y-74098440D01*
X160283529Y-74098440D02*
X160359719Y-74136535D01*
X160359719Y-74136535D02*
X160397814Y-74174630D01*
X160397814Y-74174630D02*
X160435910Y-74250821D01*
X160435910Y-74250821D02*
X160435910Y-74441297D01*
X160435910Y-74441297D02*
X160397814Y-74517487D01*
X160397814Y-74517487D02*
X160359719Y-74555583D01*
X160359719Y-74555583D02*
X160283529Y-74593678D01*
X160283529Y-74593678D02*
X160131148Y-74593678D01*
X160131148Y-74593678D02*
X160054957Y-74555583D01*
X160054957Y-74555583D02*
X160016862Y-74517487D01*
X160016862Y-74517487D02*
X159978767Y-74441297D01*
X122121429Y-65848440D02*
X122121429Y-66496059D01*
X122121429Y-66496059D02*
X122083334Y-66572249D01*
X122083334Y-66572249D02*
X122045239Y-66610345D01*
X122045239Y-66610345D02*
X121969048Y-66648440D01*
X121969048Y-66648440D02*
X121816667Y-66648440D01*
X121816667Y-66648440D02*
X121740477Y-66610345D01*
X121740477Y-66610345D02*
X121702382Y-66572249D01*
X121702382Y-66572249D02*
X121664286Y-66496059D01*
X121664286Y-66496059D02*
X121664286Y-65848440D01*
X121321430Y-65924630D02*
X121283334Y-65886535D01*
X121283334Y-65886535D02*
X121207144Y-65848440D01*
X121207144Y-65848440D02*
X121016668Y-65848440D01*
X121016668Y-65848440D02*
X120940477Y-65886535D01*
X120940477Y-65886535D02*
X120902382Y-65924630D01*
X120902382Y-65924630D02*
X120864287Y-66000821D01*
X120864287Y-66000821D02*
X120864287Y-66077011D01*
X120864287Y-66077011D02*
X120902382Y-66191297D01*
X120902382Y-66191297D02*
X121359525Y-66648440D01*
X121359525Y-66648440D02*
X120864287Y-66648440D01*
X120559525Y-65924630D02*
X120521429Y-65886535D01*
X120521429Y-65886535D02*
X120445239Y-65848440D01*
X120445239Y-65848440D02*
X120254763Y-65848440D01*
X120254763Y-65848440D02*
X120178572Y-65886535D01*
X120178572Y-65886535D02*
X120140477Y-65924630D01*
X120140477Y-65924630D02*
X120102382Y-66000821D01*
X120102382Y-66000821D02*
X120102382Y-66077011D01*
X120102382Y-66077011D02*
X120140477Y-66191297D01*
X120140477Y-66191297D02*
X120597620Y-66648440D01*
X120597620Y-66648440D02*
X120102382Y-66648440D01*
X119607143Y-65848440D02*
X119530953Y-65848440D01*
X119530953Y-65848440D02*
X119454762Y-65886535D01*
X119454762Y-65886535D02*
X119416667Y-65924630D01*
X119416667Y-65924630D02*
X119378572Y-66000821D01*
X119378572Y-66000821D02*
X119340477Y-66153202D01*
X119340477Y-66153202D02*
X119340477Y-66343678D01*
X119340477Y-66343678D02*
X119378572Y-66496059D01*
X119378572Y-66496059D02*
X119416667Y-66572249D01*
X119416667Y-66572249D02*
X119454762Y-66610345D01*
X119454762Y-66610345D02*
X119530953Y-66648440D01*
X119530953Y-66648440D02*
X119607143Y-66648440D01*
X119607143Y-66648440D02*
X119683334Y-66610345D01*
X119683334Y-66610345D02*
X119721429Y-66572249D01*
X119721429Y-66572249D02*
X119759524Y-66496059D01*
X119759524Y-66496059D02*
X119797620Y-66343678D01*
X119797620Y-66343678D02*
X119797620Y-66153202D01*
X119797620Y-66153202D02*
X119759524Y-66000821D01*
X119759524Y-66000821D02*
X119721429Y-65924630D01*
X119721429Y-65924630D02*
X119683334Y-65886535D01*
X119683334Y-65886535D02*
X119607143Y-65848440D01*
X119035715Y-65924630D02*
X118997619Y-65886535D01*
X118997619Y-65886535D02*
X118921429Y-65848440D01*
X118921429Y-65848440D02*
X118730953Y-65848440D01*
X118730953Y-65848440D02*
X118654762Y-65886535D01*
X118654762Y-65886535D02*
X118616667Y-65924630D01*
X118616667Y-65924630D02*
X118578572Y-66000821D01*
X118578572Y-66000821D02*
X118578572Y-66077011D01*
X118578572Y-66077011D02*
X118616667Y-66191297D01*
X118616667Y-66191297D02*
X119073810Y-66648440D01*
X119073810Y-66648440D02*
X118578572Y-66648440D01*
X152948440Y-77197078D02*
X152148440Y-77197078D01*
X152148440Y-77197078D02*
X152148440Y-77387554D01*
X152148440Y-77387554D02*
X152186535Y-77501840D01*
X152186535Y-77501840D02*
X152262725Y-77578030D01*
X152262725Y-77578030D02*
X152338916Y-77616125D01*
X152338916Y-77616125D02*
X152491297Y-77654221D01*
X152491297Y-77654221D02*
X152605583Y-77654221D01*
X152605583Y-77654221D02*
X152757964Y-77616125D01*
X152757964Y-77616125D02*
X152834154Y-77578030D01*
X152834154Y-77578030D02*
X152910345Y-77501840D01*
X152910345Y-77501840D02*
X152948440Y-77387554D01*
X152948440Y-77387554D02*
X152948440Y-77197078D01*
X152224630Y-77958982D02*
X152186535Y-77997078D01*
X152186535Y-77997078D02*
X152148440Y-78073268D01*
X152148440Y-78073268D02*
X152148440Y-78263744D01*
X152148440Y-78263744D02*
X152186535Y-78339935D01*
X152186535Y-78339935D02*
X152224630Y-78378030D01*
X152224630Y-78378030D02*
X152300821Y-78416125D01*
X152300821Y-78416125D02*
X152377011Y-78416125D01*
X152377011Y-78416125D02*
X152491297Y-78378030D01*
X152491297Y-78378030D02*
X152948440Y-77920887D01*
X152948440Y-77920887D02*
X152948440Y-78416125D01*
X152224630Y-78720887D02*
X152186535Y-78758983D01*
X152186535Y-78758983D02*
X152148440Y-78835173D01*
X152148440Y-78835173D02*
X152148440Y-79025649D01*
X152148440Y-79025649D02*
X152186535Y-79101840D01*
X152186535Y-79101840D02*
X152224630Y-79139935D01*
X152224630Y-79139935D02*
X152300821Y-79178030D01*
X152300821Y-79178030D02*
X152377011Y-79178030D01*
X152377011Y-79178030D02*
X152491297Y-79139935D01*
X152491297Y-79139935D02*
X152948440Y-78682792D01*
X152948440Y-78682792D02*
X152948440Y-79178030D01*
X152148440Y-79673269D02*
X152148440Y-79749459D01*
X152148440Y-79749459D02*
X152186535Y-79825650D01*
X152186535Y-79825650D02*
X152224630Y-79863745D01*
X152224630Y-79863745D02*
X152300821Y-79901840D01*
X152300821Y-79901840D02*
X152453202Y-79939935D01*
X152453202Y-79939935D02*
X152643678Y-79939935D01*
X152643678Y-79939935D02*
X152796059Y-79901840D01*
X152796059Y-79901840D02*
X152872249Y-79863745D01*
X152872249Y-79863745D02*
X152910345Y-79825650D01*
X152910345Y-79825650D02*
X152948440Y-79749459D01*
X152948440Y-79749459D02*
X152948440Y-79673269D01*
X152948440Y-79673269D02*
X152910345Y-79597078D01*
X152910345Y-79597078D02*
X152872249Y-79558983D01*
X152872249Y-79558983D02*
X152796059Y-79520888D01*
X152796059Y-79520888D02*
X152643678Y-79482792D01*
X152643678Y-79482792D02*
X152453202Y-79482792D01*
X152453202Y-79482792D02*
X152300821Y-79520888D01*
X152300821Y-79520888D02*
X152224630Y-79558983D01*
X152224630Y-79558983D02*
X152186535Y-79597078D01*
X152186535Y-79597078D02*
X152148440Y-79673269D01*
X152148440Y-80435174D02*
X152148440Y-80511364D01*
X152148440Y-80511364D02*
X152186535Y-80587555D01*
X152186535Y-80587555D02*
X152224630Y-80625650D01*
X152224630Y-80625650D02*
X152300821Y-80663745D01*
X152300821Y-80663745D02*
X152453202Y-80701840D01*
X152453202Y-80701840D02*
X152643678Y-80701840D01*
X152643678Y-80701840D02*
X152796059Y-80663745D01*
X152796059Y-80663745D02*
X152872249Y-80625650D01*
X152872249Y-80625650D02*
X152910345Y-80587555D01*
X152910345Y-80587555D02*
X152948440Y-80511364D01*
X152948440Y-80511364D02*
X152948440Y-80435174D01*
X152948440Y-80435174D02*
X152910345Y-80358983D01*
X152910345Y-80358983D02*
X152872249Y-80320888D01*
X152872249Y-80320888D02*
X152796059Y-80282793D01*
X152796059Y-80282793D02*
X152643678Y-80244697D01*
X152643678Y-80244697D02*
X152453202Y-80244697D01*
X152453202Y-80244697D02*
X152300821Y-80282793D01*
X152300821Y-80282793D02*
X152224630Y-80320888D01*
X152224630Y-80320888D02*
X152186535Y-80358983D01*
X152186535Y-80358983D02*
X152148440Y-80435174D01*
X152848315Y-85304417D02*
X152467362Y-85037750D01*
X152848315Y-84847274D02*
X152048315Y-84847274D01*
X152048315Y-84847274D02*
X152048315Y-85152036D01*
X152048315Y-85152036D02*
X152086410Y-85228226D01*
X152086410Y-85228226D02*
X152124505Y-85266321D01*
X152124505Y-85266321D02*
X152200696Y-85304417D01*
X152200696Y-85304417D02*
X152314981Y-85304417D01*
X152314981Y-85304417D02*
X152391172Y-85266321D01*
X152391172Y-85266321D02*
X152429267Y-85228226D01*
X152429267Y-85228226D02*
X152467362Y-85152036D01*
X152467362Y-85152036D02*
X152467362Y-84847274D01*
X152124505Y-85609178D02*
X152086410Y-85647274D01*
X152086410Y-85647274D02*
X152048315Y-85723464D01*
X152048315Y-85723464D02*
X152048315Y-85913940D01*
X152048315Y-85913940D02*
X152086410Y-85990131D01*
X152086410Y-85990131D02*
X152124505Y-86028226D01*
X152124505Y-86028226D02*
X152200696Y-86066321D01*
X152200696Y-86066321D02*
X152276886Y-86066321D01*
X152276886Y-86066321D02*
X152391172Y-86028226D01*
X152391172Y-86028226D02*
X152848315Y-85571083D01*
X152848315Y-85571083D02*
X152848315Y-86066321D01*
X152124505Y-86371083D02*
X152086410Y-86409179D01*
X152086410Y-86409179D02*
X152048315Y-86485369D01*
X152048315Y-86485369D02*
X152048315Y-86675845D01*
X152048315Y-86675845D02*
X152086410Y-86752036D01*
X152086410Y-86752036D02*
X152124505Y-86790131D01*
X152124505Y-86790131D02*
X152200696Y-86828226D01*
X152200696Y-86828226D02*
X152276886Y-86828226D01*
X152276886Y-86828226D02*
X152391172Y-86790131D01*
X152391172Y-86790131D02*
X152848315Y-86332988D01*
X152848315Y-86332988D02*
X152848315Y-86828226D01*
X152048315Y-87513941D02*
X152048315Y-87361560D01*
X152048315Y-87361560D02*
X152086410Y-87285369D01*
X152086410Y-87285369D02*
X152124505Y-87247274D01*
X152124505Y-87247274D02*
X152238791Y-87171084D01*
X152238791Y-87171084D02*
X152391172Y-87132988D01*
X152391172Y-87132988D02*
X152695934Y-87132988D01*
X152695934Y-87132988D02*
X152772124Y-87171084D01*
X152772124Y-87171084D02*
X152810220Y-87209179D01*
X152810220Y-87209179D02*
X152848315Y-87285369D01*
X152848315Y-87285369D02*
X152848315Y-87437750D01*
X152848315Y-87437750D02*
X152810220Y-87513941D01*
X152810220Y-87513941D02*
X152772124Y-87552036D01*
X152772124Y-87552036D02*
X152695934Y-87590131D01*
X152695934Y-87590131D02*
X152505458Y-87590131D01*
X152505458Y-87590131D02*
X152429267Y-87552036D01*
X152429267Y-87552036D02*
X152391172Y-87513941D01*
X152391172Y-87513941D02*
X152353077Y-87437750D01*
X152353077Y-87437750D02*
X152353077Y-87285369D01*
X152353077Y-87285369D02*
X152391172Y-87209179D01*
X152391172Y-87209179D02*
X152429267Y-87171084D01*
X152429267Y-87171084D02*
X152505458Y-87132988D01*
X152048315Y-88313941D02*
X152048315Y-87932989D01*
X152048315Y-87932989D02*
X152429267Y-87894893D01*
X152429267Y-87894893D02*
X152391172Y-87932989D01*
X152391172Y-87932989D02*
X152353077Y-88009179D01*
X152353077Y-88009179D02*
X152353077Y-88199655D01*
X152353077Y-88199655D02*
X152391172Y-88275846D01*
X152391172Y-88275846D02*
X152429267Y-88313941D01*
X152429267Y-88313941D02*
X152505458Y-88352036D01*
X152505458Y-88352036D02*
X152695934Y-88352036D01*
X152695934Y-88352036D02*
X152772124Y-88313941D01*
X152772124Y-88313941D02*
X152810220Y-88275846D01*
X152810220Y-88275846D02*
X152848315Y-88199655D01*
X152848315Y-88199655D02*
X152848315Y-88009179D01*
X152848315Y-88009179D02*
X152810220Y-87932989D01*
X152810220Y-87932989D02*
X152772124Y-87894893D01*
X160979822Y-61174735D02*
X160948870Y-61136640D01*
X160948870Y-61136640D02*
X160886965Y-61098545D01*
X160886965Y-61098545D02*
X160732203Y-61098545D01*
X160732203Y-61098545D02*
X160670298Y-61136640D01*
X160670298Y-61136640D02*
X160639346Y-61174735D01*
X160639346Y-61174735D02*
X160608393Y-61250926D01*
X160608393Y-61250926D02*
X160608393Y-61327116D01*
X160608393Y-61327116D02*
X160639346Y-61441402D01*
X160639346Y-61441402D02*
X161010774Y-61898545D01*
X161010774Y-61898545D02*
X160608393Y-61898545D01*
X160360774Y-61174735D02*
X160329822Y-61136640D01*
X160329822Y-61136640D02*
X160267917Y-61098545D01*
X160267917Y-61098545D02*
X160113155Y-61098545D01*
X160113155Y-61098545D02*
X160051250Y-61136640D01*
X160051250Y-61136640D02*
X160020298Y-61174735D01*
X160020298Y-61174735D02*
X159989345Y-61250926D01*
X159989345Y-61250926D02*
X159989345Y-61327116D01*
X159989345Y-61327116D02*
X160020298Y-61441402D01*
X160020298Y-61441402D02*
X160391726Y-61898545D01*
X160391726Y-61898545D02*
X159989345Y-61898545D01*
X113672472Y-70974351D02*
X113710568Y-70936255D01*
X113710568Y-70936255D02*
X113748663Y-70821970D01*
X113748663Y-70821970D02*
X113748663Y-70745779D01*
X113748663Y-70745779D02*
X113710568Y-70631493D01*
X113710568Y-70631493D02*
X113634377Y-70555303D01*
X113634377Y-70555303D02*
X113558187Y-70517208D01*
X113558187Y-70517208D02*
X113405806Y-70479112D01*
X113405806Y-70479112D02*
X113291520Y-70479112D01*
X113291520Y-70479112D02*
X113139139Y-70517208D01*
X113139139Y-70517208D02*
X113062948Y-70555303D01*
X113062948Y-70555303D02*
X112986758Y-70631493D01*
X112986758Y-70631493D02*
X112948663Y-70745779D01*
X112948663Y-70745779D02*
X112948663Y-70821970D01*
X112948663Y-70821970D02*
X112986758Y-70936255D01*
X112986758Y-70936255D02*
X113024853Y-70974351D01*
X113024853Y-71279112D02*
X112986758Y-71317208D01*
X112986758Y-71317208D02*
X112948663Y-71393398D01*
X112948663Y-71393398D02*
X112948663Y-71583874D01*
X112948663Y-71583874D02*
X112986758Y-71660065D01*
X112986758Y-71660065D02*
X113024853Y-71698160D01*
X113024853Y-71698160D02*
X113101044Y-71736255D01*
X113101044Y-71736255D02*
X113177234Y-71736255D01*
X113177234Y-71736255D02*
X113291520Y-71698160D01*
X113291520Y-71698160D02*
X113748663Y-71241017D01*
X113748663Y-71241017D02*
X113748663Y-71736255D01*
X113024853Y-72041017D02*
X112986758Y-72079113D01*
X112986758Y-72079113D02*
X112948663Y-72155303D01*
X112948663Y-72155303D02*
X112948663Y-72345779D01*
X112948663Y-72345779D02*
X112986758Y-72421970D01*
X112986758Y-72421970D02*
X113024853Y-72460065D01*
X113024853Y-72460065D02*
X113101044Y-72498160D01*
X113101044Y-72498160D02*
X113177234Y-72498160D01*
X113177234Y-72498160D02*
X113291520Y-72460065D01*
X113291520Y-72460065D02*
X113748663Y-72002922D01*
X113748663Y-72002922D02*
X113748663Y-72498160D01*
X112948663Y-72993399D02*
X112948663Y-73069589D01*
X112948663Y-73069589D02*
X112986758Y-73145780D01*
X112986758Y-73145780D02*
X113024853Y-73183875D01*
X113024853Y-73183875D02*
X113101044Y-73221970D01*
X113101044Y-73221970D02*
X113253425Y-73260065D01*
X113253425Y-73260065D02*
X113443901Y-73260065D01*
X113443901Y-73260065D02*
X113596282Y-73221970D01*
X113596282Y-73221970D02*
X113672472Y-73183875D01*
X113672472Y-73183875D02*
X113710568Y-73145780D01*
X113710568Y-73145780D02*
X113748663Y-73069589D01*
X113748663Y-73069589D02*
X113748663Y-72993399D01*
X113748663Y-72993399D02*
X113710568Y-72917208D01*
X113710568Y-72917208D02*
X113672472Y-72879113D01*
X113672472Y-72879113D02*
X113596282Y-72841018D01*
X113596282Y-72841018D02*
X113443901Y-72802922D01*
X113443901Y-72802922D02*
X113253425Y-72802922D01*
X113253425Y-72802922D02*
X113101044Y-72841018D01*
X113101044Y-72841018D02*
X113024853Y-72879113D01*
X113024853Y-72879113D02*
X112986758Y-72917208D01*
X112986758Y-72917208D02*
X112948663Y-72993399D01*
X113748663Y-74021970D02*
X113748663Y-73564827D01*
X113748663Y-73793399D02*
X112948663Y-73793399D01*
X112948663Y-73793399D02*
X113062948Y-73717208D01*
X113062948Y-73717208D02*
X113139139Y-73641018D01*
X113139139Y-73641018D02*
X113177234Y-73564827D01*
X138322344Y-89173810D02*
X138360440Y-89135714D01*
X138360440Y-89135714D02*
X138398535Y-89021429D01*
X138398535Y-89021429D02*
X138398535Y-88945238D01*
X138398535Y-88945238D02*
X138360440Y-88830952D01*
X138360440Y-88830952D02*
X138284249Y-88754762D01*
X138284249Y-88754762D02*
X138208059Y-88716667D01*
X138208059Y-88716667D02*
X138055678Y-88678571D01*
X138055678Y-88678571D02*
X137941392Y-88678571D01*
X137941392Y-88678571D02*
X137789011Y-88716667D01*
X137789011Y-88716667D02*
X137712820Y-88754762D01*
X137712820Y-88754762D02*
X137636630Y-88830952D01*
X137636630Y-88830952D02*
X137598535Y-88945238D01*
X137598535Y-88945238D02*
X137598535Y-89021429D01*
X137598535Y-89021429D02*
X137636630Y-89135714D01*
X137636630Y-89135714D02*
X137674725Y-89173810D01*
X137674725Y-89478571D02*
X137636630Y-89516667D01*
X137636630Y-89516667D02*
X137598535Y-89592857D01*
X137598535Y-89592857D02*
X137598535Y-89783333D01*
X137598535Y-89783333D02*
X137636630Y-89859524D01*
X137636630Y-89859524D02*
X137674725Y-89897619D01*
X137674725Y-89897619D02*
X137750916Y-89935714D01*
X137750916Y-89935714D02*
X137827106Y-89935714D01*
X137827106Y-89935714D02*
X137941392Y-89897619D01*
X137941392Y-89897619D02*
X138398535Y-89440476D01*
X138398535Y-89440476D02*
X138398535Y-89935714D01*
X137674725Y-90240476D02*
X137636630Y-90278572D01*
X137636630Y-90278572D02*
X137598535Y-90354762D01*
X137598535Y-90354762D02*
X137598535Y-90545238D01*
X137598535Y-90545238D02*
X137636630Y-90621429D01*
X137636630Y-90621429D02*
X137674725Y-90659524D01*
X137674725Y-90659524D02*
X137750916Y-90697619D01*
X137750916Y-90697619D02*
X137827106Y-90697619D01*
X137827106Y-90697619D02*
X137941392Y-90659524D01*
X137941392Y-90659524D02*
X138398535Y-90202381D01*
X138398535Y-90202381D02*
X138398535Y-90697619D01*
X137598535Y-91421429D02*
X137598535Y-91040477D01*
X137598535Y-91040477D02*
X137979487Y-91002381D01*
X137979487Y-91002381D02*
X137941392Y-91040477D01*
X137941392Y-91040477D02*
X137903297Y-91116667D01*
X137903297Y-91116667D02*
X137903297Y-91307143D01*
X137903297Y-91307143D02*
X137941392Y-91383334D01*
X137941392Y-91383334D02*
X137979487Y-91421429D01*
X137979487Y-91421429D02*
X138055678Y-91459524D01*
X138055678Y-91459524D02*
X138246154Y-91459524D01*
X138246154Y-91459524D02*
X138322344Y-91421429D01*
X138322344Y-91421429D02*
X138360440Y-91383334D01*
X138360440Y-91383334D02*
X138398535Y-91307143D01*
X138398535Y-91307143D02*
X138398535Y-91116667D01*
X138398535Y-91116667D02*
X138360440Y-91040477D01*
X138360440Y-91040477D02*
X138322344Y-91002381D01*
X137598535Y-91954763D02*
X137598535Y-92030953D01*
X137598535Y-92030953D02*
X137636630Y-92107144D01*
X137636630Y-92107144D02*
X137674725Y-92145239D01*
X137674725Y-92145239D02*
X137750916Y-92183334D01*
X137750916Y-92183334D02*
X137903297Y-92221429D01*
X137903297Y-92221429D02*
X138093773Y-92221429D01*
X138093773Y-92221429D02*
X138246154Y-92183334D01*
X138246154Y-92183334D02*
X138322344Y-92145239D01*
X138322344Y-92145239D02*
X138360440Y-92107144D01*
X138360440Y-92107144D02*
X138398535Y-92030953D01*
X138398535Y-92030953D02*
X138398535Y-91954763D01*
X138398535Y-91954763D02*
X138360440Y-91878572D01*
X138360440Y-91878572D02*
X138322344Y-91840477D01*
X138322344Y-91840477D02*
X138246154Y-91802382D01*
X138246154Y-91802382D02*
X138093773Y-91764286D01*
X138093773Y-91764286D02*
X137903297Y-91764286D01*
X137903297Y-91764286D02*
X137750916Y-91802382D01*
X137750916Y-91802382D02*
X137674725Y-91840477D01*
X137674725Y-91840477D02*
X137636630Y-91878572D01*
X137636630Y-91878572D02*
X137598535Y-91954763D01*
X127548443Y-88554762D02*
X127167490Y-88288095D01*
X127548443Y-88097619D02*
X126748443Y-88097619D01*
X126748443Y-88097619D02*
X126748443Y-88402381D01*
X126748443Y-88402381D02*
X126786538Y-88478571D01*
X126786538Y-88478571D02*
X126824633Y-88516666D01*
X126824633Y-88516666D02*
X126900824Y-88554762D01*
X126900824Y-88554762D02*
X127015109Y-88554762D01*
X127015109Y-88554762D02*
X127091300Y-88516666D01*
X127091300Y-88516666D02*
X127129395Y-88478571D01*
X127129395Y-88478571D02*
X127167490Y-88402381D01*
X127167490Y-88402381D02*
X127167490Y-88097619D01*
X126824633Y-88859523D02*
X126786538Y-88897619D01*
X126786538Y-88897619D02*
X126748443Y-88973809D01*
X126748443Y-88973809D02*
X126748443Y-89164285D01*
X126748443Y-89164285D02*
X126786538Y-89240476D01*
X126786538Y-89240476D02*
X126824633Y-89278571D01*
X126824633Y-89278571D02*
X126900824Y-89316666D01*
X126900824Y-89316666D02*
X126977014Y-89316666D01*
X126977014Y-89316666D02*
X127091300Y-89278571D01*
X127091300Y-89278571D02*
X127548443Y-88821428D01*
X127548443Y-88821428D02*
X127548443Y-89316666D01*
X126824633Y-89621428D02*
X126786538Y-89659524D01*
X126786538Y-89659524D02*
X126748443Y-89735714D01*
X126748443Y-89735714D02*
X126748443Y-89926190D01*
X126748443Y-89926190D02*
X126786538Y-90002381D01*
X126786538Y-90002381D02*
X126824633Y-90040476D01*
X126824633Y-90040476D02*
X126900824Y-90078571D01*
X126900824Y-90078571D02*
X126977014Y-90078571D01*
X126977014Y-90078571D02*
X127091300Y-90040476D01*
X127091300Y-90040476D02*
X127548443Y-89583333D01*
X127548443Y-89583333D02*
X127548443Y-90078571D01*
X126748443Y-90573810D02*
X126748443Y-90650000D01*
X126748443Y-90650000D02*
X126786538Y-90726191D01*
X126786538Y-90726191D02*
X126824633Y-90764286D01*
X126824633Y-90764286D02*
X126900824Y-90802381D01*
X126900824Y-90802381D02*
X127053205Y-90840476D01*
X127053205Y-90840476D02*
X127243681Y-90840476D01*
X127243681Y-90840476D02*
X127396062Y-90802381D01*
X127396062Y-90802381D02*
X127472252Y-90764286D01*
X127472252Y-90764286D02*
X127510348Y-90726191D01*
X127510348Y-90726191D02*
X127548443Y-90650000D01*
X127548443Y-90650000D02*
X127548443Y-90573810D01*
X127548443Y-90573810D02*
X127510348Y-90497619D01*
X127510348Y-90497619D02*
X127472252Y-90459524D01*
X127472252Y-90459524D02*
X127396062Y-90421429D01*
X127396062Y-90421429D02*
X127243681Y-90383333D01*
X127243681Y-90383333D02*
X127053205Y-90383333D01*
X127053205Y-90383333D02*
X126900824Y-90421429D01*
X126900824Y-90421429D02*
X126824633Y-90459524D01*
X126824633Y-90459524D02*
X126786538Y-90497619D01*
X126786538Y-90497619D02*
X126748443Y-90573810D01*
X127548443Y-91602381D02*
X127548443Y-91145238D01*
X127548443Y-91373810D02*
X126748443Y-91373810D01*
X126748443Y-91373810D02*
X126862728Y-91297619D01*
X126862728Y-91297619D02*
X126938919Y-91221429D01*
X126938919Y-91221429D02*
X126977014Y-91145238D01*
X137841017Y-70298440D02*
X137841017Y-70869868D01*
X137841017Y-70869868D02*
X137879112Y-70984154D01*
X137879112Y-70984154D02*
X137955303Y-71060345D01*
X137955303Y-71060345D02*
X138069588Y-71098440D01*
X138069588Y-71098440D02*
X138145779Y-71098440D01*
X137498160Y-70374630D02*
X137460064Y-70336535D01*
X137460064Y-70336535D02*
X137383874Y-70298440D01*
X137383874Y-70298440D02*
X137193398Y-70298440D01*
X137193398Y-70298440D02*
X137117207Y-70336535D01*
X137117207Y-70336535D02*
X137079112Y-70374630D01*
X137079112Y-70374630D02*
X137041017Y-70450821D01*
X137041017Y-70450821D02*
X137041017Y-70527011D01*
X137041017Y-70527011D02*
X137079112Y-70641297D01*
X137079112Y-70641297D02*
X137536255Y-71098440D01*
X137536255Y-71098440D02*
X137041017Y-71098440D01*
X136736255Y-70374630D02*
X136698159Y-70336535D01*
X136698159Y-70336535D02*
X136621969Y-70298440D01*
X136621969Y-70298440D02*
X136431493Y-70298440D01*
X136431493Y-70298440D02*
X136355302Y-70336535D01*
X136355302Y-70336535D02*
X136317207Y-70374630D01*
X136317207Y-70374630D02*
X136279112Y-70450821D01*
X136279112Y-70450821D02*
X136279112Y-70527011D01*
X136279112Y-70527011D02*
X136317207Y-70641297D01*
X136317207Y-70641297D02*
X136774350Y-71098440D01*
X136774350Y-71098440D02*
X136279112Y-71098440D01*
X135783873Y-70298440D02*
X135707683Y-70298440D01*
X135707683Y-70298440D02*
X135631492Y-70336535D01*
X135631492Y-70336535D02*
X135593397Y-70374630D01*
X135593397Y-70374630D02*
X135555302Y-70450821D01*
X135555302Y-70450821D02*
X135517207Y-70603202D01*
X135517207Y-70603202D02*
X135517207Y-70793678D01*
X135517207Y-70793678D02*
X135555302Y-70946059D01*
X135555302Y-70946059D02*
X135593397Y-71022249D01*
X135593397Y-71022249D02*
X135631492Y-71060345D01*
X135631492Y-71060345D02*
X135707683Y-71098440D01*
X135707683Y-71098440D02*
X135783873Y-71098440D01*
X135783873Y-71098440D02*
X135860064Y-71060345D01*
X135860064Y-71060345D02*
X135898159Y-71022249D01*
X135898159Y-71022249D02*
X135936254Y-70946059D01*
X135936254Y-70946059D02*
X135974350Y-70793678D01*
X135974350Y-70793678D02*
X135974350Y-70603202D01*
X135974350Y-70603202D02*
X135936254Y-70450821D01*
X135936254Y-70450821D02*
X135898159Y-70374630D01*
X135898159Y-70374630D02*
X135860064Y-70336535D01*
X135860064Y-70336535D02*
X135783873Y-70298440D01*
X135021968Y-70298440D02*
X134945778Y-70298440D01*
X134945778Y-70298440D02*
X134869587Y-70336535D01*
X134869587Y-70336535D02*
X134831492Y-70374630D01*
X134831492Y-70374630D02*
X134793397Y-70450821D01*
X134793397Y-70450821D02*
X134755302Y-70603202D01*
X134755302Y-70603202D02*
X134755302Y-70793678D01*
X134755302Y-70793678D02*
X134793397Y-70946059D01*
X134793397Y-70946059D02*
X134831492Y-71022249D01*
X134831492Y-71022249D02*
X134869587Y-71060345D01*
X134869587Y-71060345D02*
X134945778Y-71098440D01*
X134945778Y-71098440D02*
X135021968Y-71098440D01*
X135021968Y-71098440D02*
X135098159Y-71060345D01*
X135098159Y-71060345D02*
X135136254Y-71022249D01*
X135136254Y-71022249D02*
X135174349Y-70946059D01*
X135174349Y-70946059D02*
X135212445Y-70793678D01*
X135212445Y-70793678D02*
X135212445Y-70603202D01*
X135212445Y-70603202D02*
X135174349Y-70450821D01*
X135174349Y-70450821D02*
X135136254Y-70374630D01*
X135136254Y-70374630D02*
X135098159Y-70336535D01*
X135098159Y-70336535D02*
X135021968Y-70298440D01*
X161923315Y-65379417D02*
X161542362Y-65112750D01*
X161923315Y-64922274D02*
X161123315Y-64922274D01*
X161123315Y-64922274D02*
X161123315Y-65227036D01*
X161123315Y-65227036D02*
X161161410Y-65303226D01*
X161161410Y-65303226D02*
X161199505Y-65341321D01*
X161199505Y-65341321D02*
X161275696Y-65379417D01*
X161275696Y-65379417D02*
X161389981Y-65379417D01*
X161389981Y-65379417D02*
X161466172Y-65341321D01*
X161466172Y-65341321D02*
X161504267Y-65303226D01*
X161504267Y-65303226D02*
X161542362Y-65227036D01*
X161542362Y-65227036D02*
X161542362Y-64922274D01*
X161199505Y-65684178D02*
X161161410Y-65722274D01*
X161161410Y-65722274D02*
X161123315Y-65798464D01*
X161123315Y-65798464D02*
X161123315Y-65988940D01*
X161123315Y-65988940D02*
X161161410Y-66065131D01*
X161161410Y-66065131D02*
X161199505Y-66103226D01*
X161199505Y-66103226D02*
X161275696Y-66141321D01*
X161275696Y-66141321D02*
X161351886Y-66141321D01*
X161351886Y-66141321D02*
X161466172Y-66103226D01*
X161466172Y-66103226D02*
X161923315Y-65646083D01*
X161923315Y-65646083D02*
X161923315Y-66141321D01*
X161199505Y-66446083D02*
X161161410Y-66484179D01*
X161161410Y-66484179D02*
X161123315Y-66560369D01*
X161123315Y-66560369D02*
X161123315Y-66750845D01*
X161123315Y-66750845D02*
X161161410Y-66827036D01*
X161161410Y-66827036D02*
X161199505Y-66865131D01*
X161199505Y-66865131D02*
X161275696Y-66903226D01*
X161275696Y-66903226D02*
X161351886Y-66903226D01*
X161351886Y-66903226D02*
X161466172Y-66865131D01*
X161466172Y-66865131D02*
X161923315Y-66407988D01*
X161923315Y-66407988D02*
X161923315Y-66903226D01*
X161123315Y-67627036D02*
X161123315Y-67246084D01*
X161123315Y-67246084D02*
X161504267Y-67207988D01*
X161504267Y-67207988D02*
X161466172Y-67246084D01*
X161466172Y-67246084D02*
X161428077Y-67322274D01*
X161428077Y-67322274D02*
X161428077Y-67512750D01*
X161428077Y-67512750D02*
X161466172Y-67588941D01*
X161466172Y-67588941D02*
X161504267Y-67627036D01*
X161504267Y-67627036D02*
X161580458Y-67665131D01*
X161580458Y-67665131D02*
X161770934Y-67665131D01*
X161770934Y-67665131D02*
X161847124Y-67627036D01*
X161847124Y-67627036D02*
X161885220Y-67588941D01*
X161885220Y-67588941D02*
X161923315Y-67512750D01*
X161923315Y-67512750D02*
X161923315Y-67322274D01*
X161923315Y-67322274D02*
X161885220Y-67246084D01*
X161885220Y-67246084D02*
X161847124Y-67207988D01*
X161123315Y-68350846D02*
X161123315Y-68198465D01*
X161123315Y-68198465D02*
X161161410Y-68122274D01*
X161161410Y-68122274D02*
X161199505Y-68084179D01*
X161199505Y-68084179D02*
X161313791Y-68007989D01*
X161313791Y-68007989D02*
X161466172Y-67969893D01*
X161466172Y-67969893D02*
X161770934Y-67969893D01*
X161770934Y-67969893D02*
X161847124Y-68007989D01*
X161847124Y-68007989D02*
X161885220Y-68046084D01*
X161885220Y-68046084D02*
X161923315Y-68122274D01*
X161923315Y-68122274D02*
X161923315Y-68274655D01*
X161923315Y-68274655D02*
X161885220Y-68350846D01*
X161885220Y-68350846D02*
X161847124Y-68388941D01*
X161847124Y-68388941D02*
X161770934Y-68427036D01*
X161770934Y-68427036D02*
X161580458Y-68427036D01*
X161580458Y-68427036D02*
X161504267Y-68388941D01*
X161504267Y-68388941D02*
X161466172Y-68350846D01*
X161466172Y-68350846D02*
X161428077Y-68274655D01*
X161428077Y-68274655D02*
X161428077Y-68122274D01*
X161428077Y-68122274D02*
X161466172Y-68046084D01*
X161466172Y-68046084D02*
X161504267Y-68007989D01*
X161504267Y-68007989D02*
X161580458Y-67969893D01*
X110795583Y-60698443D02*
X111062250Y-60317490D01*
X111252726Y-60698443D02*
X111252726Y-59898443D01*
X111252726Y-59898443D02*
X110947964Y-59898443D01*
X110947964Y-59898443D02*
X110871774Y-59936538D01*
X110871774Y-59936538D02*
X110833679Y-59974633D01*
X110833679Y-59974633D02*
X110795583Y-60050824D01*
X110795583Y-60050824D02*
X110795583Y-60165109D01*
X110795583Y-60165109D02*
X110833679Y-60241300D01*
X110833679Y-60241300D02*
X110871774Y-60279395D01*
X110871774Y-60279395D02*
X110947964Y-60317490D01*
X110947964Y-60317490D02*
X111252726Y-60317490D01*
X110490822Y-59974633D02*
X110452726Y-59936538D01*
X110452726Y-59936538D02*
X110376536Y-59898443D01*
X110376536Y-59898443D02*
X110186060Y-59898443D01*
X110186060Y-59898443D02*
X110109869Y-59936538D01*
X110109869Y-59936538D02*
X110071774Y-59974633D01*
X110071774Y-59974633D02*
X110033679Y-60050824D01*
X110033679Y-60050824D02*
X110033679Y-60127014D01*
X110033679Y-60127014D02*
X110071774Y-60241300D01*
X110071774Y-60241300D02*
X110528917Y-60698443D01*
X110528917Y-60698443D02*
X110033679Y-60698443D01*
X109728917Y-59974633D02*
X109690821Y-59936538D01*
X109690821Y-59936538D02*
X109614631Y-59898443D01*
X109614631Y-59898443D02*
X109424155Y-59898443D01*
X109424155Y-59898443D02*
X109347964Y-59936538D01*
X109347964Y-59936538D02*
X109309869Y-59974633D01*
X109309869Y-59974633D02*
X109271774Y-60050824D01*
X109271774Y-60050824D02*
X109271774Y-60127014D01*
X109271774Y-60127014D02*
X109309869Y-60241300D01*
X109309869Y-60241300D02*
X109767012Y-60698443D01*
X109767012Y-60698443D02*
X109271774Y-60698443D01*
X108509869Y-60698443D02*
X108967012Y-60698443D01*
X108738440Y-60698443D02*
X108738440Y-59898443D01*
X108738440Y-59898443D02*
X108814631Y-60012728D01*
X108814631Y-60012728D02*
X108890821Y-60088919D01*
X108890821Y-60088919D02*
X108967012Y-60127014D01*
X108243202Y-59898443D02*
X107747964Y-59898443D01*
X107747964Y-59898443D02*
X108014630Y-60203205D01*
X108014630Y-60203205D02*
X107900345Y-60203205D01*
X107900345Y-60203205D02*
X107824154Y-60241300D01*
X107824154Y-60241300D02*
X107786059Y-60279395D01*
X107786059Y-60279395D02*
X107747964Y-60355586D01*
X107747964Y-60355586D02*
X107747964Y-60546062D01*
X107747964Y-60546062D02*
X107786059Y-60622252D01*
X107786059Y-60622252D02*
X107824154Y-60660348D01*
X107824154Y-60660348D02*
X107900345Y-60698443D01*
X107900345Y-60698443D02*
X108128916Y-60698443D01*
X108128916Y-60698443D02*
X108205107Y-60660348D01*
X108205107Y-60660348D02*
X108243202Y-60622252D01*
X152394830Y-62798267D02*
X152704354Y-62798267D01*
X152704354Y-62798267D02*
X152735306Y-63179219D01*
X152735306Y-63179219D02*
X152704354Y-63141124D01*
X152704354Y-63141124D02*
X152642449Y-63103029D01*
X152642449Y-63103029D02*
X152487687Y-63103029D01*
X152487687Y-63103029D02*
X152425782Y-63141124D01*
X152425782Y-63141124D02*
X152394830Y-63179219D01*
X152394830Y-63179219D02*
X152363877Y-63255410D01*
X152363877Y-63255410D02*
X152363877Y-63445886D01*
X152363877Y-63445886D02*
X152394830Y-63522076D01*
X152394830Y-63522076D02*
X152425782Y-63560172D01*
X152425782Y-63560172D02*
X152487687Y-63598267D01*
X152487687Y-63598267D02*
X152642449Y-63598267D01*
X152642449Y-63598267D02*
X152704354Y-63560172D01*
X152704354Y-63560172D02*
X152735306Y-63522076D01*
X138025650Y-82622472D02*
X138063746Y-82660568D01*
X138063746Y-82660568D02*
X138178031Y-82698663D01*
X138178031Y-82698663D02*
X138254222Y-82698663D01*
X138254222Y-82698663D02*
X138368508Y-82660568D01*
X138368508Y-82660568D02*
X138444698Y-82584377D01*
X138444698Y-82584377D02*
X138482793Y-82508187D01*
X138482793Y-82508187D02*
X138520889Y-82355806D01*
X138520889Y-82355806D02*
X138520889Y-82241520D01*
X138520889Y-82241520D02*
X138482793Y-82089139D01*
X138482793Y-82089139D02*
X138444698Y-82012948D01*
X138444698Y-82012948D02*
X138368508Y-81936758D01*
X138368508Y-81936758D02*
X138254222Y-81898663D01*
X138254222Y-81898663D02*
X138178031Y-81898663D01*
X138178031Y-81898663D02*
X138063746Y-81936758D01*
X138063746Y-81936758D02*
X138025650Y-81974853D01*
X137720889Y-81974853D02*
X137682793Y-81936758D01*
X137682793Y-81936758D02*
X137606603Y-81898663D01*
X137606603Y-81898663D02*
X137416127Y-81898663D01*
X137416127Y-81898663D02*
X137339936Y-81936758D01*
X137339936Y-81936758D02*
X137301841Y-81974853D01*
X137301841Y-81974853D02*
X137263746Y-82051044D01*
X137263746Y-82051044D02*
X137263746Y-82127234D01*
X137263746Y-82127234D02*
X137301841Y-82241520D01*
X137301841Y-82241520D02*
X137758984Y-82698663D01*
X137758984Y-82698663D02*
X137263746Y-82698663D01*
X136958984Y-81974853D02*
X136920888Y-81936758D01*
X136920888Y-81936758D02*
X136844698Y-81898663D01*
X136844698Y-81898663D02*
X136654222Y-81898663D01*
X136654222Y-81898663D02*
X136578031Y-81936758D01*
X136578031Y-81936758D02*
X136539936Y-81974853D01*
X136539936Y-81974853D02*
X136501841Y-82051044D01*
X136501841Y-82051044D02*
X136501841Y-82127234D01*
X136501841Y-82127234D02*
X136539936Y-82241520D01*
X136539936Y-82241520D02*
X136997079Y-82698663D01*
X136997079Y-82698663D02*
X136501841Y-82698663D01*
X136235174Y-81898663D02*
X135739936Y-81898663D01*
X135739936Y-81898663D02*
X136006602Y-82203425D01*
X136006602Y-82203425D02*
X135892317Y-82203425D01*
X135892317Y-82203425D02*
X135816126Y-82241520D01*
X135816126Y-82241520D02*
X135778031Y-82279615D01*
X135778031Y-82279615D02*
X135739936Y-82355806D01*
X135739936Y-82355806D02*
X135739936Y-82546282D01*
X135739936Y-82546282D02*
X135778031Y-82622472D01*
X135778031Y-82622472D02*
X135816126Y-82660568D01*
X135816126Y-82660568D02*
X135892317Y-82698663D01*
X135892317Y-82698663D02*
X136120888Y-82698663D01*
X136120888Y-82698663D02*
X136197079Y-82660568D01*
X136197079Y-82660568D02*
X136235174Y-82622472D01*
X134978031Y-82698663D02*
X135435174Y-82698663D01*
X135206602Y-82698663D02*
X135206602Y-81898663D01*
X135206602Y-81898663D02*
X135282793Y-82012948D01*
X135282793Y-82012948D02*
X135358983Y-82089139D01*
X135358983Y-82089139D02*
X135435174Y-82127234D01*
X110248440Y-66228375D02*
X110896059Y-66228375D01*
X110896059Y-66228375D02*
X110972249Y-66266470D01*
X110972249Y-66266470D02*
X111010345Y-66304565D01*
X111010345Y-66304565D02*
X111048440Y-66380756D01*
X111048440Y-66380756D02*
X111048440Y-66533137D01*
X111048440Y-66533137D02*
X111010345Y-66609327D01*
X111010345Y-66609327D02*
X110972249Y-66647422D01*
X110972249Y-66647422D02*
X110896059Y-66685518D01*
X110896059Y-66685518D02*
X110248440Y-66685518D01*
X110324630Y-67028374D02*
X110286535Y-67066470D01*
X110286535Y-67066470D02*
X110248440Y-67142660D01*
X110248440Y-67142660D02*
X110248440Y-67333136D01*
X110248440Y-67333136D02*
X110286535Y-67409327D01*
X110286535Y-67409327D02*
X110324630Y-67447422D01*
X110324630Y-67447422D02*
X110400821Y-67485517D01*
X110400821Y-67485517D02*
X110477011Y-67485517D01*
X110477011Y-67485517D02*
X110591297Y-67447422D01*
X110591297Y-67447422D02*
X111048440Y-66990279D01*
X111048440Y-66990279D02*
X111048440Y-67485517D01*
X110324630Y-67790279D02*
X110286535Y-67828375D01*
X110286535Y-67828375D02*
X110248440Y-67904565D01*
X110248440Y-67904565D02*
X110248440Y-68095041D01*
X110248440Y-68095041D02*
X110286535Y-68171232D01*
X110286535Y-68171232D02*
X110324630Y-68209327D01*
X110324630Y-68209327D02*
X110400821Y-68247422D01*
X110400821Y-68247422D02*
X110477011Y-68247422D01*
X110477011Y-68247422D02*
X110591297Y-68209327D01*
X110591297Y-68209327D02*
X111048440Y-67752184D01*
X111048440Y-67752184D02*
X111048440Y-68247422D01*
X110248440Y-68742661D02*
X110248440Y-68818851D01*
X110248440Y-68818851D02*
X110286535Y-68895042D01*
X110286535Y-68895042D02*
X110324630Y-68933137D01*
X110324630Y-68933137D02*
X110400821Y-68971232D01*
X110400821Y-68971232D02*
X110553202Y-69009327D01*
X110553202Y-69009327D02*
X110743678Y-69009327D01*
X110743678Y-69009327D02*
X110896059Y-68971232D01*
X110896059Y-68971232D02*
X110972249Y-68933137D01*
X110972249Y-68933137D02*
X111010345Y-68895042D01*
X111010345Y-68895042D02*
X111048440Y-68818851D01*
X111048440Y-68818851D02*
X111048440Y-68742661D01*
X111048440Y-68742661D02*
X111010345Y-68666470D01*
X111010345Y-68666470D02*
X110972249Y-68628375D01*
X110972249Y-68628375D02*
X110896059Y-68590280D01*
X110896059Y-68590280D02*
X110743678Y-68552184D01*
X110743678Y-68552184D02*
X110553202Y-68552184D01*
X110553202Y-68552184D02*
X110400821Y-68590280D01*
X110400821Y-68590280D02*
X110324630Y-68628375D01*
X110324630Y-68628375D02*
X110286535Y-68666470D01*
X110286535Y-68666470D02*
X110248440Y-68742661D01*
X110248440Y-69504566D02*
X110248440Y-69580756D01*
X110248440Y-69580756D02*
X110286535Y-69656947D01*
X110286535Y-69656947D02*
X110324630Y-69695042D01*
X110324630Y-69695042D02*
X110400821Y-69733137D01*
X110400821Y-69733137D02*
X110553202Y-69771232D01*
X110553202Y-69771232D02*
X110743678Y-69771232D01*
X110743678Y-69771232D02*
X110896059Y-69733137D01*
X110896059Y-69733137D02*
X110972249Y-69695042D01*
X110972249Y-69695042D02*
X111010345Y-69656947D01*
X111010345Y-69656947D02*
X111048440Y-69580756D01*
X111048440Y-69580756D02*
X111048440Y-69504566D01*
X111048440Y-69504566D02*
X111010345Y-69428375D01*
X111010345Y-69428375D02*
X110972249Y-69390280D01*
X110972249Y-69390280D02*
X110896059Y-69352185D01*
X110896059Y-69352185D02*
X110743678Y-69314089D01*
X110743678Y-69314089D02*
X110553202Y-69314089D01*
X110553202Y-69314089D02*
X110400821Y-69352185D01*
X110400821Y-69352185D02*
X110324630Y-69390280D01*
X110324630Y-69390280D02*
X110286535Y-69428375D01*
X110286535Y-69428375D02*
X110248440Y-69504566D01*
X164248219Y-80235370D02*
X163867266Y-79968703D01*
X164248219Y-79778227D02*
X163448219Y-79778227D01*
X163448219Y-79778227D02*
X163448219Y-80082989D01*
X163448219Y-80082989D02*
X163486314Y-80159179D01*
X163486314Y-80159179D02*
X163524409Y-80197274D01*
X163524409Y-80197274D02*
X163600600Y-80235370D01*
X163600600Y-80235370D02*
X163714885Y-80235370D01*
X163714885Y-80235370D02*
X163791076Y-80197274D01*
X163791076Y-80197274D02*
X163829171Y-80159179D01*
X163829171Y-80159179D02*
X163867266Y-80082989D01*
X163867266Y-80082989D02*
X163867266Y-79778227D01*
X163448219Y-80502036D02*
X163448219Y-81035370D01*
X163448219Y-81035370D02*
X164248219Y-80692512D01*
X163448219Y-81492513D02*
X163448219Y-81568703D01*
X163448219Y-81568703D02*
X163486314Y-81644894D01*
X163486314Y-81644894D02*
X163524409Y-81682989D01*
X163524409Y-81682989D02*
X163600600Y-81721084D01*
X163600600Y-81721084D02*
X163752981Y-81759179D01*
X163752981Y-81759179D02*
X163943457Y-81759179D01*
X163943457Y-81759179D02*
X164095838Y-81721084D01*
X164095838Y-81721084D02*
X164172028Y-81682989D01*
X164172028Y-81682989D02*
X164210124Y-81644894D01*
X164210124Y-81644894D02*
X164248219Y-81568703D01*
X164248219Y-81568703D02*
X164248219Y-81492513D01*
X164248219Y-81492513D02*
X164210124Y-81416322D01*
X164210124Y-81416322D02*
X164172028Y-81378227D01*
X164172028Y-81378227D02*
X164095838Y-81340132D01*
X164095838Y-81340132D02*
X163943457Y-81302036D01*
X163943457Y-81302036D02*
X163752981Y-81302036D01*
X163752981Y-81302036D02*
X163600600Y-81340132D01*
X163600600Y-81340132D02*
X163524409Y-81378227D01*
X163524409Y-81378227D02*
X163486314Y-81416322D01*
X163486314Y-81416322D02*
X163448219Y-81492513D01*
X163791076Y-82216322D02*
X163752981Y-82140132D01*
X163752981Y-82140132D02*
X163714885Y-82102037D01*
X163714885Y-82102037D02*
X163638695Y-82063941D01*
X163638695Y-82063941D02*
X163600600Y-82063941D01*
X163600600Y-82063941D02*
X163524409Y-82102037D01*
X163524409Y-82102037D02*
X163486314Y-82140132D01*
X163486314Y-82140132D02*
X163448219Y-82216322D01*
X163448219Y-82216322D02*
X163448219Y-82368703D01*
X163448219Y-82368703D02*
X163486314Y-82444894D01*
X163486314Y-82444894D02*
X163524409Y-82482989D01*
X163524409Y-82482989D02*
X163600600Y-82521084D01*
X163600600Y-82521084D02*
X163638695Y-82521084D01*
X163638695Y-82521084D02*
X163714885Y-82482989D01*
X163714885Y-82482989D02*
X163752981Y-82444894D01*
X163752981Y-82444894D02*
X163791076Y-82368703D01*
X163791076Y-82368703D02*
X163791076Y-82216322D01*
X163791076Y-82216322D02*
X163829171Y-82140132D01*
X163829171Y-82140132D02*
X163867266Y-82102037D01*
X163867266Y-82102037D02*
X163943457Y-82063941D01*
X163943457Y-82063941D02*
X164095838Y-82063941D01*
X164095838Y-82063941D02*
X164172028Y-82102037D01*
X164172028Y-82102037D02*
X164210124Y-82140132D01*
X164210124Y-82140132D02*
X164248219Y-82216322D01*
X164248219Y-82216322D02*
X164248219Y-82368703D01*
X164248219Y-82368703D02*
X164210124Y-82444894D01*
X164210124Y-82444894D02*
X164172028Y-82482989D01*
X164172028Y-82482989D02*
X164095838Y-82521084D01*
X164095838Y-82521084D02*
X163943457Y-82521084D01*
X163943457Y-82521084D02*
X163867266Y-82482989D01*
X163867266Y-82482989D02*
X163829171Y-82444894D01*
X163829171Y-82444894D02*
X163791076Y-82368703D01*
X146566959Y-67498440D02*
X146133626Y-67498440D01*
X146133626Y-67498440D02*
X146412197Y-68298440D01*
X154495778Y-71198315D02*
X154762445Y-70817362D01*
X154952921Y-71198315D02*
X154952921Y-70398315D01*
X154952921Y-70398315D02*
X154648159Y-70398315D01*
X154648159Y-70398315D02*
X154571969Y-70436410D01*
X154571969Y-70436410D02*
X154533874Y-70474505D01*
X154533874Y-70474505D02*
X154495778Y-70550696D01*
X154495778Y-70550696D02*
X154495778Y-70664981D01*
X154495778Y-70664981D02*
X154533874Y-70741172D01*
X154533874Y-70741172D02*
X154571969Y-70779267D01*
X154571969Y-70779267D02*
X154648159Y-70817362D01*
X154648159Y-70817362D02*
X154952921Y-70817362D01*
X154191017Y-70474505D02*
X154152921Y-70436410D01*
X154152921Y-70436410D02*
X154076731Y-70398315D01*
X154076731Y-70398315D02*
X153886255Y-70398315D01*
X153886255Y-70398315D02*
X153810064Y-70436410D01*
X153810064Y-70436410D02*
X153771969Y-70474505D01*
X153771969Y-70474505D02*
X153733874Y-70550696D01*
X153733874Y-70550696D02*
X153733874Y-70626886D01*
X153733874Y-70626886D02*
X153771969Y-70741172D01*
X153771969Y-70741172D02*
X154229112Y-71198315D01*
X154229112Y-71198315D02*
X153733874Y-71198315D01*
X153429112Y-70474505D02*
X153391016Y-70436410D01*
X153391016Y-70436410D02*
X153314826Y-70398315D01*
X153314826Y-70398315D02*
X153124350Y-70398315D01*
X153124350Y-70398315D02*
X153048159Y-70436410D01*
X153048159Y-70436410D02*
X153010064Y-70474505D01*
X153010064Y-70474505D02*
X152971969Y-70550696D01*
X152971969Y-70550696D02*
X152971969Y-70626886D01*
X152971969Y-70626886D02*
X153010064Y-70741172D01*
X153010064Y-70741172D02*
X153467207Y-71198315D01*
X153467207Y-71198315D02*
X152971969Y-71198315D01*
X152248159Y-70398315D02*
X152629111Y-70398315D01*
X152629111Y-70398315D02*
X152667207Y-70779267D01*
X152667207Y-70779267D02*
X152629111Y-70741172D01*
X152629111Y-70741172D02*
X152552921Y-70703077D01*
X152552921Y-70703077D02*
X152362445Y-70703077D01*
X152362445Y-70703077D02*
X152286254Y-70741172D01*
X152286254Y-70741172D02*
X152248159Y-70779267D01*
X152248159Y-70779267D02*
X152210064Y-70855458D01*
X152210064Y-70855458D02*
X152210064Y-71045934D01*
X152210064Y-71045934D02*
X152248159Y-71122124D01*
X152248159Y-71122124D02*
X152286254Y-71160220D01*
X152286254Y-71160220D02*
X152362445Y-71198315D01*
X152362445Y-71198315D02*
X152552921Y-71198315D01*
X152552921Y-71198315D02*
X152629111Y-71160220D01*
X152629111Y-71160220D02*
X152667207Y-71122124D01*
X151829111Y-71198315D02*
X151676730Y-71198315D01*
X151676730Y-71198315D02*
X151600540Y-71160220D01*
X151600540Y-71160220D02*
X151562444Y-71122124D01*
X151562444Y-71122124D02*
X151486254Y-71007839D01*
X151486254Y-71007839D02*
X151448159Y-70855458D01*
X151448159Y-70855458D02*
X151448159Y-70550696D01*
X151448159Y-70550696D02*
X151486254Y-70474505D01*
X151486254Y-70474505D02*
X151524349Y-70436410D01*
X151524349Y-70436410D02*
X151600540Y-70398315D01*
X151600540Y-70398315D02*
X151752921Y-70398315D01*
X151752921Y-70398315D02*
X151829111Y-70436410D01*
X151829111Y-70436410D02*
X151867206Y-70474505D01*
X151867206Y-70474505D02*
X151905302Y-70550696D01*
X151905302Y-70550696D02*
X151905302Y-70741172D01*
X151905302Y-70741172D02*
X151867206Y-70817362D01*
X151867206Y-70817362D02*
X151829111Y-70855458D01*
X151829111Y-70855458D02*
X151752921Y-70893553D01*
X151752921Y-70893553D02*
X151600540Y-70893553D01*
X151600540Y-70893553D02*
X151524349Y-70855458D01*
X151524349Y-70855458D02*
X151486254Y-70817362D01*
X151486254Y-70817362D02*
X151448159Y-70741172D01*
X138771428Y-59398440D02*
X138771428Y-60046059D01*
X138771428Y-60046059D02*
X138733333Y-60122249D01*
X138733333Y-60122249D02*
X138695238Y-60160345D01*
X138695238Y-60160345D02*
X138619047Y-60198440D01*
X138619047Y-60198440D02*
X138466666Y-60198440D01*
X138466666Y-60198440D02*
X138390476Y-60160345D01*
X138390476Y-60160345D02*
X138352381Y-60122249D01*
X138352381Y-60122249D02*
X138314285Y-60046059D01*
X138314285Y-60046059D02*
X138314285Y-59398440D01*
X137971429Y-59474630D02*
X137933333Y-59436535D01*
X137933333Y-59436535D02*
X137857143Y-59398440D01*
X137857143Y-59398440D02*
X137666667Y-59398440D01*
X137666667Y-59398440D02*
X137590476Y-59436535D01*
X137590476Y-59436535D02*
X137552381Y-59474630D01*
X137552381Y-59474630D02*
X137514286Y-59550821D01*
X137514286Y-59550821D02*
X137514286Y-59627011D01*
X137514286Y-59627011D02*
X137552381Y-59741297D01*
X137552381Y-59741297D02*
X138009524Y-60198440D01*
X138009524Y-60198440D02*
X137514286Y-60198440D01*
X137209524Y-59474630D02*
X137171428Y-59436535D01*
X137171428Y-59436535D02*
X137095238Y-59398440D01*
X137095238Y-59398440D02*
X136904762Y-59398440D01*
X136904762Y-59398440D02*
X136828571Y-59436535D01*
X136828571Y-59436535D02*
X136790476Y-59474630D01*
X136790476Y-59474630D02*
X136752381Y-59550821D01*
X136752381Y-59550821D02*
X136752381Y-59627011D01*
X136752381Y-59627011D02*
X136790476Y-59741297D01*
X136790476Y-59741297D02*
X137247619Y-60198440D01*
X137247619Y-60198440D02*
X136752381Y-60198440D01*
X136257142Y-59398440D02*
X136180952Y-59398440D01*
X136180952Y-59398440D02*
X136104761Y-59436535D01*
X136104761Y-59436535D02*
X136066666Y-59474630D01*
X136066666Y-59474630D02*
X136028571Y-59550821D01*
X136028571Y-59550821D02*
X135990476Y-59703202D01*
X135990476Y-59703202D02*
X135990476Y-59893678D01*
X135990476Y-59893678D02*
X136028571Y-60046059D01*
X136028571Y-60046059D02*
X136066666Y-60122249D01*
X136066666Y-60122249D02*
X136104761Y-60160345D01*
X136104761Y-60160345D02*
X136180952Y-60198440D01*
X136180952Y-60198440D02*
X136257142Y-60198440D01*
X136257142Y-60198440D02*
X136333333Y-60160345D01*
X136333333Y-60160345D02*
X136371428Y-60122249D01*
X136371428Y-60122249D02*
X136409523Y-60046059D01*
X136409523Y-60046059D02*
X136447619Y-59893678D01*
X136447619Y-59893678D02*
X136447619Y-59703202D01*
X136447619Y-59703202D02*
X136409523Y-59550821D01*
X136409523Y-59550821D02*
X136371428Y-59474630D01*
X136371428Y-59474630D02*
X136333333Y-59436535D01*
X136333333Y-59436535D02*
X136257142Y-59398440D01*
X135723809Y-59398440D02*
X135228571Y-59398440D01*
X135228571Y-59398440D02*
X135495237Y-59703202D01*
X135495237Y-59703202D02*
X135380952Y-59703202D01*
X135380952Y-59703202D02*
X135304761Y-59741297D01*
X135304761Y-59741297D02*
X135266666Y-59779392D01*
X135266666Y-59779392D02*
X135228571Y-59855583D01*
X135228571Y-59855583D02*
X135228571Y-60046059D01*
X135228571Y-60046059D02*
X135266666Y-60122249D01*
X135266666Y-60122249D02*
X135304761Y-60160345D01*
X135304761Y-60160345D02*
X135380952Y-60198440D01*
X135380952Y-60198440D02*
X135609523Y-60198440D01*
X135609523Y-60198440D02*
X135685714Y-60160345D01*
X135685714Y-60160345D02*
X135723809Y-60122249D01*
X148045082Y-87624735D02*
X148014130Y-87586640D01*
X148014130Y-87586640D02*
X147952225Y-87548545D01*
X147952225Y-87548545D02*
X147797463Y-87548545D01*
X147797463Y-87548545D02*
X147735558Y-87586640D01*
X147735558Y-87586640D02*
X147704606Y-87624735D01*
X147704606Y-87624735D02*
X147673653Y-87700926D01*
X147673653Y-87700926D02*
X147673653Y-87777116D01*
X147673653Y-87777116D02*
X147704606Y-87891402D01*
X147704606Y-87891402D02*
X148076034Y-88348545D01*
X148076034Y-88348545D02*
X147673653Y-88348545D01*
X147456986Y-87548545D02*
X147023653Y-87548545D01*
X147023653Y-87548545D02*
X147302224Y-88348545D01*
X141564286Y-76017268D02*
X141830953Y-75636315D01*
X142021429Y-76017268D02*
X142021429Y-75217268D01*
X142021429Y-75217268D02*
X141716667Y-75217268D01*
X141716667Y-75217268D02*
X141640477Y-75255363D01*
X141640477Y-75255363D02*
X141602382Y-75293458D01*
X141602382Y-75293458D02*
X141564286Y-75369649D01*
X141564286Y-75369649D02*
X141564286Y-75483934D01*
X141564286Y-75483934D02*
X141602382Y-75560125D01*
X141602382Y-75560125D02*
X141640477Y-75598220D01*
X141640477Y-75598220D02*
X141716667Y-75636315D01*
X141716667Y-75636315D02*
X142021429Y-75636315D01*
X141259525Y-75293458D02*
X141221429Y-75255363D01*
X141221429Y-75255363D02*
X141145239Y-75217268D01*
X141145239Y-75217268D02*
X140954763Y-75217268D01*
X140954763Y-75217268D02*
X140878572Y-75255363D01*
X140878572Y-75255363D02*
X140840477Y-75293458D01*
X140840477Y-75293458D02*
X140802382Y-75369649D01*
X140802382Y-75369649D02*
X140802382Y-75445839D01*
X140802382Y-75445839D02*
X140840477Y-75560125D01*
X140840477Y-75560125D02*
X141297620Y-76017268D01*
X141297620Y-76017268D02*
X140802382Y-76017268D01*
X140497620Y-75293458D02*
X140459524Y-75255363D01*
X140459524Y-75255363D02*
X140383334Y-75217268D01*
X140383334Y-75217268D02*
X140192858Y-75217268D01*
X140192858Y-75217268D02*
X140116667Y-75255363D01*
X140116667Y-75255363D02*
X140078572Y-75293458D01*
X140078572Y-75293458D02*
X140040477Y-75369649D01*
X140040477Y-75369649D02*
X140040477Y-75445839D01*
X140040477Y-75445839D02*
X140078572Y-75560125D01*
X140078572Y-75560125D02*
X140535715Y-76017268D01*
X140535715Y-76017268D02*
X140040477Y-76017268D01*
X139316667Y-75217268D02*
X139697619Y-75217268D01*
X139697619Y-75217268D02*
X139735715Y-75598220D01*
X139735715Y-75598220D02*
X139697619Y-75560125D01*
X139697619Y-75560125D02*
X139621429Y-75522030D01*
X139621429Y-75522030D02*
X139430953Y-75522030D01*
X139430953Y-75522030D02*
X139354762Y-75560125D01*
X139354762Y-75560125D02*
X139316667Y-75598220D01*
X139316667Y-75598220D02*
X139278572Y-75674411D01*
X139278572Y-75674411D02*
X139278572Y-75864887D01*
X139278572Y-75864887D02*
X139316667Y-75941077D01*
X139316667Y-75941077D02*
X139354762Y-75979173D01*
X139354762Y-75979173D02*
X139430953Y-76017268D01*
X139430953Y-76017268D02*
X139621429Y-76017268D01*
X139621429Y-76017268D02*
X139697619Y-75979173D01*
X139697619Y-75979173D02*
X139735715Y-75941077D01*
X138592857Y-75483934D02*
X138592857Y-76017268D01*
X138783333Y-75179173D02*
X138973810Y-75750601D01*
X138973810Y-75750601D02*
X138478571Y-75750601D01*
X146737555Y-70886759D02*
X146813745Y-70848664D01*
X146813745Y-70848664D02*
X146889936Y-70772474D01*
X146889936Y-70772474D02*
X147004222Y-70658188D01*
X147004222Y-70658188D02*
X147080412Y-70620093D01*
X147080412Y-70620093D02*
X147156603Y-70620093D01*
X147118507Y-70810569D02*
X147194698Y-70772474D01*
X147194698Y-70772474D02*
X147270888Y-70696283D01*
X147270888Y-70696283D02*
X147308984Y-70543902D01*
X147308984Y-70543902D02*
X147308984Y-70277235D01*
X147308984Y-70277235D02*
X147270888Y-70124854D01*
X147270888Y-70124854D02*
X147194698Y-70048664D01*
X147194698Y-70048664D02*
X147118507Y-70010569D01*
X147118507Y-70010569D02*
X146966126Y-70010569D01*
X146966126Y-70010569D02*
X146889936Y-70048664D01*
X146889936Y-70048664D02*
X146813745Y-70124854D01*
X146813745Y-70124854D02*
X146775650Y-70277235D01*
X146775650Y-70277235D02*
X146775650Y-70543902D01*
X146775650Y-70543902D02*
X146813745Y-70696283D01*
X146813745Y-70696283D02*
X146889936Y-70772474D01*
X146889936Y-70772474D02*
X146966126Y-70810569D01*
X146966126Y-70810569D02*
X147118507Y-70810569D01*
X146508984Y-70010569D02*
X145975650Y-70010569D01*
X145975650Y-70010569D02*
X146318508Y-70810569D01*
X145518507Y-70010569D02*
X145442317Y-70010569D01*
X145442317Y-70010569D02*
X145366126Y-70048664D01*
X145366126Y-70048664D02*
X145328031Y-70086759D01*
X145328031Y-70086759D02*
X145289936Y-70162950D01*
X145289936Y-70162950D02*
X145251841Y-70315331D01*
X145251841Y-70315331D02*
X145251841Y-70505807D01*
X145251841Y-70505807D02*
X145289936Y-70658188D01*
X145289936Y-70658188D02*
X145328031Y-70734378D01*
X145328031Y-70734378D02*
X145366126Y-70772474D01*
X145366126Y-70772474D02*
X145442317Y-70810569D01*
X145442317Y-70810569D02*
X145518507Y-70810569D01*
X145518507Y-70810569D02*
X145594698Y-70772474D01*
X145594698Y-70772474D02*
X145632793Y-70734378D01*
X145632793Y-70734378D02*
X145670888Y-70658188D01*
X145670888Y-70658188D02*
X145708984Y-70505807D01*
X145708984Y-70505807D02*
X145708984Y-70315331D01*
X145708984Y-70315331D02*
X145670888Y-70162950D01*
X145670888Y-70162950D02*
X145632793Y-70086759D01*
X145632793Y-70086759D02*
X145594698Y-70048664D01*
X145594698Y-70048664D02*
X145518507Y-70010569D01*
X144489936Y-70810569D02*
X144947079Y-70810569D01*
X144718507Y-70810569D02*
X144718507Y-70010569D01*
X144718507Y-70010569D02*
X144794698Y-70124854D01*
X144794698Y-70124854D02*
X144870888Y-70201045D01*
X144870888Y-70201045D02*
X144947079Y-70239140D01*
X147495778Y-66448219D02*
X147762445Y-66067266D01*
X147952921Y-66448219D02*
X147952921Y-65648219D01*
X147952921Y-65648219D02*
X147648159Y-65648219D01*
X147648159Y-65648219D02*
X147571969Y-65686314D01*
X147571969Y-65686314D02*
X147533874Y-65724409D01*
X147533874Y-65724409D02*
X147495778Y-65800600D01*
X147495778Y-65800600D02*
X147495778Y-65914885D01*
X147495778Y-65914885D02*
X147533874Y-65991076D01*
X147533874Y-65991076D02*
X147571969Y-66029171D01*
X147571969Y-66029171D02*
X147648159Y-66067266D01*
X147648159Y-66067266D02*
X147952921Y-66067266D01*
X147191017Y-65724409D02*
X147152921Y-65686314D01*
X147152921Y-65686314D02*
X147076731Y-65648219D01*
X147076731Y-65648219D02*
X146886255Y-65648219D01*
X146886255Y-65648219D02*
X146810064Y-65686314D01*
X146810064Y-65686314D02*
X146771969Y-65724409D01*
X146771969Y-65724409D02*
X146733874Y-65800600D01*
X146733874Y-65800600D02*
X146733874Y-65876790D01*
X146733874Y-65876790D02*
X146771969Y-65991076D01*
X146771969Y-65991076D02*
X147229112Y-66448219D01*
X147229112Y-66448219D02*
X146733874Y-66448219D01*
X146429112Y-65724409D02*
X146391016Y-65686314D01*
X146391016Y-65686314D02*
X146314826Y-65648219D01*
X146314826Y-65648219D02*
X146124350Y-65648219D01*
X146124350Y-65648219D02*
X146048159Y-65686314D01*
X146048159Y-65686314D02*
X146010064Y-65724409D01*
X146010064Y-65724409D02*
X145971969Y-65800600D01*
X145971969Y-65800600D02*
X145971969Y-65876790D01*
X145971969Y-65876790D02*
X146010064Y-65991076D01*
X146010064Y-65991076D02*
X146467207Y-66448219D01*
X146467207Y-66448219D02*
X145971969Y-66448219D01*
X145705302Y-65648219D02*
X145210064Y-65648219D01*
X145210064Y-65648219D02*
X145476730Y-65952981D01*
X145476730Y-65952981D02*
X145362445Y-65952981D01*
X145362445Y-65952981D02*
X145286254Y-65991076D01*
X145286254Y-65991076D02*
X145248159Y-66029171D01*
X145248159Y-66029171D02*
X145210064Y-66105362D01*
X145210064Y-66105362D02*
X145210064Y-66295838D01*
X145210064Y-66295838D02*
X145248159Y-66372028D01*
X145248159Y-66372028D02*
X145286254Y-66410124D01*
X145286254Y-66410124D02*
X145362445Y-66448219D01*
X145362445Y-66448219D02*
X145591016Y-66448219D01*
X145591016Y-66448219D02*
X145667207Y-66410124D01*
X145667207Y-66410124D02*
X145705302Y-66372028D01*
X144714825Y-65648219D02*
X144638635Y-65648219D01*
X144638635Y-65648219D02*
X144562444Y-65686314D01*
X144562444Y-65686314D02*
X144524349Y-65724409D01*
X144524349Y-65724409D02*
X144486254Y-65800600D01*
X144486254Y-65800600D02*
X144448159Y-65952981D01*
X144448159Y-65952981D02*
X144448159Y-66143457D01*
X144448159Y-66143457D02*
X144486254Y-66295838D01*
X144486254Y-66295838D02*
X144524349Y-66372028D01*
X144524349Y-66372028D02*
X144562444Y-66410124D01*
X144562444Y-66410124D02*
X144638635Y-66448219D01*
X144638635Y-66448219D02*
X144714825Y-66448219D01*
X144714825Y-66448219D02*
X144791016Y-66410124D01*
X144791016Y-66410124D02*
X144829111Y-66372028D01*
X144829111Y-66372028D02*
X144867206Y-66295838D01*
X144867206Y-66295838D02*
X144905302Y-66143457D01*
X144905302Y-66143457D02*
X144905302Y-65952981D01*
X144905302Y-65952981D02*
X144867206Y-65800600D01*
X144867206Y-65800600D02*
X144829111Y-65724409D01*
X144829111Y-65724409D02*
X144791016Y-65686314D01*
X144791016Y-65686314D02*
X144714825Y-65648219D01*
X123945583Y-89298219D02*
X124212250Y-88917266D01*
X124402726Y-89298219D02*
X124402726Y-88498219D01*
X124402726Y-88498219D02*
X124097964Y-88498219D01*
X124097964Y-88498219D02*
X124021774Y-88536314D01*
X124021774Y-88536314D02*
X123983679Y-88574409D01*
X123983679Y-88574409D02*
X123945583Y-88650600D01*
X123945583Y-88650600D02*
X123945583Y-88764885D01*
X123945583Y-88764885D02*
X123983679Y-88841076D01*
X123983679Y-88841076D02*
X124021774Y-88879171D01*
X124021774Y-88879171D02*
X124097964Y-88917266D01*
X124097964Y-88917266D02*
X124402726Y-88917266D01*
X123640822Y-88574409D02*
X123602726Y-88536314D01*
X123602726Y-88536314D02*
X123526536Y-88498219D01*
X123526536Y-88498219D02*
X123336060Y-88498219D01*
X123336060Y-88498219D02*
X123259869Y-88536314D01*
X123259869Y-88536314D02*
X123221774Y-88574409D01*
X123221774Y-88574409D02*
X123183679Y-88650600D01*
X123183679Y-88650600D02*
X123183679Y-88726790D01*
X123183679Y-88726790D02*
X123221774Y-88841076D01*
X123221774Y-88841076D02*
X123678917Y-89298219D01*
X123678917Y-89298219D02*
X123183679Y-89298219D01*
X122878917Y-88574409D02*
X122840821Y-88536314D01*
X122840821Y-88536314D02*
X122764631Y-88498219D01*
X122764631Y-88498219D02*
X122574155Y-88498219D01*
X122574155Y-88498219D02*
X122497964Y-88536314D01*
X122497964Y-88536314D02*
X122459869Y-88574409D01*
X122459869Y-88574409D02*
X122421774Y-88650600D01*
X122421774Y-88650600D02*
X122421774Y-88726790D01*
X122421774Y-88726790D02*
X122459869Y-88841076D01*
X122459869Y-88841076D02*
X122917012Y-89298219D01*
X122917012Y-89298219D02*
X122421774Y-89298219D01*
X122155107Y-88498219D02*
X121659869Y-88498219D01*
X121659869Y-88498219D02*
X121926535Y-88802981D01*
X121926535Y-88802981D02*
X121812250Y-88802981D01*
X121812250Y-88802981D02*
X121736059Y-88841076D01*
X121736059Y-88841076D02*
X121697964Y-88879171D01*
X121697964Y-88879171D02*
X121659869Y-88955362D01*
X121659869Y-88955362D02*
X121659869Y-89145838D01*
X121659869Y-89145838D02*
X121697964Y-89222028D01*
X121697964Y-89222028D02*
X121736059Y-89260124D01*
X121736059Y-89260124D02*
X121812250Y-89298219D01*
X121812250Y-89298219D02*
X122040821Y-89298219D01*
X122040821Y-89298219D02*
X122117012Y-89260124D01*
X122117012Y-89260124D02*
X122155107Y-89222028D01*
X121202726Y-88841076D02*
X121278916Y-88802981D01*
X121278916Y-88802981D02*
X121317011Y-88764885D01*
X121317011Y-88764885D02*
X121355107Y-88688695D01*
X121355107Y-88688695D02*
X121355107Y-88650600D01*
X121355107Y-88650600D02*
X121317011Y-88574409D01*
X121317011Y-88574409D02*
X121278916Y-88536314D01*
X121278916Y-88536314D02*
X121202726Y-88498219D01*
X121202726Y-88498219D02*
X121050345Y-88498219D01*
X121050345Y-88498219D02*
X120974154Y-88536314D01*
X120974154Y-88536314D02*
X120936059Y-88574409D01*
X120936059Y-88574409D02*
X120897964Y-88650600D01*
X120897964Y-88650600D02*
X120897964Y-88688695D01*
X120897964Y-88688695D02*
X120936059Y-88764885D01*
X120936059Y-88764885D02*
X120974154Y-88802981D01*
X120974154Y-88802981D02*
X121050345Y-88841076D01*
X121050345Y-88841076D02*
X121202726Y-88841076D01*
X121202726Y-88841076D02*
X121278916Y-88879171D01*
X121278916Y-88879171D02*
X121317011Y-88917266D01*
X121317011Y-88917266D02*
X121355107Y-88993457D01*
X121355107Y-88993457D02*
X121355107Y-89145838D01*
X121355107Y-89145838D02*
X121317011Y-89222028D01*
X121317011Y-89222028D02*
X121278916Y-89260124D01*
X121278916Y-89260124D02*
X121202726Y-89298219D01*
X121202726Y-89298219D02*
X121050345Y-89298219D01*
X121050345Y-89298219D02*
X120974154Y-89260124D01*
X120974154Y-89260124D02*
X120936059Y-89222028D01*
X120936059Y-89222028D02*
X120897964Y-89145838D01*
X120897964Y-89145838D02*
X120897964Y-88993457D01*
X120897964Y-88993457D02*
X120936059Y-88917266D01*
X120936059Y-88917266D02*
X120974154Y-88879171D01*
X120974154Y-88879171D02*
X121050345Y-88841076D01*
X129295238Y-74598443D02*
X129561905Y-74217490D01*
X129752381Y-74598443D02*
X129752381Y-73798443D01*
X129752381Y-73798443D02*
X129447619Y-73798443D01*
X129447619Y-73798443D02*
X129371429Y-73836538D01*
X129371429Y-73836538D02*
X129333334Y-73874633D01*
X129333334Y-73874633D02*
X129295238Y-73950824D01*
X129295238Y-73950824D02*
X129295238Y-74065109D01*
X129295238Y-74065109D02*
X129333334Y-74141300D01*
X129333334Y-74141300D02*
X129371429Y-74179395D01*
X129371429Y-74179395D02*
X129447619Y-74217490D01*
X129447619Y-74217490D02*
X129752381Y-74217490D01*
X128990477Y-73874633D02*
X128952381Y-73836538D01*
X128952381Y-73836538D02*
X128876191Y-73798443D01*
X128876191Y-73798443D02*
X128685715Y-73798443D01*
X128685715Y-73798443D02*
X128609524Y-73836538D01*
X128609524Y-73836538D02*
X128571429Y-73874633D01*
X128571429Y-73874633D02*
X128533334Y-73950824D01*
X128533334Y-73950824D02*
X128533334Y-74027014D01*
X128533334Y-74027014D02*
X128571429Y-74141300D01*
X128571429Y-74141300D02*
X129028572Y-74598443D01*
X129028572Y-74598443D02*
X128533334Y-74598443D01*
X128228572Y-73874633D02*
X128190476Y-73836538D01*
X128190476Y-73836538D02*
X128114286Y-73798443D01*
X128114286Y-73798443D02*
X127923810Y-73798443D01*
X127923810Y-73798443D02*
X127847619Y-73836538D01*
X127847619Y-73836538D02*
X127809524Y-73874633D01*
X127809524Y-73874633D02*
X127771429Y-73950824D01*
X127771429Y-73950824D02*
X127771429Y-74027014D01*
X127771429Y-74027014D02*
X127809524Y-74141300D01*
X127809524Y-74141300D02*
X128266667Y-74598443D01*
X128266667Y-74598443D02*
X127771429Y-74598443D01*
X127504762Y-73798443D02*
X127009524Y-73798443D01*
X127009524Y-73798443D02*
X127276190Y-74103205D01*
X127276190Y-74103205D02*
X127161905Y-74103205D01*
X127161905Y-74103205D02*
X127085714Y-74141300D01*
X127085714Y-74141300D02*
X127047619Y-74179395D01*
X127047619Y-74179395D02*
X127009524Y-74255586D01*
X127009524Y-74255586D02*
X127009524Y-74446062D01*
X127009524Y-74446062D02*
X127047619Y-74522252D01*
X127047619Y-74522252D02*
X127085714Y-74560348D01*
X127085714Y-74560348D02*
X127161905Y-74598443D01*
X127161905Y-74598443D02*
X127390476Y-74598443D01*
X127390476Y-74598443D02*
X127466667Y-74560348D01*
X127466667Y-74560348D02*
X127504762Y-74522252D01*
X126247619Y-74598443D02*
X126704762Y-74598443D01*
X126476190Y-74598443D02*
X126476190Y-73798443D01*
X126476190Y-73798443D02*
X126552381Y-73912728D01*
X126552381Y-73912728D02*
X126628571Y-73988919D01*
X126628571Y-73988919D02*
X126704762Y-74027014D01*
X162252726Y-93848440D02*
X162252726Y-93048440D01*
X162252726Y-93048440D02*
X162062250Y-93048440D01*
X162062250Y-93048440D02*
X161947964Y-93086535D01*
X161947964Y-93086535D02*
X161871774Y-93162725D01*
X161871774Y-93162725D02*
X161833679Y-93238916D01*
X161833679Y-93238916D02*
X161795583Y-93391297D01*
X161795583Y-93391297D02*
X161795583Y-93505583D01*
X161795583Y-93505583D02*
X161833679Y-93657964D01*
X161833679Y-93657964D02*
X161871774Y-93734154D01*
X161871774Y-93734154D02*
X161947964Y-93810345D01*
X161947964Y-93810345D02*
X162062250Y-93848440D01*
X162062250Y-93848440D02*
X162252726Y-93848440D01*
X161490822Y-93124630D02*
X161452726Y-93086535D01*
X161452726Y-93086535D02*
X161376536Y-93048440D01*
X161376536Y-93048440D02*
X161186060Y-93048440D01*
X161186060Y-93048440D02*
X161109869Y-93086535D01*
X161109869Y-93086535D02*
X161071774Y-93124630D01*
X161071774Y-93124630D02*
X161033679Y-93200821D01*
X161033679Y-93200821D02*
X161033679Y-93277011D01*
X161033679Y-93277011D02*
X161071774Y-93391297D01*
X161071774Y-93391297D02*
X161528917Y-93848440D01*
X161528917Y-93848440D02*
X161033679Y-93848440D01*
X160728917Y-93124630D02*
X160690821Y-93086535D01*
X160690821Y-93086535D02*
X160614631Y-93048440D01*
X160614631Y-93048440D02*
X160424155Y-93048440D01*
X160424155Y-93048440D02*
X160347964Y-93086535D01*
X160347964Y-93086535D02*
X160309869Y-93124630D01*
X160309869Y-93124630D02*
X160271774Y-93200821D01*
X160271774Y-93200821D02*
X160271774Y-93277011D01*
X160271774Y-93277011D02*
X160309869Y-93391297D01*
X160309869Y-93391297D02*
X160767012Y-93848440D01*
X160767012Y-93848440D02*
X160271774Y-93848440D01*
X159776535Y-93048440D02*
X159700345Y-93048440D01*
X159700345Y-93048440D02*
X159624154Y-93086535D01*
X159624154Y-93086535D02*
X159586059Y-93124630D01*
X159586059Y-93124630D02*
X159547964Y-93200821D01*
X159547964Y-93200821D02*
X159509869Y-93353202D01*
X159509869Y-93353202D02*
X159509869Y-93543678D01*
X159509869Y-93543678D02*
X159547964Y-93696059D01*
X159547964Y-93696059D02*
X159586059Y-93772249D01*
X159586059Y-93772249D02*
X159624154Y-93810345D01*
X159624154Y-93810345D02*
X159700345Y-93848440D01*
X159700345Y-93848440D02*
X159776535Y-93848440D01*
X159776535Y-93848440D02*
X159852726Y-93810345D01*
X159852726Y-93810345D02*
X159890821Y-93772249D01*
X159890821Y-93772249D02*
X159928916Y-93696059D01*
X159928916Y-93696059D02*
X159967012Y-93543678D01*
X159967012Y-93543678D02*
X159967012Y-93353202D01*
X159967012Y-93353202D02*
X159928916Y-93200821D01*
X159928916Y-93200821D02*
X159890821Y-93124630D01*
X159890821Y-93124630D02*
X159852726Y-93086535D01*
X159852726Y-93086535D02*
X159776535Y-93048440D01*
X159205107Y-93124630D02*
X159167011Y-93086535D01*
X159167011Y-93086535D02*
X159090821Y-93048440D01*
X159090821Y-93048440D02*
X158900345Y-93048440D01*
X158900345Y-93048440D02*
X158824154Y-93086535D01*
X158824154Y-93086535D02*
X158786059Y-93124630D01*
X158786059Y-93124630D02*
X158747964Y-93200821D01*
X158747964Y-93200821D02*
X158747964Y-93277011D01*
X158747964Y-93277011D02*
X158786059Y-93391297D01*
X158786059Y-93391297D02*
X159243202Y-93848440D01*
X159243202Y-93848440D02*
X158747964Y-93848440D01*
X113998219Y-80104221D02*
X113617266Y-79837554D01*
X113998219Y-79647078D02*
X113198219Y-79647078D01*
X113198219Y-79647078D02*
X113198219Y-79951840D01*
X113198219Y-79951840D02*
X113236314Y-80028030D01*
X113236314Y-80028030D02*
X113274409Y-80066125D01*
X113274409Y-80066125D02*
X113350600Y-80104221D01*
X113350600Y-80104221D02*
X113464885Y-80104221D01*
X113464885Y-80104221D02*
X113541076Y-80066125D01*
X113541076Y-80066125D02*
X113579171Y-80028030D01*
X113579171Y-80028030D02*
X113617266Y-79951840D01*
X113617266Y-79951840D02*
X113617266Y-79647078D01*
X113274409Y-80408982D02*
X113236314Y-80447078D01*
X113236314Y-80447078D02*
X113198219Y-80523268D01*
X113198219Y-80523268D02*
X113198219Y-80713744D01*
X113198219Y-80713744D02*
X113236314Y-80789935D01*
X113236314Y-80789935D02*
X113274409Y-80828030D01*
X113274409Y-80828030D02*
X113350600Y-80866125D01*
X113350600Y-80866125D02*
X113426790Y-80866125D01*
X113426790Y-80866125D02*
X113541076Y-80828030D01*
X113541076Y-80828030D02*
X113998219Y-80370887D01*
X113998219Y-80370887D02*
X113998219Y-80866125D01*
X113274409Y-81170887D02*
X113236314Y-81208983D01*
X113236314Y-81208983D02*
X113198219Y-81285173D01*
X113198219Y-81285173D02*
X113198219Y-81475649D01*
X113198219Y-81475649D02*
X113236314Y-81551840D01*
X113236314Y-81551840D02*
X113274409Y-81589935D01*
X113274409Y-81589935D02*
X113350600Y-81628030D01*
X113350600Y-81628030D02*
X113426790Y-81628030D01*
X113426790Y-81628030D02*
X113541076Y-81589935D01*
X113541076Y-81589935D02*
X113998219Y-81132792D01*
X113998219Y-81132792D02*
X113998219Y-81628030D01*
X113198219Y-82123269D02*
X113198219Y-82199459D01*
X113198219Y-82199459D02*
X113236314Y-82275650D01*
X113236314Y-82275650D02*
X113274409Y-82313745D01*
X113274409Y-82313745D02*
X113350600Y-82351840D01*
X113350600Y-82351840D02*
X113502981Y-82389935D01*
X113502981Y-82389935D02*
X113693457Y-82389935D01*
X113693457Y-82389935D02*
X113845838Y-82351840D01*
X113845838Y-82351840D02*
X113922028Y-82313745D01*
X113922028Y-82313745D02*
X113960124Y-82275650D01*
X113960124Y-82275650D02*
X113998219Y-82199459D01*
X113998219Y-82199459D02*
X113998219Y-82123269D01*
X113998219Y-82123269D02*
X113960124Y-82047078D01*
X113960124Y-82047078D02*
X113922028Y-82008983D01*
X113922028Y-82008983D02*
X113845838Y-81970888D01*
X113845838Y-81970888D02*
X113693457Y-81932792D01*
X113693457Y-81932792D02*
X113502981Y-81932792D01*
X113502981Y-81932792D02*
X113350600Y-81970888D01*
X113350600Y-81970888D02*
X113274409Y-82008983D01*
X113274409Y-82008983D02*
X113236314Y-82047078D01*
X113236314Y-82047078D02*
X113198219Y-82123269D01*
X113198219Y-82885174D02*
X113198219Y-82961364D01*
X113198219Y-82961364D02*
X113236314Y-83037555D01*
X113236314Y-83037555D02*
X113274409Y-83075650D01*
X113274409Y-83075650D02*
X113350600Y-83113745D01*
X113350600Y-83113745D02*
X113502981Y-83151840D01*
X113502981Y-83151840D02*
X113693457Y-83151840D01*
X113693457Y-83151840D02*
X113845838Y-83113745D01*
X113845838Y-83113745D02*
X113922028Y-83075650D01*
X113922028Y-83075650D02*
X113960124Y-83037555D01*
X113960124Y-83037555D02*
X113998219Y-82961364D01*
X113998219Y-82961364D02*
X113998219Y-82885174D01*
X113998219Y-82885174D02*
X113960124Y-82808983D01*
X113960124Y-82808983D02*
X113922028Y-82770888D01*
X113922028Y-82770888D02*
X113845838Y-82732793D01*
X113845838Y-82732793D02*
X113693457Y-82694697D01*
X113693457Y-82694697D02*
X113502981Y-82694697D01*
X113502981Y-82694697D02*
X113350600Y-82732793D01*
X113350600Y-82732793D02*
X113274409Y-82770888D01*
X113274409Y-82770888D02*
X113236314Y-82808983D01*
X113236314Y-82808983D02*
X113198219Y-82885174D01*
X118117488Y-87309868D02*
X118765107Y-87309868D01*
X118765107Y-87309868D02*
X118841297Y-87347963D01*
X118841297Y-87347963D02*
X118879393Y-87386058D01*
X118879393Y-87386058D02*
X118917488Y-87462249D01*
X118917488Y-87462249D02*
X118917488Y-87614630D01*
X118917488Y-87614630D02*
X118879393Y-87690820D01*
X118879393Y-87690820D02*
X118841297Y-87728915D01*
X118841297Y-87728915D02*
X118765107Y-87767011D01*
X118765107Y-87767011D02*
X118117488Y-87767011D01*
X118193678Y-88109867D02*
X118155583Y-88147963D01*
X118155583Y-88147963D02*
X118117488Y-88224153D01*
X118117488Y-88224153D02*
X118117488Y-88414629D01*
X118117488Y-88414629D02*
X118155583Y-88490820D01*
X118155583Y-88490820D02*
X118193678Y-88528915D01*
X118193678Y-88528915D02*
X118269869Y-88567010D01*
X118269869Y-88567010D02*
X118346059Y-88567010D01*
X118346059Y-88567010D02*
X118460345Y-88528915D01*
X118460345Y-88528915D02*
X118917488Y-88071772D01*
X118917488Y-88071772D02*
X118917488Y-88567010D01*
X118193678Y-88871772D02*
X118155583Y-88909868D01*
X118155583Y-88909868D02*
X118117488Y-88986058D01*
X118117488Y-88986058D02*
X118117488Y-89176534D01*
X118117488Y-89176534D02*
X118155583Y-89252725D01*
X118155583Y-89252725D02*
X118193678Y-89290820D01*
X118193678Y-89290820D02*
X118269869Y-89328915D01*
X118269869Y-89328915D02*
X118346059Y-89328915D01*
X118346059Y-89328915D02*
X118460345Y-89290820D01*
X118460345Y-89290820D02*
X118917488Y-88833677D01*
X118917488Y-88833677D02*
X118917488Y-89328915D01*
X118117488Y-89824154D02*
X118117488Y-89900344D01*
X118117488Y-89900344D02*
X118155583Y-89976535D01*
X118155583Y-89976535D02*
X118193678Y-90014630D01*
X118193678Y-90014630D02*
X118269869Y-90052725D01*
X118269869Y-90052725D02*
X118422250Y-90090820D01*
X118422250Y-90090820D02*
X118612726Y-90090820D01*
X118612726Y-90090820D02*
X118765107Y-90052725D01*
X118765107Y-90052725D02*
X118841297Y-90014630D01*
X118841297Y-90014630D02*
X118879393Y-89976535D01*
X118879393Y-89976535D02*
X118917488Y-89900344D01*
X118917488Y-89900344D02*
X118917488Y-89824154D01*
X118917488Y-89824154D02*
X118879393Y-89747963D01*
X118879393Y-89747963D02*
X118841297Y-89709868D01*
X118841297Y-89709868D02*
X118765107Y-89671773D01*
X118765107Y-89671773D02*
X118612726Y-89633677D01*
X118612726Y-89633677D02*
X118422250Y-89633677D01*
X118422250Y-89633677D02*
X118269869Y-89671773D01*
X118269869Y-89671773D02*
X118193678Y-89709868D01*
X118193678Y-89709868D02*
X118155583Y-89747963D01*
X118155583Y-89747963D02*
X118117488Y-89824154D01*
X118384154Y-90776535D02*
X118917488Y-90776535D01*
X118079393Y-90586059D02*
X118650821Y-90395582D01*
X118650821Y-90395582D02*
X118650821Y-90890821D01*
X131295582Y-89998219D02*
X131562249Y-89617266D01*
X131752725Y-89998219D02*
X131752725Y-89198219D01*
X131752725Y-89198219D02*
X131447963Y-89198219D01*
X131447963Y-89198219D02*
X131371773Y-89236314D01*
X131371773Y-89236314D02*
X131333678Y-89274409D01*
X131333678Y-89274409D02*
X131295582Y-89350600D01*
X131295582Y-89350600D02*
X131295582Y-89464885D01*
X131295582Y-89464885D02*
X131333678Y-89541076D01*
X131333678Y-89541076D02*
X131371773Y-89579171D01*
X131371773Y-89579171D02*
X131447963Y-89617266D01*
X131447963Y-89617266D02*
X131752725Y-89617266D01*
X130990821Y-89274409D02*
X130952725Y-89236314D01*
X130952725Y-89236314D02*
X130876535Y-89198219D01*
X130876535Y-89198219D02*
X130686059Y-89198219D01*
X130686059Y-89198219D02*
X130609868Y-89236314D01*
X130609868Y-89236314D02*
X130571773Y-89274409D01*
X130571773Y-89274409D02*
X130533678Y-89350600D01*
X130533678Y-89350600D02*
X130533678Y-89426790D01*
X130533678Y-89426790D02*
X130571773Y-89541076D01*
X130571773Y-89541076D02*
X131028916Y-89998219D01*
X131028916Y-89998219D02*
X130533678Y-89998219D01*
X130228916Y-89274409D02*
X130190820Y-89236314D01*
X130190820Y-89236314D02*
X130114630Y-89198219D01*
X130114630Y-89198219D02*
X129924154Y-89198219D01*
X129924154Y-89198219D02*
X129847963Y-89236314D01*
X129847963Y-89236314D02*
X129809868Y-89274409D01*
X129809868Y-89274409D02*
X129771773Y-89350600D01*
X129771773Y-89350600D02*
X129771773Y-89426790D01*
X129771773Y-89426790D02*
X129809868Y-89541076D01*
X129809868Y-89541076D02*
X130267011Y-89998219D01*
X130267011Y-89998219D02*
X129771773Y-89998219D01*
X129505106Y-89198219D02*
X129009868Y-89198219D01*
X129009868Y-89198219D02*
X129276534Y-89502981D01*
X129276534Y-89502981D02*
X129162249Y-89502981D01*
X129162249Y-89502981D02*
X129086058Y-89541076D01*
X129086058Y-89541076D02*
X129047963Y-89579171D01*
X129047963Y-89579171D02*
X129009868Y-89655362D01*
X129009868Y-89655362D02*
X129009868Y-89845838D01*
X129009868Y-89845838D02*
X129047963Y-89922028D01*
X129047963Y-89922028D02*
X129086058Y-89960124D01*
X129086058Y-89960124D02*
X129162249Y-89998219D01*
X129162249Y-89998219D02*
X129390820Y-89998219D01*
X129390820Y-89998219D02*
X129467011Y-89960124D01*
X129467011Y-89960124D02*
X129505106Y-89922028D01*
X128324153Y-89198219D02*
X128476534Y-89198219D01*
X128476534Y-89198219D02*
X128552725Y-89236314D01*
X128552725Y-89236314D02*
X128590820Y-89274409D01*
X128590820Y-89274409D02*
X128667010Y-89388695D01*
X128667010Y-89388695D02*
X128705106Y-89541076D01*
X128705106Y-89541076D02*
X128705106Y-89845838D01*
X128705106Y-89845838D02*
X128667010Y-89922028D01*
X128667010Y-89922028D02*
X128628915Y-89960124D01*
X128628915Y-89960124D02*
X128552725Y-89998219D01*
X128552725Y-89998219D02*
X128400344Y-89998219D01*
X128400344Y-89998219D02*
X128324153Y-89960124D01*
X128324153Y-89960124D02*
X128286058Y-89922028D01*
X128286058Y-89922028D02*
X128247963Y-89845838D01*
X128247963Y-89845838D02*
X128247963Y-89655362D01*
X128247963Y-89655362D02*
X128286058Y-89579171D01*
X128286058Y-89579171D02*
X128324153Y-89541076D01*
X128324153Y-89541076D02*
X128400344Y-89502981D01*
X128400344Y-89502981D02*
X128552725Y-89502981D01*
X128552725Y-89502981D02*
X128628915Y-89541076D01*
X128628915Y-89541076D02*
X128667010Y-89579171D01*
X128667010Y-89579171D02*
X128705106Y-89655362D01*
X160898315Y-65704417D02*
X160517362Y-65437750D01*
X160898315Y-65247274D02*
X160098315Y-65247274D01*
X160098315Y-65247274D02*
X160098315Y-65552036D01*
X160098315Y-65552036D02*
X160136410Y-65628226D01*
X160136410Y-65628226D02*
X160174505Y-65666321D01*
X160174505Y-65666321D02*
X160250696Y-65704417D01*
X160250696Y-65704417D02*
X160364981Y-65704417D01*
X160364981Y-65704417D02*
X160441172Y-65666321D01*
X160441172Y-65666321D02*
X160479267Y-65628226D01*
X160479267Y-65628226D02*
X160517362Y-65552036D01*
X160517362Y-65552036D02*
X160517362Y-65247274D01*
X160174505Y-66009178D02*
X160136410Y-66047274D01*
X160136410Y-66047274D02*
X160098315Y-66123464D01*
X160098315Y-66123464D02*
X160098315Y-66313940D01*
X160098315Y-66313940D02*
X160136410Y-66390131D01*
X160136410Y-66390131D02*
X160174505Y-66428226D01*
X160174505Y-66428226D02*
X160250696Y-66466321D01*
X160250696Y-66466321D02*
X160326886Y-66466321D01*
X160326886Y-66466321D02*
X160441172Y-66428226D01*
X160441172Y-66428226D02*
X160898315Y-65971083D01*
X160898315Y-65971083D02*
X160898315Y-66466321D01*
X160174505Y-66771083D02*
X160136410Y-66809179D01*
X160136410Y-66809179D02*
X160098315Y-66885369D01*
X160098315Y-66885369D02*
X160098315Y-67075845D01*
X160098315Y-67075845D02*
X160136410Y-67152036D01*
X160136410Y-67152036D02*
X160174505Y-67190131D01*
X160174505Y-67190131D02*
X160250696Y-67228226D01*
X160250696Y-67228226D02*
X160326886Y-67228226D01*
X160326886Y-67228226D02*
X160441172Y-67190131D01*
X160441172Y-67190131D02*
X160898315Y-66732988D01*
X160898315Y-66732988D02*
X160898315Y-67228226D01*
X160098315Y-67952036D02*
X160098315Y-67571084D01*
X160098315Y-67571084D02*
X160479267Y-67532988D01*
X160479267Y-67532988D02*
X160441172Y-67571084D01*
X160441172Y-67571084D02*
X160403077Y-67647274D01*
X160403077Y-67647274D02*
X160403077Y-67837750D01*
X160403077Y-67837750D02*
X160441172Y-67913941D01*
X160441172Y-67913941D02*
X160479267Y-67952036D01*
X160479267Y-67952036D02*
X160555458Y-67990131D01*
X160555458Y-67990131D02*
X160745934Y-67990131D01*
X160745934Y-67990131D02*
X160822124Y-67952036D01*
X160822124Y-67952036D02*
X160860220Y-67913941D01*
X160860220Y-67913941D02*
X160898315Y-67837750D01*
X160898315Y-67837750D02*
X160898315Y-67647274D01*
X160898315Y-67647274D02*
X160860220Y-67571084D01*
X160860220Y-67571084D02*
X160822124Y-67532988D01*
X160098315Y-68713941D02*
X160098315Y-68332989D01*
X160098315Y-68332989D02*
X160479267Y-68294893D01*
X160479267Y-68294893D02*
X160441172Y-68332989D01*
X160441172Y-68332989D02*
X160403077Y-68409179D01*
X160403077Y-68409179D02*
X160403077Y-68599655D01*
X160403077Y-68599655D02*
X160441172Y-68675846D01*
X160441172Y-68675846D02*
X160479267Y-68713941D01*
X160479267Y-68713941D02*
X160555458Y-68752036D01*
X160555458Y-68752036D02*
X160745934Y-68752036D01*
X160745934Y-68752036D02*
X160822124Y-68713941D01*
X160822124Y-68713941D02*
X160860220Y-68675846D01*
X160860220Y-68675846D02*
X160898315Y-68599655D01*
X160898315Y-68599655D02*
X160898315Y-68409179D01*
X160898315Y-68409179D02*
X160860220Y-68332989D01*
X160860220Y-68332989D02*
X160822124Y-68294893D01*
X116979313Y-93674735D02*
X116948361Y-93636640D01*
X116948361Y-93636640D02*
X116886456Y-93598545D01*
X116886456Y-93598545D02*
X116731694Y-93598545D01*
X116731694Y-93598545D02*
X116669789Y-93636640D01*
X116669789Y-93636640D02*
X116638837Y-93674735D01*
X116638837Y-93674735D02*
X116607884Y-93750926D01*
X116607884Y-93750926D02*
X116607884Y-93827116D01*
X116607884Y-93827116D02*
X116638837Y-93941402D01*
X116638837Y-93941402D02*
X117010265Y-94398545D01*
X117010265Y-94398545D02*
X116607884Y-94398545D01*
X115988836Y-94398545D02*
X116360265Y-94398545D01*
X116174551Y-94398545D02*
X116174551Y-93598545D01*
X116174551Y-93598545D02*
X116236455Y-93712830D01*
X116236455Y-93712830D02*
X116298360Y-93789021D01*
X116298360Y-93789021D02*
X116360265Y-93827116D01*
X158152381Y-69148663D02*
X158152381Y-68348663D01*
X158152381Y-68348663D02*
X157961905Y-68348663D01*
X157961905Y-68348663D02*
X157847619Y-68386758D01*
X157847619Y-68386758D02*
X157771429Y-68462948D01*
X157771429Y-68462948D02*
X157733334Y-68539139D01*
X157733334Y-68539139D02*
X157695238Y-68691520D01*
X157695238Y-68691520D02*
X157695238Y-68805806D01*
X157695238Y-68805806D02*
X157733334Y-68958187D01*
X157733334Y-68958187D02*
X157771429Y-69034377D01*
X157771429Y-69034377D02*
X157847619Y-69110568D01*
X157847619Y-69110568D02*
X157961905Y-69148663D01*
X157961905Y-69148663D02*
X158152381Y-69148663D01*
X157390477Y-68424853D02*
X157352381Y-68386758D01*
X157352381Y-68386758D02*
X157276191Y-68348663D01*
X157276191Y-68348663D02*
X157085715Y-68348663D01*
X157085715Y-68348663D02*
X157009524Y-68386758D01*
X157009524Y-68386758D02*
X156971429Y-68424853D01*
X156971429Y-68424853D02*
X156933334Y-68501044D01*
X156933334Y-68501044D02*
X156933334Y-68577234D01*
X156933334Y-68577234D02*
X156971429Y-68691520D01*
X156971429Y-68691520D02*
X157428572Y-69148663D01*
X157428572Y-69148663D02*
X156933334Y-69148663D01*
X156628572Y-68424853D02*
X156590476Y-68386758D01*
X156590476Y-68386758D02*
X156514286Y-68348663D01*
X156514286Y-68348663D02*
X156323810Y-68348663D01*
X156323810Y-68348663D02*
X156247619Y-68386758D01*
X156247619Y-68386758D02*
X156209524Y-68424853D01*
X156209524Y-68424853D02*
X156171429Y-68501044D01*
X156171429Y-68501044D02*
X156171429Y-68577234D01*
X156171429Y-68577234D02*
X156209524Y-68691520D01*
X156209524Y-68691520D02*
X156666667Y-69148663D01*
X156666667Y-69148663D02*
X156171429Y-69148663D01*
X155676190Y-68348663D02*
X155600000Y-68348663D01*
X155600000Y-68348663D02*
X155523809Y-68386758D01*
X155523809Y-68386758D02*
X155485714Y-68424853D01*
X155485714Y-68424853D02*
X155447619Y-68501044D01*
X155447619Y-68501044D02*
X155409524Y-68653425D01*
X155409524Y-68653425D02*
X155409524Y-68843901D01*
X155409524Y-68843901D02*
X155447619Y-68996282D01*
X155447619Y-68996282D02*
X155485714Y-69072472D01*
X155485714Y-69072472D02*
X155523809Y-69110568D01*
X155523809Y-69110568D02*
X155600000Y-69148663D01*
X155600000Y-69148663D02*
X155676190Y-69148663D01*
X155676190Y-69148663D02*
X155752381Y-69110568D01*
X155752381Y-69110568D02*
X155790476Y-69072472D01*
X155790476Y-69072472D02*
X155828571Y-68996282D01*
X155828571Y-68996282D02*
X155866667Y-68843901D01*
X155866667Y-68843901D02*
X155866667Y-68653425D01*
X155866667Y-68653425D02*
X155828571Y-68501044D01*
X155828571Y-68501044D02*
X155790476Y-68424853D01*
X155790476Y-68424853D02*
X155752381Y-68386758D01*
X155752381Y-68386758D02*
X155676190Y-68348663D01*
X154647619Y-69148663D02*
X155104762Y-69148663D01*
X154876190Y-69148663D02*
X154876190Y-68348663D01*
X154876190Y-68348663D02*
X154952381Y-68462948D01*
X154952381Y-68462948D02*
X155028571Y-68539139D01*
X155028571Y-68539139D02*
X155104762Y-68577234D01*
X149021084Y-63098664D02*
X149021084Y-63746283D01*
X149021084Y-63746283D02*
X148982989Y-63822473D01*
X148982989Y-63822473D02*
X148944894Y-63860569D01*
X148944894Y-63860569D02*
X148868703Y-63898664D01*
X148868703Y-63898664D02*
X148716322Y-63898664D01*
X148716322Y-63898664D02*
X148640132Y-63860569D01*
X148640132Y-63860569D02*
X148602037Y-63822473D01*
X148602037Y-63822473D02*
X148563941Y-63746283D01*
X148563941Y-63746283D02*
X148563941Y-63098664D01*
X148221085Y-63174854D02*
X148182989Y-63136759D01*
X148182989Y-63136759D02*
X148106799Y-63098664D01*
X148106799Y-63098664D02*
X147916323Y-63098664D01*
X147916323Y-63098664D02*
X147840132Y-63136759D01*
X147840132Y-63136759D02*
X147802037Y-63174854D01*
X147802037Y-63174854D02*
X147763942Y-63251045D01*
X147763942Y-63251045D02*
X147763942Y-63327235D01*
X147763942Y-63327235D02*
X147802037Y-63441521D01*
X147802037Y-63441521D02*
X148259180Y-63898664D01*
X148259180Y-63898664D02*
X147763942Y-63898664D01*
X147459180Y-63174854D02*
X147421084Y-63136759D01*
X147421084Y-63136759D02*
X147344894Y-63098664D01*
X147344894Y-63098664D02*
X147154418Y-63098664D01*
X147154418Y-63098664D02*
X147078227Y-63136759D01*
X147078227Y-63136759D02*
X147040132Y-63174854D01*
X147040132Y-63174854D02*
X147002037Y-63251045D01*
X147002037Y-63251045D02*
X147002037Y-63327235D01*
X147002037Y-63327235D02*
X147040132Y-63441521D01*
X147040132Y-63441521D02*
X147497275Y-63898664D01*
X147497275Y-63898664D02*
X147002037Y-63898664D01*
X146506798Y-63098664D02*
X146430608Y-63098664D01*
X146430608Y-63098664D02*
X146354417Y-63136759D01*
X146354417Y-63136759D02*
X146316322Y-63174854D01*
X146316322Y-63174854D02*
X146278227Y-63251045D01*
X146278227Y-63251045D02*
X146240132Y-63403426D01*
X146240132Y-63403426D02*
X146240132Y-63593902D01*
X146240132Y-63593902D02*
X146278227Y-63746283D01*
X146278227Y-63746283D02*
X146316322Y-63822473D01*
X146316322Y-63822473D02*
X146354417Y-63860569D01*
X146354417Y-63860569D02*
X146430608Y-63898664D01*
X146430608Y-63898664D02*
X146506798Y-63898664D01*
X146506798Y-63898664D02*
X146582989Y-63860569D01*
X146582989Y-63860569D02*
X146621084Y-63822473D01*
X146621084Y-63822473D02*
X146659179Y-63746283D01*
X146659179Y-63746283D02*
X146697275Y-63593902D01*
X146697275Y-63593902D02*
X146697275Y-63403426D01*
X146697275Y-63403426D02*
X146659179Y-63251045D01*
X146659179Y-63251045D02*
X146621084Y-63174854D01*
X146621084Y-63174854D02*
X146582989Y-63136759D01*
X146582989Y-63136759D02*
X146506798Y-63098664D01*
X145478227Y-63898664D02*
X145935370Y-63898664D01*
X145706798Y-63898664D02*
X145706798Y-63098664D01*
X145706798Y-63098664D02*
X145782989Y-63212949D01*
X145782989Y-63212949D02*
X145859179Y-63289140D01*
X145859179Y-63289140D02*
X145935370Y-63327235D01*
X133648535Y-83628571D02*
X134296154Y-83628571D01*
X134296154Y-83628571D02*
X134372344Y-83666666D01*
X134372344Y-83666666D02*
X134410440Y-83704761D01*
X134410440Y-83704761D02*
X134448535Y-83780952D01*
X134448535Y-83780952D02*
X134448535Y-83933333D01*
X134448535Y-83933333D02*
X134410440Y-84009523D01*
X134410440Y-84009523D02*
X134372344Y-84047618D01*
X134372344Y-84047618D02*
X134296154Y-84085714D01*
X134296154Y-84085714D02*
X133648535Y-84085714D01*
X133724725Y-84428570D02*
X133686630Y-84466666D01*
X133686630Y-84466666D02*
X133648535Y-84542856D01*
X133648535Y-84542856D02*
X133648535Y-84733332D01*
X133648535Y-84733332D02*
X133686630Y-84809523D01*
X133686630Y-84809523D02*
X133724725Y-84847618D01*
X133724725Y-84847618D02*
X133800916Y-84885713D01*
X133800916Y-84885713D02*
X133877106Y-84885713D01*
X133877106Y-84885713D02*
X133991392Y-84847618D01*
X133991392Y-84847618D02*
X134448535Y-84390475D01*
X134448535Y-84390475D02*
X134448535Y-84885713D01*
X133724725Y-85190475D02*
X133686630Y-85228571D01*
X133686630Y-85228571D02*
X133648535Y-85304761D01*
X133648535Y-85304761D02*
X133648535Y-85495237D01*
X133648535Y-85495237D02*
X133686630Y-85571428D01*
X133686630Y-85571428D02*
X133724725Y-85609523D01*
X133724725Y-85609523D02*
X133800916Y-85647618D01*
X133800916Y-85647618D02*
X133877106Y-85647618D01*
X133877106Y-85647618D02*
X133991392Y-85609523D01*
X133991392Y-85609523D02*
X134448535Y-85152380D01*
X134448535Y-85152380D02*
X134448535Y-85647618D01*
X133648535Y-86142857D02*
X133648535Y-86219047D01*
X133648535Y-86219047D02*
X133686630Y-86295238D01*
X133686630Y-86295238D02*
X133724725Y-86333333D01*
X133724725Y-86333333D02*
X133800916Y-86371428D01*
X133800916Y-86371428D02*
X133953297Y-86409523D01*
X133953297Y-86409523D02*
X134143773Y-86409523D01*
X134143773Y-86409523D02*
X134296154Y-86371428D01*
X134296154Y-86371428D02*
X134372344Y-86333333D01*
X134372344Y-86333333D02*
X134410440Y-86295238D01*
X134410440Y-86295238D02*
X134448535Y-86219047D01*
X134448535Y-86219047D02*
X134448535Y-86142857D01*
X134448535Y-86142857D02*
X134410440Y-86066666D01*
X134410440Y-86066666D02*
X134372344Y-86028571D01*
X134372344Y-86028571D02*
X134296154Y-85990476D01*
X134296154Y-85990476D02*
X134143773Y-85952380D01*
X134143773Y-85952380D02*
X133953297Y-85952380D01*
X133953297Y-85952380D02*
X133800916Y-85990476D01*
X133800916Y-85990476D02*
X133724725Y-86028571D01*
X133724725Y-86028571D02*
X133686630Y-86066666D01*
X133686630Y-86066666D02*
X133648535Y-86142857D01*
X133648535Y-87133333D02*
X133648535Y-86752381D01*
X133648535Y-86752381D02*
X134029487Y-86714285D01*
X134029487Y-86714285D02*
X133991392Y-86752381D01*
X133991392Y-86752381D02*
X133953297Y-86828571D01*
X133953297Y-86828571D02*
X133953297Y-87019047D01*
X133953297Y-87019047D02*
X133991392Y-87095238D01*
X133991392Y-87095238D02*
X134029487Y-87133333D01*
X134029487Y-87133333D02*
X134105678Y-87171428D01*
X134105678Y-87171428D02*
X134296154Y-87171428D01*
X134296154Y-87171428D02*
X134372344Y-87133333D01*
X134372344Y-87133333D02*
X134410440Y-87095238D01*
X134410440Y-87095238D02*
X134448535Y-87019047D01*
X134448535Y-87019047D02*
X134448535Y-86828571D01*
X134448535Y-86828571D02*
X134410440Y-86752381D01*
X134410440Y-86752381D02*
X134372344Y-86714285D01*
X117479882Y-72674630D02*
X117448930Y-72636535D01*
X117448930Y-72636535D02*
X117387025Y-72598440D01*
X117387025Y-72598440D02*
X117232263Y-72598440D01*
X117232263Y-72598440D02*
X117170358Y-72636535D01*
X117170358Y-72636535D02*
X117139406Y-72674630D01*
X117139406Y-72674630D02*
X117108453Y-72750821D01*
X117108453Y-72750821D02*
X117108453Y-72827011D01*
X117108453Y-72827011D02*
X117139406Y-72941297D01*
X117139406Y-72941297D02*
X117510834Y-73398440D01*
X117510834Y-73398440D02*
X117108453Y-73398440D01*
X116706072Y-72598440D02*
X116644167Y-72598440D01*
X116644167Y-72598440D02*
X116582263Y-72636535D01*
X116582263Y-72636535D02*
X116551310Y-72674630D01*
X116551310Y-72674630D02*
X116520358Y-72750821D01*
X116520358Y-72750821D02*
X116489405Y-72903202D01*
X116489405Y-72903202D02*
X116489405Y-73093678D01*
X116489405Y-73093678D02*
X116520358Y-73246059D01*
X116520358Y-73246059D02*
X116551310Y-73322249D01*
X116551310Y-73322249D02*
X116582263Y-73360345D01*
X116582263Y-73360345D02*
X116644167Y-73398440D01*
X116644167Y-73398440D02*
X116706072Y-73398440D01*
X116706072Y-73398440D02*
X116767977Y-73360345D01*
X116767977Y-73360345D02*
X116798929Y-73322249D01*
X116798929Y-73322249D02*
X116829882Y-73246059D01*
X116829882Y-73246059D02*
X116860834Y-73093678D01*
X116860834Y-73093678D02*
X116860834Y-72903202D01*
X116860834Y-72903202D02*
X116829882Y-72750821D01*
X116829882Y-72750821D02*
X116798929Y-72674630D01*
X116798929Y-72674630D02*
X116767977Y-72636535D01*
X116767977Y-72636535D02*
X116706072Y-72598440D01*
X126229354Y-80424630D02*
X126198402Y-80386535D01*
X126198402Y-80386535D02*
X126136497Y-80348440D01*
X126136497Y-80348440D02*
X125981735Y-80348440D01*
X125981735Y-80348440D02*
X125919830Y-80386535D01*
X125919830Y-80386535D02*
X125888878Y-80424630D01*
X125888878Y-80424630D02*
X125857925Y-80500821D01*
X125857925Y-80500821D02*
X125857925Y-80577011D01*
X125857925Y-80577011D02*
X125888878Y-80691297D01*
X125888878Y-80691297D02*
X126260306Y-81148440D01*
X126260306Y-81148440D02*
X125857925Y-81148440D01*
X125269830Y-80348440D02*
X125579354Y-80348440D01*
X125579354Y-80348440D02*
X125610306Y-80729392D01*
X125610306Y-80729392D02*
X125579354Y-80691297D01*
X125579354Y-80691297D02*
X125517449Y-80653202D01*
X125517449Y-80653202D02*
X125362687Y-80653202D01*
X125362687Y-80653202D02*
X125300782Y-80691297D01*
X125300782Y-80691297D02*
X125269830Y-80729392D01*
X125269830Y-80729392D02*
X125238877Y-80805583D01*
X125238877Y-80805583D02*
X125238877Y-80996059D01*
X125238877Y-80996059D02*
X125269830Y-81072249D01*
X125269830Y-81072249D02*
X125300782Y-81110345D01*
X125300782Y-81110345D02*
X125362687Y-81148440D01*
X125362687Y-81148440D02*
X125517449Y-81148440D01*
X125517449Y-81148440D02*
X125579354Y-81110345D01*
X125579354Y-81110345D02*
X125610306Y-81072249D01*
%TO.C,J2074*%
X125140000Y-63185000D02*
X125140000Y-65685000D01*
X125140000Y-65685000D02*
X126190000Y-65685000D01*
X126190000Y-65685000D02*
X126190000Y-66675000D01*
X126310000Y-61215000D02*
X131190000Y-61215000D01*
X132360000Y-63185000D02*
X132360000Y-65685000D01*
X132360000Y-65685000D02*
X131310000Y-65685000D01*
%TO.C,C2241*%
X117859420Y-67490000D02*
X118140580Y-67490000D01*
X117859420Y-68510000D02*
X118140580Y-68510000D01*
%TO.C,R2264*%
X157137257Y-74822500D02*
X156662742Y-74822500D01*
X157137258Y-73777500D02*
X156662743Y-73777500D01*
%TO.C,R2253*%
X163477500Y-86237258D02*
X163477500Y-85762742D01*
X164522500Y-86237258D02*
X164522500Y-85762742D01*
%TO.C,Q2200*%
X133190000Y-88490000D02*
X133190000Y-90010000D01*
X133190000Y-90010000D02*
X133240000Y-90010000D01*
X134190000Y-88490000D02*
X133190000Y-88490000D01*
X134360000Y-90010000D02*
X135140000Y-90010000D01*
X136260000Y-90010000D02*
X136310000Y-90010000D01*
X136310000Y-88490000D02*
X135310000Y-88490000D01*
X136310000Y-90010000D02*
X136310000Y-88490000D01*
X135130000Y-90550000D02*
X134800000Y-90310000D01*
X134800000Y-90790000D01*
X135130000Y-90550000D01*
G36*
X135130000Y-90550000D02*
G01*
X134800000Y-90790000D01*
X134800000Y-90310000D01*
X135130000Y-90550000D01*
G37*
%TO.C,R2239*%
X119262742Y-92727500D02*
X119737258Y-92727500D01*
%TO.C,R2237*%
X123737258Y-93352500D02*
X123262742Y-93352500D01*
X123737258Y-94397500D02*
X123262742Y-94397500D01*
%TO.C,U2206*%
X141690000Y-93932500D02*
X145810000Y-93932500D01*
X145810000Y-88567500D02*
X141690000Y-88567500D01*
X140040000Y-93480000D02*
X139710000Y-93240000D01*
X139710000Y-93720000D01*
X140040000Y-93480000D01*
G36*
X140040000Y-93480000D02*
G01*
X139710000Y-93720000D01*
X139710000Y-93240000D01*
X140040000Y-93480000D01*
G37*
%TO.C,R2252*%
X155772936Y-76340000D02*
X157227064Y-76340000D01*
%TO.C,U2209*%
X159190000Y-72440000D02*
X159190000Y-76560000D01*
X159190000Y-76560000D02*
X159285000Y-76560000D01*
X159285000Y-72440000D02*
X159190000Y-72440000D01*
X164215000Y-76560000D02*
X164310000Y-76560000D01*
X164310000Y-72440000D02*
X164215000Y-72440000D01*
X164310000Y-76560000D02*
X164310000Y-72440000D01*
X164220000Y-77100000D02*
X164550000Y-77340000D01*
X164550000Y-76860000D01*
X164220000Y-77100000D01*
G36*
X164550000Y-77340000D02*
G01*
X164220000Y-77100000D01*
X164550000Y-76860000D01*
X164550000Y-77340000D01*
G37*
%TO.C,U2202*%
X118040000Y-60340000D02*
X118040000Y-60540000D01*
X118040000Y-65360000D02*
X118040000Y-65560000D01*
X118040000Y-65560000D02*
X122660000Y-65560000D01*
X122660000Y-60340000D02*
X118040000Y-60340000D01*
X122660000Y-60540000D02*
X122660000Y-60340000D01*
X122660000Y-65560000D02*
X122660000Y-65360000D01*
X117400000Y-65360000D02*
X117060000Y-65830000D01*
X117740000Y-65830000D01*
X117400000Y-65360000D01*
G36*
X117740000Y-65830000D02*
G01*
X117060000Y-65830000D01*
X117400000Y-65360000D01*
X117740000Y-65830000D01*
G37*
%TO.C,D2200*%
X152150000Y-73890000D02*
X152150000Y-76550000D01*
X152150000Y-73890000D02*
X153850000Y-73890000D01*
X153850000Y-73890000D02*
X153850000Y-76550000D01*
%TO.C,R2265*%
X152977500Y-89987258D02*
X152977500Y-89512742D01*
X154022500Y-89987258D02*
X154022500Y-89512742D01*
%TO.C,C2255*%
X164740000Y-77140580D02*
X164740000Y-76859420D01*
X165760000Y-77140580D02*
X165760000Y-76859420D01*
%TO.C,C2201*%
X112788748Y-68340000D02*
X114211252Y-68340000D01*
X112788748Y-70160000D02*
X114211252Y-70160000D01*
%TO.C,C2250*%
X138159420Y-92490000D02*
X138440580Y-92490000D01*
X138159420Y-93510000D02*
X138440580Y-93510000D01*
%TO.C,R2201*%
X129772500Y-92487258D02*
X129772500Y-92012742D01*
%TO.C,C2212*%
X115140580Y-61510000D02*
X114859420Y-61510000D01*
%TO.C,J2200*%
X131140000Y-67715000D02*
X132190000Y-67715000D01*
X131140000Y-70215000D02*
X131140000Y-67715000D01*
X138190000Y-72185000D02*
X132310000Y-72185000D01*
X138310000Y-67715000D02*
X138310000Y-66725000D01*
X139360000Y-67715000D02*
X138310000Y-67715000D01*
X139360000Y-70215000D02*
X139360000Y-67715000D01*
%TO.C,R2256*%
X164612258Y-67647500D02*
X164137742Y-67647500D01*
%TO.C,R2213*%
X109262742Y-60977500D02*
X109737258Y-60977500D01*
X109262742Y-62022500D02*
X109737258Y-62022500D01*
%TO.C,C2231*%
X136609420Y-82990000D02*
X136890580Y-82990000D01*
X136609420Y-84010000D02*
X136890580Y-84010000D01*
%TO.C,C2256*%
X164740000Y-72140580D02*
X164740000Y-71859420D01*
%TO.C,U2200*%
X112590000Y-64190000D02*
X112590000Y-64240000D01*
X112590000Y-65360000D02*
X112590000Y-66140000D01*
X112590000Y-67260000D02*
X112590000Y-67310000D01*
X112590000Y-67310000D02*
X114410000Y-67310000D01*
X114410000Y-64190000D02*
X112590000Y-64190000D01*
X114410000Y-64240000D02*
X114410000Y-64190000D01*
X114410000Y-67310000D02*
X114410000Y-67260000D01*
X114950000Y-64240000D02*
X115190000Y-63910000D01*
X114710000Y-63910000D01*
X114950000Y-64240000D01*
G36*
X114950000Y-64240000D02*
G01*
X114710000Y-63910000D01*
X115190000Y-63910000D01*
X114950000Y-64240000D01*
G37*
%TO.C,C2251*%
X147740000Y-92890580D02*
X147740000Y-92609420D01*
X148760000Y-92890580D02*
X148760000Y-92609420D01*
%TO.C,R708*%
X163012742Y-82727500D02*
X163487258Y-82727500D01*
%TO.C,R2259*%
X153262742Y-71477500D02*
X153737258Y-71477500D01*
X153262742Y-72522500D02*
X153737258Y-72522500D01*
%TO.C,U2203*%
X134690000Y-60640000D02*
X134690000Y-60840000D01*
X134690000Y-65660000D02*
X134690000Y-65860000D01*
X134690000Y-65860000D02*
X139310000Y-65860000D01*
X139310000Y-60640000D02*
X134690000Y-60640000D01*
X139310000Y-60840000D02*
X139310000Y-60640000D01*
X139310000Y-65860000D02*
X139310000Y-65660000D01*
X139950000Y-60840000D02*
X140290000Y-60370000D01*
X139610000Y-60370000D01*
X139950000Y-60840000D01*
G36*
X139950000Y-60840000D02*
G01*
X139610000Y-60370000D01*
X140290000Y-60370000D01*
X139950000Y-60840000D01*
G37*
%TO.C,R2251*%
X150262742Y-93772500D02*
X150737258Y-93772500D01*
%TO.C,Q701*%
X142740000Y-69940000D02*
X142740000Y-69990000D01*
X142740000Y-71110000D02*
X142740000Y-71890000D01*
X142740000Y-73010000D02*
X142740000Y-73060000D01*
X142740000Y-73060000D02*
X144260000Y-73060000D01*
X144260000Y-69940000D02*
X142740000Y-69940000D01*
X144260000Y-70940000D02*
X144260000Y-69940000D01*
X144260000Y-73060000D02*
X144260000Y-72060000D01*
X142200000Y-71880000D02*
X142440000Y-71550000D01*
X141960000Y-71550000D01*
X142200000Y-71880000D01*
G36*
X142200000Y-71880000D02*
G01*
X141960000Y-71550000D01*
X142440000Y-71550000D01*
X142200000Y-71880000D01*
G37*
%TO.C,R2230*%
X141477500Y-66737258D02*
X141477500Y-66262742D01*
X142522500Y-66737258D02*
X142522500Y-66262742D01*
%TO.C,R2238*%
X119262742Y-91227500D02*
X119737258Y-91227500D01*
X119262742Y-92272500D02*
X119737258Y-92272500D01*
%TO.C,C2200*%
X111590000Y-62640580D02*
X111590000Y-62359420D01*
X112610000Y-62640580D02*
X112610000Y-62359420D01*
%TO.C,D2202*%
X158240000Y-88440000D02*
X158240000Y-88490000D01*
X158240000Y-89610000D02*
X158240000Y-90390000D01*
X158240000Y-91510000D02*
X158240000Y-91560000D01*
X158240000Y-91560000D02*
X159760000Y-91560000D01*
X159760000Y-88440000D02*
X158240000Y-88440000D01*
X159760000Y-89440000D02*
X159760000Y-88440000D01*
X159760000Y-91560000D02*
X159760000Y-90560000D01*
X157700000Y-90380000D02*
X157940000Y-90050000D01*
X157460000Y-90050000D01*
X157700000Y-90380000D01*
G36*
X157700000Y-90380000D02*
G01*
X157460000Y-90050000D01*
X157940000Y-90050000D01*
X157700000Y-90380000D01*
G37*
%TO.C,R2200*%
X115277064Y-83360000D02*
X112222936Y-83360000D01*
%TO.C,U2204*%
X114690000Y-88490000D02*
X114690000Y-90010000D01*
X114690000Y-90010000D02*
X114740000Y-90010000D01*
X115690000Y-88490000D02*
X114690000Y-88490000D01*
X115860000Y-90010000D02*
X116640000Y-90010000D01*
X117760000Y-90010000D02*
X117810000Y-90010000D01*
X117810000Y-88490000D02*
X116810000Y-88490000D01*
X117810000Y-90010000D02*
X117810000Y-88490000D01*
X116630000Y-90550000D02*
X116300000Y-90310000D01*
X116300000Y-90790000D01*
X116630000Y-90550000D01*
G36*
X116630000Y-90550000D02*
G01*
X116300000Y-90790000D01*
X116300000Y-90310000D01*
X116630000Y-90550000D01*
G37*
%TO.C,R2255*%
X162512742Y-69477500D02*
X162987258Y-69477500D01*
X162512742Y-70522500D02*
X162987258Y-70522500D01*
%TO.C,D2201*%
X156240000Y-69440000D02*
X156240000Y-69490000D01*
X156240000Y-70610000D02*
X156240000Y-71390000D01*
X156240000Y-72510000D02*
X156240000Y-72560000D01*
X156240000Y-72560000D02*
X157760000Y-72560000D01*
X157760000Y-69440000D02*
X156240000Y-69440000D01*
X157760000Y-70440000D02*
X157760000Y-69440000D01*
X157760000Y-72560000D02*
X157760000Y-71560000D01*
X155700000Y-71380000D02*
X155940000Y-71050000D01*
X155460000Y-71050000D01*
X155700000Y-71380000D01*
G36*
X155700000Y-71380000D02*
G01*
X155460000Y-71050000D01*
X155940000Y-71050000D01*
X155700000Y-71380000D01*
G37*
%TO.C,U2201*%
X144940000Y-60140000D02*
X144940000Y-60340000D01*
X144940000Y-65160000D02*
X144940000Y-65360000D01*
X144940000Y-65360000D02*
X149560000Y-65360000D01*
X149560000Y-60140000D02*
X144940000Y-60140000D01*
X149560000Y-60340000D02*
X149560000Y-60140000D01*
X149560000Y-65360000D02*
X149560000Y-65160000D01*
X150200000Y-60340000D02*
X150540000Y-59870000D01*
X149860000Y-59870000D01*
X150200000Y-60340000D01*
G36*
X150200000Y-60340000D02*
G01*
X149860000Y-59870000D01*
X150540000Y-59870000D01*
X150200000Y-60340000D01*
G37*
%TO.C,U2205*%
X135490000Y-87185000D02*
X138010000Y-87185000D01*
X137855568Y-84815000D02*
X135490000Y-84815000D01*
X138150000Y-84810000D02*
X138290000Y-84620000D01*
X138010000Y-84620000D01*
X138150000Y-84810000D01*
G36*
X138150000Y-84810000D02*
G01*
X138010000Y-84620000D01*
X138290000Y-84620000D01*
X138150000Y-84810000D01*
G37*
%TD*%
M02*
