%TF.GenerationSoftware,KiCad,Pcbnew,10.0.4*%
%TF.CreationDate,2026-09-22T07:25:59-04:00*%
%TF.ProjectId,bms,626d732e-6b69-4636-9164-5f7063625858,rev?*%
%TF.SameCoordinates,Original*%
%TF.FileFunction,Profile,NP*%
%FSLAX46Y46*%
G04 Gerber Fmt 4.6, Leading zero omitted, Abs format (unit mm)*
G04 Created by KiCad (PCBNEW 10.0.4) date 2026-09-22 07:25:59*
%MOMM*%
%LPD*%
G01*
G04 APERTURE LIST*
%TA.AperFunction,Profile*%
%ADD10C,0.050000*%
%TD*%
G04 APERTURE END LIST*
D10*
X106700000Y-94450000D02*
X106700000Y-60000000D01*
X106702000Y-60000000D02*
G75*
G02*
X107150000Y-59552000I448000J0D01*
G01*
X107148000Y-94898000D02*
G75*
G02*
X106700000Y-94450000I0J448000D01*
G01*
X107150000Y-59552000D02*
X110700000Y-59552000D01*
X110420691Y-72050000D02*
G75*
G02*
X107379309Y-72050000I-1520691J0D01*
G01*
X107379309Y-72050000D02*
G75*
G02*
X110420691Y-72050000I1520691J0D01*
G01*
X110450000Y-64800000D02*
G75*
G02*
X107408618Y-64800000I-1520691J0D01*
G01*
X107408618Y-64800000D02*
G75*
G02*
X110450000Y-64800000I1520691J0D01*
G01*
X110700000Y-59552000D02*
X111500000Y-58752000D01*
X111500000Y-58752000D02*
X149500000Y-58752000D01*
X149500000Y-58752000D02*
X150300000Y-59552000D01*
X150300000Y-59552000D02*
X168152000Y-59552000D01*
X167820691Y-64700000D02*
G75*
G02*
X164779309Y-64700000I-1520691J0D01*
G01*
X164779309Y-64700000D02*
G75*
G02*
X167820691Y-64700000I1520691J0D01*
G01*
X168170691Y-90950000D02*
G75*
G02*
X165129309Y-90950000I-1520691J0D01*
G01*
X165129309Y-90950000D02*
G75*
G02*
X168170691Y-90950000I1520691J0D01*
G01*
X168150000Y-94900000D02*
X107148000Y-94898000D01*
X168152000Y-59552000D02*
G75*
G02*
X168600000Y-60000000I0J-448000D01*
G01*
X168598000Y-94452000D02*
G75*
G02*
X168150000Y-94900000I-448000J0D01*
G01*
X168600000Y-60000000D02*
X168598000Y-94452000D01*
M02*
