M48
; DRILL file KiCad 10.0.4 date 2026-09-22T07:26:00
; FORMAT={-:-/ absolute / metric / decimal}
; #@! TF.CreationDate,2026-09-22T07:26:00-04:00
; #@! TF.GenerationSoftware,Kicad,Pcbnew,10.0.4
; #@! TF.FileFunction,Plated,1,4,PTH
FMAT,2
METRIC
; #@! TA.AperFunction,Plated,PTH,ViaDrill
T1C0.200
; #@! TA.AperFunction,Plated,PTH,ViaDrill
T2C0.300
; #@! TA.AperFunction,Plated,PTH,ComponentDrill
T3C1.780
; #@! TA.AperFunction,Plated,PTH,ComponentDrill
T4C1.800
%
G90
G05
T1
X110.34Y-62.46
X110.35Y-81.475
X111.5Y-84.05
X111.7Y-67.5
X111.9Y-72.175
X112.2Y-84.175
X112.45Y-81.0
X112.45Y-81.45
X112.95Y-61.85
X113.05Y-60.6
X114.5Y-81.85
X114.575Y-91.825
X114.6Y-63.5
X114.625Y-87.325
X114.7Y-79.225
X114.9Y-60.35
X115.0Y-93.75
X115.25Y-92.55
X115.95Y-68.8
X116.075Y-63.1
X116.14Y-61.82
X116.25Y-91.35
X116.375Y-69.425
X116.475Y-90.125
X116.55Y-59.625
X116.6Y-60.35
X117.15Y-84.75
X117.9Y-93.9
X118.3Y-70.5
X118.462Y-61.575
X118.562Y-60.875
X118.587Y-63.45
X118.587Y-64.175
X119.188Y-61.575
X119.35Y-83.1
X119.45Y-93.25
X119.55Y-94.1
X119.65Y-59.65
X119.7Y-87.45
X119.862Y-63.075
X120.3Y-77.4
X120.4Y-87.55
X120.412Y-63.525
X120.65Y-83.85
X120.725Y-62.025
X121.037Y-63.175
X121.15Y-59.65
X121.438Y-62.025
X122.162Y-62.0
X122.75Y-84.519
X122.85Y-59.65
X123.9Y-82.7
X124.4Y-60.65
X124.65Y-67.45
X124.8Y-92.325
X124.825Y-91.025
X125.55Y-92.1
X125.65Y-66.65
X125.72Y-60.655
X126.15Y-87.25
X126.15Y-91.55
X126.35Y-70.2
X126.7Y-78.7
X127.1Y-60.65
X127.675Y-92.1
X127.7Y-68.75
X128.175Y-91.6
X128.225Y-60.65
X128.3Y-93.7
X128.375Y-72.325
X128.45Y-76.55
X128.65Y-69.7
X128.675Y-92.1
X128.82Y-61.06
X128.875Y-62.5
X129.0Y-72.65
X129.2Y-68.2
X129.275Y-62.6
X129.275Y-64.75
X129.35Y-67.1
X129.45Y-80.275
X129.5Y-84.85
X129.6Y-60.75
X129.925Y-79.725
X130.0Y-62.6
X130.1Y-93.275
X130.26Y-61.06
X130.275Y-66.925
X130.375Y-71.025
X130.875Y-60.7
X130.95Y-68.1
X131.0Y-93.3
X131.012Y-62.6
X131.2Y-90.525
X131.25Y-72.5
X131.45Y-92.1
X131.525Y-82.775
X131.575Y-80.775
X131.78Y-60.7
X131.825Y-77.575
X131.95Y-66.775
X132.3Y-69.95
X132.475Y-71.925
X132.725Y-90.55
X133.0Y-60.9
X133.05Y-92.1
X133.075Y-79.0
X133.15Y-66.45
X133.55Y-69.325
X134.0Y-68.75
X134.137Y-60.875
X134.275Y-70.1
X134.375Y-71.65
X134.45Y-92.9
X134.45Y-94.125
X134.75Y-68.75
X134.9Y-90.2
X135.025Y-81.2
X135.112Y-61.95
X135.3Y-92.05
X135.35Y-65.25
X135.475Y-69.625
X135.537Y-61.375
X135.8Y-78.1
X135.875Y-68.75
X136.1Y-62.6
X136.225Y-90.475
X136.25Y-74.675
X136.575Y-63.75
X136.725Y-68.75
X136.725Y-89.975
X136.737Y-61.0
X137.0Y-87.05
X137.075Y-65.25
X137.487Y-60.825
X137.55Y-81.35
X137.987Y-62.1
X138.0Y-79.75
X138.287Y-60.925
X138.5Y-61.6
X138.512Y-62.6
X138.6Y-66.8
X138.85Y-80.5
X138.894Y-79.05
X138.9Y-91.953
X139.2Y-86.95
X139.4Y-73.2
X139.4Y-83.975
X139.55Y-91.567
X139.75Y-87.4
X139.775Y-86.525
X139.85Y-89.2
X139.975Y-68.925
X140.6Y-94.05
X140.875Y-86.55
X140.95Y-71.05
X141.05Y-85.85
X141.2Y-87.375
X141.275Y-60.425
X141.9Y-87.475
X142.137Y-61.9
X142.22Y-62.62
X142.287Y-61.2
X142.375Y-74.75
X142.7Y-67.325
X143.15Y-88.0
X143.325Y-83.35
X143.5Y-74.525
X144.05Y-66.8
X144.412Y-60.375
X144.45Y-72.2
X145.025Y-80.85
X145.338Y-61.9
X145.412Y-61.175
X145.537Y-62.6
X145.775Y-81.975
X145.775Y-83.325
X146.15Y-65.075
X146.25Y-68.8
X146.55Y-60.4
X146.825Y-81.375
X147.338Y-61.875
X147.35Y-62.6
X147.45Y-84.75
X147.55Y-90.5
X147.725Y-60.775
X148.14Y-75.86
X148.438Y-62.6
X148.775Y-59.675
X149.088Y-91.975
X149.112Y-60.675
X149.162Y-62.575
X149.45Y-66.8
X149.575Y-77.425
X149.86Y-89.34
X150.2Y-75.275
X150.45Y-93.05
X150.55Y-91.25
X150.7Y-77.6
X150.875Y-89.2
X151.213Y-60.825
X151.775Y-63.175
X151.9Y-90.8
X152.1Y-92.5
X153.125Y-82.725
X153.38Y-75.94
X153.65Y-62.6
X153.75Y-61.9
X153.75Y-91.35
X153.8Y-75.237
X153.9Y-83.75
X154.025Y-92.75
X154.125Y-73.35
X154.287Y-93.75
X154.475Y-60.875
X154.78Y-83.54
X154.838Y-73.35
X155.325Y-73.875
X155.46Y-61.82
X155.625Y-62.525
X155.95Y-89.2
X156.05Y-76.9
X156.25Y-77.8
X156.975Y-72.85
X156.975Y-91.175
X157.1Y-74.3
X157.4Y-72.275
X157.875Y-88.0
X157.9Y-85.725
X157.95Y-94.125
X158.112Y-93.275
X158.275Y-63.425
X158.425Y-61.0
X159.1Y-78.45
X159.125Y-89.375
X159.14Y-90.62
X159.17Y-72.675
X160.1Y-62.74
X162.387Y-68.775
X162.91Y-76.975
X163.025Y-77.975
X163.2Y-83.4
X163.312Y-65.675
X163.5Y-78.6
X164.0Y-86.05
X164.32Y-71.2
X164.325Y-66.9
X164.555Y-76.3
X165.05Y-73.75
X165.6Y-74.6
X165.7Y-69.0
X165.775Y-73.375
X165.9Y-72.025
X166.075Y-78.1
X167.0Y-69.8
X167.35Y-75.475
T2
X113.55Y-74.75
X114.0Y-75.1
X114.3Y-71.6
X114.35Y-88.2
X114.35Y-88.8
X114.35Y-89.4
X114.65Y-74.9
X114.9Y-71.6
X115.5Y-71.6
X117.1Y-69.65
X117.1Y-79.95
X117.4Y-65.65
X117.4Y-66.25
X117.4Y-66.85
X119.2Y-73.8
X119.75Y-89.2
X120.3Y-88.55
X120.95Y-85.6
X122.05Y-83.85
X123.25Y-78.75
X124.125Y-86.125
X124.5Y-69.95
X125.15Y-72.0
X125.78Y-72.547
X126.2Y-71.75
X127.2Y-72.4
X129.0Y-85.6
X129.0Y-86.55
X129.0Y-87.5
X129.15Y-84.55
X132.2Y-82.225
X133.65Y-76.4
X133.7Y-75.5
X134.55Y-78.14
X137.4Y-79.25
X137.55Y-74.55
X138.1Y-81.05
X138.7Y-68.6
X138.8Y-67.7
X138.95Y-84.6
X139.1Y-68.2
X139.1Y-69.0
X139.4Y-67.5
X139.55Y-66.5
X139.625Y-80.475
X140.85Y-74.6
X141.95Y-85.9
X143.0Y-73.25
X143.1Y-68.6
X143.2Y-68.0
X143.7Y-67.6
X143.7Y-68.2
X143.7Y-68.8
X144.25Y-82.1
X145.0Y-74.15
X148.0Y-78.75
X150.15Y-91.9
X150.7Y-71.95
X151.3Y-72.7
X151.3Y-73.95
X153.55Y-77.25
X154.15Y-76.1
X156.1Y-64.85
X156.1Y-65.45
X156.1Y-66.05
X156.9Y-76.95
X157.7Y-91.75
X158.1Y-92.5
X158.715Y-69.3
X158.85Y-75.2
X158.9Y-73.7
X159.0Y-91.8
X159.25Y-76.95
X159.5Y-92.5
X159.7Y-91.2
X159.985Y-69.3
X160.3Y-88.8
X160.45Y-91.8
X160.9Y-90.85
X161.1Y-69.3
X161.9Y-89.9
X162.0Y-91.85
X162.55Y-64.6
X162.55Y-65.85
X162.6Y-67.15
X162.85Y-68.1
X162.9Y-63.55
X163.05Y-90.85
X163.25Y-89.55
X163.6Y-64.8
X163.8Y-63.6
X163.9Y-66.15
X163.9Y-84.3
X163.9Y-91.85
X164.25Y-88.6
X164.3Y-90.25
X164.65Y-74.9
X164.9Y-89.15
X165.05Y-79.3
X165.05Y-81.7
X165.05Y-84.8
X165.15Y-82.7
X165.15Y-83.75
X165.2Y-80.5
X165.65Y-75.55
X165.9Y-79.0
X165.9Y-81.5
X165.9Y-84.4
X166.0Y-82.5
X166.1Y-80.65
X166.2Y-69.8
X166.2Y-79.8
X166.5Y-68.8
X166.6Y-73.1
X166.7Y-76.2
X166.7Y-77.65
X166.8Y-79.1
X166.8Y-83.35
X166.85Y-84.45
X166.9Y-70.25
X166.9Y-80.3
X166.9Y-82.5
X167.05Y-81.65
X167.5Y-67.25
X167.5Y-68.2
X167.55Y-69.25
X167.65Y-72.5
X167.65Y-88.6
X167.7Y-76.15
X167.7Y-77.1
X167.7Y-81.95
X167.7Y-82.85
X167.7Y-83.8
X167.7Y-84.75
X167.75Y-77.9
X167.75Y-78.9
X167.75Y-79.9
X167.75Y-80.9
T3
X109.25Y-77.19
X109.25Y-87.11
X112.65Y-77.19
X112.65Y-87.11
T4
X149.95Y-80.65
X149.95Y-86.35
X155.65Y-80.65
X155.65Y-86.35
X161.35Y-80.65
X161.35Y-86.35
M30
