<svg xmlns="http://www.w3.org/2000/svg" width="1400" height="950" viewBox="0 0 1400 950">
<rect width="1400" height="950" fill="white"/>
<g font-family="Arial,sans-serif" fill="#172b37">
<text x="50" y="55" font-size="30">ducktop2 / right hinge adapters</text>
<text x="50" y="90" font-size="18">mm. hole positions relative to each plate's minimum X/Y corner in the installed top view.</text>
<text x="50" y="120" font-size="18">3 mm steel plates. tap pilots shown; no screw thread inferred from hinge clearance holes.</text>
<text x="75" y="180" font-size="24">base</text>
<rect x="75" y="220" width="330.0" height="160.0" fill="#edf1f4" stroke="#172b37" stroke-width="2"/>
<text x="240.0" y="205" text-anchor="middle" font-size="20">33.00</text>
<text x="63" y="300.0" text-anchor="end" font-size="20">16.00</text>
<circle cx="375.0" cy="246.50000000000003" r="8.0" fill="white" stroke="#172b37" stroke-width="1.5"/>
<text x="388.0" y="238.50000000000003" font-size="15">1</text>
<text x="75" y="560" font-size="18">1: X 30.000, Y 2.650, M2 tap</text>
<circle cx="290.0" cy="246.50000000000003" r="8.0" fill="white" stroke="#172b37" stroke-width="1.5"/>
<text x="303.0" y="238.50000000000003" font-size="15">2</text>
<text x="75" y="590" font-size="18">2: X 21.500, Y 2.650, M2 tap</text>
<circle cx="110.0" cy="341.0" r="16.0" fill="white" stroke="#172b37" stroke-width="1.5"/>
<text x="123.0" y="333.0" font-size="15">3</text>
<text x="75" y="620" font-size="18">3: X 3.500, Y 12.100, M3 clearance</text>
<circle cx="370.0" cy="341.0" r="16.0" fill="white" stroke="#172b37" stroke-width="1.5"/>
<text x="383.0" y="333.0" font-size="15">4</text>
<text x="75" y="650" font-size="18">4: X 29.500, Y 12.100, M3 clearance</text>
<text x="755" y="180" font-size="24">lid, closed</text>
<rect x="755" y="220" width="430.0" height="310.0" fill="#edf1f4" stroke="#172b37" stroke-width="2"/>
<text x="970.0" y="205" text-anchor="middle" font-size="20">43.00</text>
<text x="743" y="375.0" text-anchor="end" font-size="20">31.00</text>
<circle cx="999.5" cy="318.5" r="8.0" fill="white" stroke="#172b37" stroke-width="1.5"/>
<text x="1012.5" y="310.5" font-size="15">1</text>
<text x="755" y="560" font-size="18">1: X 24.450, Y 9.850, M2 tap</text>
<circle cx="1059.5" cy="289.5" r="8.0" fill="white" stroke="#172b37" stroke-width="1.5"/>
<text x="1072.5" y="281.5" font-size="15">2</text>
<text x="755" y="590" font-size="18">2: X 30.450, Y 6.950, M2 tap</text>
<circle cx="799.0" cy="264.5" r="6.25" fill="white" stroke="#172b37" stroke-width="1.5"/>
<text x="812.0" y="256.5" font-size="15">3</text>
<text x="755" y="620" font-size="18">3: X 4.400, Y 4.450, M1.6 tap</text>
<circle cx="785.0" cy="480.0" r="16.0" fill="white" stroke="#172b37" stroke-width="1.5"/>
<text x="798.0" y="472.0" font-size="15">4</text>
<text x="755" y="650" font-size="18">4: X 3.000, Y 26.000, M3 clearance</text>
<circle cx="1155.0" cy="480.0" r="16.0" fill="white" stroke="#172b37" stroke-width="1.5"/>
<text x="1168.0" y="472.0" font-size="15">5</text>
<text x="755" y="680" font-size="18">5: X 40.000, Y 26.000, M3 clearance</text>
<text x="50" y="770" font-size="18">base seat is 2.20 below pivot. base plate sits immediately below that seat.</text>
<text x="50" y="800" font-size="18">lid backing plate: 10.00 to 13.00 above pivot when closed.</text>
<text x="50" y="830" font-size="18">lid main sleeves: 3.00 high. small-tab sleeve: 3.90 high. sleeves are separate, electrically neutral parts.</text>
<text x="50" y="860" font-size="18">base screws M2 x 4. lid screws M2 x 6 and M1.6 x 7. flat low heads, OEM diameters required.</text>
<text x="50" y="890" font-size="18">check owned hinge fit, tapped engagement, screw tips and tool access before a loaded test.</text>
</g></svg>