<?xml version="1.0" standalone="no"?>
 <!DOCTYPE svg PUBLIC "-//W3C//DTD SVG 1.1//EN" 
 "http://www.w3.org/Graphics/SVG/1.1/DTD/svg11.dtd"> 
<svg
  xmlns:svg="http://www.w3.org/2000/svg"
  xmlns="http://www.w3.org/2000/svg"
  xmlns:xlink="http://www.w3.org/1999/xlink"
  xmlns:inkscape="http://www.inkscape.org/namespaces/inkscape"
  version="1.1"
  width="22.5806mm" height="17.6784mm" viewBox="0.0000 0.0000 22.5806 17.6784">
<title>SVG Image created as TPS7A0210_unit1.svg date 2026-07-02T15:51:44 </title>
  <desc>Image generated by Eeschema-SVG </desc>
<g style="fill:#000000; fill-opacity:1.0000;stroke:#000000; stroke-opacity:1.0000;
stroke-linecap:round; stroke-linejoin:round;"
 transform="translate(0 0) scale(1 1)">
</g>
<g style="fill:#FFFFC2; fill-opacity:1.0000; stroke:none;">
<rect x="4.808100" y="3.762000" width="10.160000" height="9.525000" rx="0.000000" />
</g>
<g style="fill:none; 
stroke:#840000; stroke-width:0.2540; stroke-opacity:1; 
stroke-linecap:round; stroke-linejoin:round;">
<rect x="4.808100" y="3.762000" width="10.160000" height="9.525000" rx="0.000000" />
</g>
<g style="fill:none; 
stroke:#840000; stroke-width:0.1524; stroke-opacity:1; 
stroke-linecap:round; stroke-linejoin:round;">
<path d="M4.8081 5.6670
L2.2681 5.6670
" />
</g>
<g style="fill:none; 
stroke:#006464; stroke-width:0.1524; stroke-opacity:1; 
stroke-linecap:round; stroke-linejoin:round;">
<text x="5.0621" y="6.3020"
textLength="3.8318" font-size="1.6933" lengthAdjust="spacingAndGlyphs"
text-anchor="start" opacity="0" stroke-opacity="0">OUT</text>
<g class="stroked-text"><desc>OUT</desc>
<path d="M5.7065 4.9765
L5.9484 4.9765
" />
<path d="M5.9484 4.9765
L6.0694 5.0370
" />
<path d="M6.0694 5.0370
L6.1903 5.1580
" />
<path d="M6.1903 5.1580
L6.2508 5.3999
" />
<path d="M6.2508 5.3999
L6.2508 5.8232
" />
<path d="M6.2508 5.8232
L6.1903 6.0651
" />
<path d="M6.1903 6.0651
L6.0694 6.1861
" />
<path d="M6.0694 6.1861
L5.9484 6.2465
" />
<path d="M5.9484 6.2465
L5.7065 6.2465
" />
<path d="M5.7065 6.2465
L5.5856 6.1861
" />
<path d="M5.5856 6.1861
L5.4646 6.0651
" />
<path d="M5.4646 6.0651
L5.4042 5.8232
" />
<path d="M5.4042 5.8232
L5.4042 5.3999
" />
<path d="M5.4042 5.3999
L5.4646 5.1580
" />
<path d="M5.4646 5.1580
L5.5856 5.0370
" />
<path d="M5.5856 5.0370
L5.7065 4.9765
" />
<path d="M6.7951 4.9765
L6.7951 6.0046
" />
<path d="M6.7951 6.0046
L6.8556 6.1256
" />
<path d="M6.8556 6.1256
L6.9161 6.1861
" />
<path d="M6.9161 6.1861
L7.0370 6.2465
" />
<path d="M7.0370 6.2465
L7.2789 6.2465
" />
<path d="M7.2789 6.2465
L7.3999 6.1861
" />
<path d="M7.3999 6.1861
L7.4604 6.1256
" />
<path d="M7.4604 6.1256
L7.5208 6.0046
" />
<path d="M7.5208 6.0046
L7.5208 4.9765
" />
<path d="M7.9442 4.9765
L8.6699 4.9765
" />
<path d="M8.3071 6.2465
L8.3071 4.9765
" />
</g></g>
<g style="fill:none; 
stroke:#A90000; stroke-width:0.1524; stroke-opacity:1; 
stroke-linecap:round; stroke-linejoin:round;">
<text x="3.5381" y="5.4130"
textLength="1.4127" font-size="1.6933" lengthAdjust="spacingAndGlyphs"
text-anchor="middle" opacity="0" stroke-opacity="0">1</text>
<g class="stroked-text"><desc>1</desc>
<path d="M3.9010 5.2495
L3.1753 5.2495
" />
<path d="M3.5381 5.2495
L3.5381 3.9795
" />
<path d="M3.5381 3.9795
L3.4172 4.1610
" />
<path d="M3.4172 4.1610
L3.2962 4.2819
" />
<path d="M3.2962 4.2819
L3.1753 4.3424
" />
</g></g>
<g style="fill:none; 
stroke:#840000; stroke-width:0.1524; stroke-opacity:1; 
stroke-linecap:round; stroke-linejoin:round;">
<path d="M9.8881 13.2870
L9.8881 15.8270
" />
</g>
<g style="fill:none; 
stroke:#006464; stroke-width:0.1524; stroke-opacity:1; 
stroke-linecap:round; stroke-linejoin:round;">
<g transform="rotate(-90.000000 9.8881 13.0330)">
<text x="9.8881" y="13.6680"
textLength="4.0737" font-size="1.6933" lengthAdjust="spacingAndGlyphs"
text-anchor="start" opacity="0" stroke-opacity="0">GND</text>
</g>
<g class="stroked-text"><desc>GND</desc>
<path d="M9.2581 11.9651
L9.1976 12.0861
" />
<path d="M9.1976 12.0861
L9.1976 12.2675
" />
<path d="M9.1976 12.2675
L9.2581 12.4489
" />
<path d="M9.2581 12.4489
L9.3791 12.5699
" />
<path d="M9.3791 12.5699
L9.5000 12.6304
" />
<path d="M9.5000 12.6304
L9.7419 12.6908
" />
<path d="M9.7419 12.6908
L9.9233 12.6908
" />
<path d="M9.9233 12.6908
L10.1652 12.6304
" />
<path d="M10.1652 12.6304
L10.2862 12.5699
" />
<path d="M10.2862 12.5699
L10.4072 12.4489
" />
<path d="M10.4072 12.4489
L10.4676 12.2675
" />
<path d="M10.4676 12.2675
L10.4676 12.1466
" />
<path d="M10.4676 12.1466
L10.4072 11.9651
" />
<path d="M10.4072 11.9651
L10.3467 11.9047
" />
<path d="M10.3467 11.9047
L9.9233 11.9047
" />
<path d="M9.9233 11.9047
L9.9233 12.1466
" />
<path d="M10.4676 11.3604
L9.1976 11.3604
" />
<path d="M9.1976 11.3604
L10.4676 10.6347
" />
<path d="M10.4676 10.6347
L9.1976 10.6347
" />
<path d="M10.4676 10.0299
L9.1976 10.0299
" />
<path d="M9.1976 10.0299
L9.1976 9.7275
" />
<path d="M9.1976 9.7275
L9.2581 9.5461
" />
<path d="M9.2581 9.5461
L9.3791 9.4251
" />
<path d="M9.3791 9.4251
L9.5000 9.3646
" />
<path d="M9.5000 9.3646
L9.7419 9.3042
" />
<path d="M9.7419 9.3042
L9.9233 9.3042
" />
<path d="M9.9233 9.3042
L10.1652 9.3646
" />
<path d="M10.1652 9.3646
L10.2862 9.4251
" />
<path d="M10.2862 9.4251
L10.4072 9.5461
" />
<path d="M10.4072 9.5461
L10.4676 9.7275
" />
<path d="M10.4676 9.7275
L10.4676 10.0299
" />
</g></g>
<g style="fill:none; 
stroke:#A90000; stroke-width:0.1524; stroke-opacity:1; 
stroke-linecap:round; stroke-linejoin:round;">
<g transform="rotate(-90.000000 9.6341 14.5570)">
<text x="9.6341" y="14.5570"
textLength="1.4127" font-size="1.6933" lengthAdjust="spacingAndGlyphs"
text-anchor="middle" opacity="0" stroke-opacity="0">2</text>
</g>
<g class="stroked-text"><desc>2</desc>
<path d="M8.3216 14.9197
L8.2611 14.8593
" />
<path d="M8.2611 14.8593
L8.2006 14.7383
" />
<path d="M8.2006 14.7383
L8.2006 14.4359
" />
<path d="M8.2006 14.4359
L8.2611 14.3150
" />
<path d="M8.2611 14.3150
L8.3216 14.2545
" />
<path d="M8.3216 14.2545
L8.4425 14.1940
" />
<path d="M8.4425 14.1940
L8.5635 14.1940
" />
<path d="M8.5635 14.1940
L8.7449 14.2545
" />
<path d="M8.7449 14.2545
L9.4706 14.9802
" />
<path d="M9.4706 14.9802
L9.4706 14.1940
" />
</g></g>
<g style="fill:none; 
stroke:#840000; stroke-width:0.1524; stroke-opacity:1; 
stroke-linecap:round; stroke-linejoin:round;">
<path d="M4.8081 8.2070
L2.2681 8.2070
" />
</g>
<g style="fill:none; 
stroke:#006464; stroke-width:0.1524; stroke-opacity:1; 
stroke-linecap:round; stroke-linejoin:round;">
<text x="5.0621" y="8.8420"
textLength="2.6827" font-size="1.6933" lengthAdjust="spacingAndGlyphs"
text-anchor="start" opacity="0" stroke-opacity="0">EN</text>
<g class="stroked-text"><desc>EN</desc>
<path d="M5.4646 8.1213
L5.8880 8.1213
" />
<path d="M6.0694 8.7865
L5.4646 8.7865
" />
<path d="M5.4646 8.7865
L5.4646 7.5165
" />
<path d="M5.4646 7.5165
L6.0694 7.5165
" />
<path d="M6.6136 8.7865
L6.6136 7.5165
" />
<path d="M6.6136 7.5165
L7.3393 8.7865
" />
<path d="M7.3393 8.7865
L7.3393 7.5165
" />
</g></g>
<g style="fill:none; 
stroke:#A90000; stroke-width:0.1524; stroke-opacity:1; 
stroke-linecap:round; stroke-linejoin:round;">
<text x="3.5381" y="7.9530"
textLength="1.4127" font-size="1.6933" lengthAdjust="spacingAndGlyphs"
text-anchor="middle" opacity="0" stroke-opacity="0">3</text>
<g class="stroked-text"><desc>3</desc>
<path d="M3.1148 6.5195
L3.9010 6.5195
" />
<path d="M3.9010 6.5195
L3.4776 7.0033
" />
<path d="M3.4776 7.0033
L3.6591 7.0033
" />
<path d="M3.6591 7.0033
L3.7800 7.0638
" />
<path d="M3.7800 7.0638
L3.8405 7.1243
" />
<path d="M3.8405 7.1243
L3.9010 7.2452
" />
<path d="M3.9010 7.2452
L3.9010 7.5476
" />
<path d="M3.9010 7.5476
L3.8405 7.6686
" />
<path d="M3.8405 7.6686
L3.7800 7.7291
" />
<path d="M3.7800 7.7291
L3.6591 7.7895
" />
<path d="M3.6591 7.7895
L3.2962 7.7895
" />
<path d="M3.2962 7.7895
L3.1753 7.7291
" />
<path d="M3.1753 7.7291
L3.1148 7.6686
" />
</g></g>
<g style="fill:none; 
stroke:#840000; stroke-width:0.1524; stroke-opacity:1; 
stroke-linecap:round; stroke-linejoin:round;">
<path d="M14.9681 5.6670
L17.5081 5.6670
" />
</g>
<g style="fill:none; 
stroke:#006464; stroke-width:0.1524; stroke-opacity:1; 
stroke-linecap:round; stroke-linejoin:round;">
<text x="14.7141" y="6.3020"
textLength="2.1385" font-size="1.6933" lengthAdjust="spacingAndGlyphs"
text-anchor="end" opacity="0" stroke-opacity="0">IN</text>
<g class="stroked-text"><desc>IN</desc>
<path d="M12.9809 6.2465
L12.9809 4.9765
" />
<path d="M13.5857 6.2465
L13.5857 4.9765
" />
<path d="M13.5857 4.9765
L14.3114 6.2465
" />
<path d="M14.3114 6.2465
L14.3114 4.9765
" />
</g></g>
<g style="fill:none; 
stroke:#A90000; stroke-width:0.1524; stroke-opacity:1; 
stroke-linecap:round; stroke-linejoin:round;">
<text x="16.2381" y="5.4130"
textLength="1.4127" font-size="1.6933" lengthAdjust="spacingAndGlyphs"
text-anchor="middle" opacity="0" stroke-opacity="0">4</text>
<g class="stroked-text"><desc>4</desc>
<path d="M16.4800 4.4029
L16.4800 5.2495
" />
<path d="M16.1776 3.9191
L15.8753 4.8262
" />
<path d="M15.8753 4.8262
L16.6614 4.8262
" />
</g></g>
<g style="fill:none; 
stroke:#006464; stroke-width:0.1524; stroke-opacity:1; 
stroke-linecap:round; stroke-linejoin:round;">
<text x="4.8081" y="3.1270"
textLength="2.6223" font-size="1.6933" lengthAdjust="spacingAndGlyphs"
text-anchor="start" opacity="0" stroke-opacity="0">U?</text>
<g class="stroked-text"><desc>U?</desc>
<path d="M5.2106 1.8015
L5.2106 2.8296
" />
<path d="M5.2106 2.8296
L5.2711 2.9506
" />
<path d="M5.2711 2.9506
L5.3316 3.0111
" />
<path d="M5.3316 3.0111
L5.4525 3.0715
" />
<path d="M5.4525 3.0715
L5.6944 3.0715
" />
<path d="M5.6944 3.0715
L5.8154 3.0111
" />
<path d="M5.8154 3.0111
L5.8759 2.9506
" />
<path d="M5.8759 2.9506
L5.9363 2.8296
" />
<path d="M5.9363 2.8296
L5.9363 1.8015
" />
<path d="M6.7226 2.9506
L6.7830 3.0111
" />
<path d="M6.7830 3.0111
L6.7226 3.0715
" />
<path d="M6.7226 3.0715
L6.6621 3.0111
" />
<path d="M6.6621 3.0111
L6.7226 2.9506
" />
<path d="M6.7226 2.9506
L6.7226 3.0715
" />
<path d="M6.4807 1.8620
L6.6016 1.8015
" />
<path d="M6.6016 1.8015
L6.9040 1.8015
" />
<path d="M6.9040 1.8015
L7.0249 1.8620
" />
<path d="M7.0249 1.8620
L7.0854 1.9830
" />
<path d="M7.0854 1.9830
L7.0854 2.1039
" />
<path d="M7.0854 2.1039
L7.0249 2.2249
" />
<path d="M7.0249 2.2249
L6.9645 2.2853
" />
<path d="M6.9645 2.2853
L6.8435 2.3458
" />
<path d="M6.8435 2.3458
L6.7830 2.4063
" />
<path d="M6.7830 2.4063
L6.7226 2.5272
" />
<path d="M6.7226 2.5272
L6.7226 2.5877
" />
</g><text x="9.8881" y="3.1270"
textLength="10.7864" font-size="1.6933" lengthAdjust="spacingAndGlyphs"
text-anchor="start" opacity="0" stroke-opacity="0">TPS7A0210</text>
<g class="stroked-text"><desc>TPS7A0210</desc>
<path d="M10.1092 1.8015
L10.8349 1.8015
" />
<path d="M10.4721 3.0715
L10.4721 1.8015
" />
<path d="M11.2582 3.0715
L11.2582 1.8015
" />
<path d="M11.2582 1.8015
L11.7420 1.8015
" />
<path d="M11.7420 1.8015
L11.8630 1.8620
" />
<path d="M11.8630 1.8620
L11.9235 1.9225
" />
<path d="M11.9235 1.9225
L11.9839 2.0434
" />
<path d="M11.9839 2.0434
L11.9839 2.2249
" />
<path d="M11.9839 2.2249
L11.9235 2.3458
" />
<path d="M11.9235 2.3458
L11.8630 2.4063
" />
<path d="M11.8630 2.4063
L11.7420 2.4668
" />
<path d="M11.7420 2.4668
L11.2582 2.4668
" />
<path d="M12.4678 3.0111
L12.6492 3.0715
" />
<path d="M12.6492 3.0715
L12.9516 3.0715
" />
<path d="M12.9516 3.0715
L13.0725 3.0111
" />
<path d="M13.0725 3.0111
L13.1330 2.9506
" />
<path d="M13.1330 2.9506
L13.1935 2.8296
" />
<path d="M13.1935 2.8296
L13.1935 2.7087
" />
<path d="M13.1935 2.7087
L13.1330 2.5877
" />
<path d="M13.1330 2.5877
L13.0725 2.5272
" />
<path d="M13.0725 2.5272
L12.9516 2.4668
" />
<path d="M12.9516 2.4668
L12.7097 2.4063
" />
<path d="M12.7097 2.4063
L12.5887 2.3458
" />
<path d="M12.5887 2.3458
L12.5282 2.2853
" />
<path d="M12.5282 2.2853
L12.4678 2.1644
" />
<path d="M12.4678 2.1644
L12.4678 2.0434
" />
<path d="M12.4678 2.0434
L12.5282 1.9225
" />
<path d="M12.5282 1.9225
L12.5887 1.8620
" />
<path d="M12.5887 1.8620
L12.7097 1.8015
" />
<path d="M12.7097 1.8015
L13.0120 1.8015
" />
<path d="M13.0120 1.8015
L13.1935 1.8620
" />
<path d="M13.6168 1.8015
L14.4634 1.8015
" />
<path d="M14.4634 1.8015
L13.9192 3.0715
" />
<path d="M14.8868 2.7087
L15.4915 2.7087
" />
<path d="M14.7658 3.0715
L15.1891 1.8015
" />
<path d="M15.1891 1.8015
L15.6125 3.0715
" />
<path d="M16.2777 1.8015
L16.3987 1.8015
" />
<path d="M16.3987 1.8015
L16.5196 1.8620
" />
<path d="M16.5196 1.8620
L16.5801 1.9225
" />
<path d="M16.5801 1.9225
L16.6406 2.0434
" />
<path d="M16.6406 2.0434
L16.7011 2.2853
" />
<path d="M16.7011 2.2853
L16.7011 2.5877
" />
<path d="M16.7011 2.5877
L16.6406 2.8296
" />
<path d="M16.6406 2.8296
L16.5801 2.9506
" />
<path d="M16.5801 2.9506
L16.5196 3.0111
" />
<path d="M16.5196 3.0111
L16.3987 3.0715
" />
<path d="M16.3987 3.0715
L16.2777 3.0715
" />
<path d="M16.2777 3.0715
L16.1568 3.0111
" />
<path d="M16.1568 3.0111
L16.0963 2.9506
" />
<path d="M16.0963 2.9506
L16.0358 2.8296
" />
<path d="M16.0358 2.8296
L15.9754 2.5877
" />
<path d="M15.9754 2.5877
L15.9754 2.2853
" />
<path d="M15.9754 2.2853
L16.0358 2.0434
" />
<path d="M16.0358 2.0434
L16.0963 1.9225
" />
<path d="M16.0963 1.9225
L16.1568 1.8620
" />
<path d="M16.1568 1.8620
L16.2777 1.8015
" />
<path d="M17.1849 1.9225
L17.2453 1.8620
" />
<path d="M17.2453 1.8620
L17.3663 1.8015
" />
<path d="M17.3663 1.8015
L17.6687 1.8015
" />
<path d="M17.6687 1.8015
L17.7896 1.8620
" />
<path d="M17.7896 1.8620
L17.8501 1.9225
" />
<path d="M17.8501 1.9225
L17.9106 2.0434
" />
<path d="M17.9106 2.0434
L17.9106 2.1644
" />
<path d="M17.9106 2.1644
L17.8501 2.3458
" />
<path d="M17.8501 2.3458
L17.1244 3.0715
" />
<path d="M17.1244 3.0715
L17.9106 3.0715
" />
<path d="M19.1201 3.0715
L18.3944 3.0715
" />
<path d="M18.7572 3.0715
L18.7572 1.8015
" />
<path d="M18.7572 1.8015
L18.6363 1.9830
" />
<path d="M18.6363 1.9830
L18.5153 2.1039
" />
<path d="M18.5153 2.1039
L18.3944 2.1644
" />
<path d="M19.9062 1.8015
L20.0272 1.8015
" />
<path d="M20.0272 1.8015
L20.1481 1.8620
" />
<path d="M20.1481 1.8620
L20.2086 1.9225
" />
<path d="M20.2086 1.9225
L20.2691 2.0434
" />
<path d="M20.2691 2.0434
L20.3296 2.2853
" />
<path d="M20.3296 2.2853
L20.3296 2.5877
" />
<path d="M20.3296 2.5877
L20.2691 2.8296
" />
<path d="M20.2691 2.8296
L20.2086 2.9506
" />
<path d="M20.2086 2.9506
L20.1481 3.0111
" />
<path d="M20.1481 3.0111
L20.0272 3.0715
" />
<path d="M20.0272 3.0715
L19.9062 3.0715
" />
<path d="M19.9062 3.0715
L19.7853 3.0111
" />
<path d="M19.7853 3.0111
L19.7248 2.9506
" />
<path d="M19.7248 2.9506
L19.6643 2.8296
" />
<path d="M19.6643 2.8296
L19.6039 2.5877
" />
<path d="M19.6039 2.5877
L19.6039 2.2853
" />
<path d="M19.6039 2.2853
L19.6643 2.0434
" />
<path d="M19.6643 2.0434
L19.7248 1.9225
" />
<path d="M19.7248 1.9225
L19.7853 1.8620
" />
<path d="M19.7853 1.8620
L19.9062 1.8015
" />
</g></g> 
</svg>
